<?xml version="1.0" encoding="UTF-8" standalone="no"?>
<svg
   xmlns:dc="http://purl.org/dc/elements/1.1/"
   xmlns:cc="http://creativecommons.org/ns#"
   xmlns:rdf="http://www.w3.org/1999/02/22-rdf-syntax-ns#"
   xmlns:svg="http://www.w3.org/2000/svg"
   xmlns="http://www.w3.org/2000/svg"
   xmlns:sodipodi="http://sodipodi.sourceforge.net/DTD/sodipodi-0.dtd"
   xmlns:inkscape="http://www.inkscape.org/namespaces/inkscape"
   height="517.0426"
   width="1006.89"
   x="0px"
   y="0px"
   viewBox="0 0 1006.8899 517.04262"
   xml:space="preserve"
   version="1.1"
   id="svg988"
   sodipodi:docname="soft-triangle-shape.svg"
   inkscape:version="1.0 (4035a4f, 2020-05-01)"><metadata
   id="metadata994"><rdf:RDF><cc:Work
       rdf:about=""><dc:format>image/svg+xml</dc:format><dc:type
         rdf:resource="http://purl.org/dc/dcmitype/StillImage" /><dc:title></dc:title></cc:Work></rdf:RDF></metadata><defs
   id="defs992" /><sodipodi:namedview
   fit-margin-bottom="0"
   fit-margin-right="0"
   fit-margin-left="0"
   fit-margin-top="0"
   inkscape:document-rotation="0"
   pagecolor="#ffffff"
   bordercolor="#666666"
   borderopacity="1"
   objecttolerance="10"
   gridtolerance="10"
   guidetolerance="10"
   inkscape:pageopacity="0"
   inkscape:pageshadow="2"
   inkscape:window-width="1920"
   inkscape:window-height="1009"
   id="namedview990"
   showgrid="false"
   inkscape:zoom="0.85122964"
   inkscape:cx="604.09347"
   inkscape:cy="317.61513"
   inkscape:window-x="1440"
   inkscape:window-y="68"
   inkscape:window-maximized="0"
   inkscape:current-layer="svg988"><inkscape:grid
     id="grid1150"
     type="xygrid" /></sodipodi:namedview>
<style
   type="text/css"
   id="style984">
	.soft-triangle-shape-0{fill:#377DFF;}
</style>
<path
   style="opacity:1;fill:#01cbd7;fill-opacity:1;stroke:none;stroke-width:0.666916;stroke-miterlimit:4;stroke-dasharray:none;stroke-opacity:1"
   class="soft-triangle-shape-0 fill-primary"
   opacity="0.1"
   d="M 140.14585,176.27774 C 92.151916,217.68608 65.258786,276.51937 67.879136,337.4102 71.878626,430.83617 144.2143,539.43662 473.34504,513.00987 992.58978,471.40865 934.11788,345.11998 938.56498,318.86639 935.80668,316.35874 941.13678,88.387418 793.0211,85.751178 690.46566,74.719978 660.50373,101.14189 578.16077,53.760843 476.50426,-19.619918 365.91037,-18.354348 274.47368,60.475826 Z"
   id="path986"
   sodipodi:nodetypes="cccccccc" />
<text
   transform="translate(-299.50634,106.73717)"
   id="text841"
   y="377.13263"
   x="292.4024"
   style="font-style:normal;font-weight:normal;font-size:192px;line-height:1.25;font-family:sans-serif;white-space:pre;inline-size:1248.33;fill:#000000;fill-opacity:1;stroke:none"
   xml:space="preserve"><tspan
     x="292.4024"
     y="377.13263"><tspan
       style="font-style:normal;font-variant:normal;font-weight:300;font-stretch:condensed;font-size:192px;font-family:'IBM Plex Sans Condensed';-inkscape-font-specification:'IBM Plex Sans Condensed, Light Condensed';fill:#1d1d1d;fill-opacity:1">Seth Maxwell</tspan></tspan></text><g
   inkscape:label="behind"
   id="layer3"
   inkscape:groupmode="layer" /><g
   inkscape:label="mid"
   id="layer4"
   inkscape:groupmode="layer" /><g
   inkscape:label="pineapple"
   id="layer1"
   inkscape:groupmode="layer" /><ellipse
   cx="426.3056"
   cy="238.75549"
   rx="58.470818"
   ry="80.06871"
   id="path925"
   style="opacity:1;fill:#e9262c;fill-opacity:1;stroke:#1d1d1d;stroke-width:9;stroke-miterlimit:4;stroke-dasharray:none;stroke-opacity:1" /><path
   sodipodi:nodetypes="czzczzcc"
   id="path1097-0-2"
   d="m 436.49342,151.24231 c 0,0 -4.79588,-36.89511 -13.81444,-51.10443 -9.01859,-14.209321 -20.57412,-24.511241 -37.19267,-29.385071 -16.61856,-4.87382 -57.82315,7.17636 -57.82315,7.17636 0,0 29.30312,7.40853 40.56293,13.35622 11.25981,5.94769 18.53827,9.851341 26.87746,20.286771 8.33915,10.43544 20.13691,42.22536 20.13691,42.22536 z"
   style="fill:#a87981;fill-opacity:1;stroke:#1d1d1d;stroke-width:8.92653;stroke-linecap:round;stroke-linejoin:round;stroke-miterlimit:4;stroke-dasharray:none;stroke-opacity:1" /><path
   style="fill:#a87981;fill-opacity:1;stroke:#1d1d1d;stroke-width:8.02348;stroke-linecap:round;stroke-linejoin:round;stroke-miterlimit:4;stroke-dasharray:none;stroke-opacity:1"
   d="m 426.45473,138.45278 c 0,0 4.79588,-29.80776 13.81444,-41.287541 9.01859,-11.47979 20.57412,-19.80277 37.19267,-23.74036 16.61858,-3.93759 57.82318,5.79782 57.82318,5.79782 0,0 -29.30313,5.98539 -40.56295,10.79056 -11.25982,4.80517 -18.53828,7.95896 -26.87743,16.389801 -8.33919,8.43083 -20.13691,34.1141 -20.13691,34.1141 z"
   id="path1097-0"
   sodipodi:nodetypes="czzczzcc" /><path
   sodipodi:nodetypes="czczcc"
   id="path1146"
   d="m 403.36458,148.15317 c 0,0 3.19596,-34.33677 7.3226,-50.785741 4.12668,-16.44894 17.49287,-44.56706 17.49287,-44.56706 0,0 14.23793,26.83665 18.30652,43.53063 4.06858,16.693971 6.10216,51.822171 6.10216,51.822171 z"
   style="fill:#a87981;fill-opacity:1;stroke:#1d1d1d;stroke-width:9.79499;stroke-linecap:butt;stroke-linejoin:round;stroke-miterlimit:4;stroke-dasharray:none;stroke-opacity:1" /><path
   style="fill:#a87981;fill-opacity:1;stroke:#1d1d1d;stroke-width:9;stroke-linecap:round;stroke-linejoin:round;stroke-miterlimit:4;stroke-dasharray:none;stroke-opacity:1"
   d="m 428.23504,155.83224 c 0,0 -10.23708,-32.77555 -22.02161,-44.23148 -11.78449,-11.45591 -25.81433,-18.945311 -44.64586,-20.674131 -18.83152,-1.72881 -62.25698,15.934881 -62.25698,15.934881 0,0 33.04481,1.97029 46.16202,5.54765 13.1172,3.57738 21.60428,5.9435 32.13517,14.07764 10.53089,8.13413 27.73345,35.12732 27.73345,35.12732 z"
   id="path1097-2"
   sodipodi:nodetypes="czzczzcc" /><path
   inkscape:transform-center-y="-2.9032284"
   inkscape:transform-center-x="4.568078"
   sodipodi:nodetypes="czzczzcc"
   id="path1097"
   d="m 428.23504,155.83224 c 0,0 11.00281,-32.52649 23.0527,-43.70293 12.04989,-11.17645 26.2515,-18.334801 45.11837,-19.621561 18.86691,-1.28676 61.86622,17.390331 61.86622,17.390331 0,0 -33.08194,1.19489 -46.27941,4.46369 -13.19747,3.26882 -21.73772,5.43527 -32.45643,13.32025 -10.71874,7.88496 -28.54953,34.46736 -28.54953,34.46736 z"
   style="fill:#a87981;fill-opacity:1;stroke:#1d1d1d;stroke-width:9;stroke-linecap:round;stroke-linejoin:round;stroke-miterlimit:4;stroke-dasharray:none;stroke-opacity:1" /><path
   style="fill:#ffffff;fill-opacity:1;stroke:#1d1d1d;stroke-width:3.43937;stroke-linecap:butt;stroke-linejoin:round;stroke-miterlimit:4;stroke-dasharray:none;stroke-opacity:1"
   d="m 387.97864,254.34437 c 0,0 -11.53577,-34.02289 -0.17461,-54.32635 11.36107,-20.30354 34.33701,-28.00111 34.33701,-28.00111 0,0 -15.16588,18.34918 -22.04549,33.74817 -6.87961,15.39897 -12.11694,48.57929 -12.11694,48.57929 z"
   id="path1801"
   sodipodi:nodetypes="czczc" /></svg>
