<svg xmlns="http://www.w3.org/2000/svg" height="517.043" width="1006.89"><path class="fill-primary" d="M140.146 176.278C92.152 217.686 65.259 276.519 67.879 337.41c4 93.426 76.335 202.027 405.466 175.6 519.245-41.601 460.773-167.89 465.22-194.144-2.758-2.507 2.572-230.479-145.544-233.115-102.555-11.031-132.517 15.39-214.86-31.99-101.657-73.38-212.25-72.115-303.687 6.715z" fill="#01cbd7"/><text transform="translate(-299.506 106.737)" y="377.133" x="292.402" style="line-height:1.25;white-space:pre;inline-size:1248.33" font-weight="400" font-size="192" font-family="sans-serif"><tspan x="292.402" y="377.133"><tspan style="-inkscape-font-specification:'IBM Plex Sans Condensed, Light Condensed'" font-weight="300" font-stretch="condensed" font-family="IBM Plex Sans Condensed" fill="#1d1d1d">Seth Maxwell</tspan></tspan></text><ellipse cx="426.306" cy="238.755" rx="58.471" ry="80.069" fill="#e9262c" stroke="#1d1d1d" stroke-width="9"/><path d="M436.493 151.242s-4.795-36.895-13.814-51.104c-9.019-14.21-20.574-24.511-37.193-29.385-16.618-4.874-57.823 7.176-57.823 7.176s29.303 7.409 40.563 13.356c11.26 5.948 18.538 9.852 26.878 20.287 8.339 10.436 20.136 42.226 20.136 42.226z" fill="#a87981" stroke="#1d1d1d" stroke-width="8.927" stroke-linecap="round" stroke-linejoin="round"/><path d="M426.455 138.453s4.796-29.808 13.814-41.288c9.019-11.48 20.574-19.803 37.193-23.74 16.618-3.938 57.823 5.798 57.823 5.798s-29.303 5.985-40.563 10.79c-11.26 4.805-18.538 7.96-26.877 16.39-8.34 8.43-20.137 34.114-20.137 34.114z" fill="#a87981" stroke="#1d1d1d" stroke-width="8.023" stroke-linecap="round" stroke-linejoin="round"/><path d="M403.365 148.153s3.196-34.337 7.322-50.786C414.814 80.918 428.18 52.8 428.18 52.8s14.238 26.837 18.307 43.531c4.068 16.694 6.102 51.822 6.102 51.822z" fill="#a87981" stroke="#1d1d1d" stroke-width="9.795" stroke-linejoin="round"/><path d="M428.235 155.832s-10.237-32.775-22.022-44.231c-11.784-11.456-25.814-18.946-44.645-20.674-18.832-1.73-62.257 15.935-62.257 15.935s33.044 1.97 46.162 5.547c13.117 3.578 21.604 5.944 32.135 14.078 10.53 8.134 27.733 35.127 27.733 35.127zM428.235 155.832s11.003-32.526 23.053-43.703c12.05-11.176 26.251-18.334 45.118-19.621 18.867-1.287 61.866 17.39 61.866 17.39s-33.082 1.195-46.28 4.464c-13.197 3.269-21.737 5.435-32.456 13.32-10.718 7.885-28.549 34.467-28.549 34.467z" fill="#a87981" stroke="#1d1d1d" stroke-width="9" stroke-linecap="round" stroke-linejoin="round"/><path d="M387.979 254.344s-11.536-34.023-.175-54.326c11.361-20.304 34.337-28.001 34.337-28.001s-15.166 18.35-22.045 33.748c-6.88 15.4-12.117 48.58-12.117 48.58z" fill="#fff" stroke="#1d1d1d" stroke-width="3.439" stroke-linejoin="round"/></svg>