<?xml version="1.0" encoding="UTF-8" standalone="no"?>
<svg
   xmlns:dc="http://purl.org/dc/elements/1.1/"
   xmlns:cc="http://creativecommons.org/ns#"
   xmlns:rdf="http://www.w3.org/1999/02/22-rdf-syntax-ns#"
   xmlns:svg="http://www.w3.org/2000/svg"
   xmlns="http://www.w3.org/2000/svg"
   xmlns:sodipodi="http://sodipodi.sourceforge.net/DTD/sodipodi-0.dtd"
   xmlns:inkscape="http://www.inkscape.org/namespaces/inkscape"
   version="1.1"
   id="svg4583"
   sodipodi:docname="logo-white.svg"
   width="70"
   height="59.013889"
   inkscape:version="0.92.2 5c3e80d, 2017-08-06">
  <metadata
     id="metadata4589">
    <rdf:RDF>
      <cc:Work
         rdf:about="">
        <dc:format>image/svg+xml</dc:format>
        <dc:type
           rdf:resource="http://purl.org/dc/dcmitype/StillImage" />
        <dc:title></dc:title>
      </cc:Work>
    </rdf:RDF>
  </metadata>
  <defs
     id="defs4587" />
  <sodipodi:namedview
     pagecolor="#ffffff"
     bordercolor="#666666"
     borderopacity="1"
     objecttolerance="10"
     gridtolerance="10"
     guidetolerance="10"
     inkscape:pageopacity="0"
     inkscape:pageshadow="2"
     inkscape:window-width="1440"
     inkscape:window-height="789"
     id="namedview4585"
     showgrid="false"
     fit-margin-top="0"
     fit-margin-left="0"
     fit-margin-right="0"
     fit-margin-bottom="0"
     inkscape:zoom="2.36"
     inkscape:cx="-35.847458"
     inkscape:cy="19.013892"
     inkscape:window-x="0"
     inkscape:window-y="1"
     inkscape:window-maximized="1"
     inkscape:current-layer="svg4583" />
  <g
     id="SvgjsG1141"
     featurekey="symbol1"
     transform="matrix(0.77777778,0,0,0.77777778,-3.8888889,-9.3815556)"
     style="fill:#ffffff;fill-opacity:1">
    <path
       d="M 95,14.296 29.416,79.881 V 74.285 L 91.639,12.062 H 83.862 L 29.416,66.506 V 60.91 L 78.265,12.062 H 70.486 L 49.812,32.734 29.14,12.062 H 21.361 L 45.923,36.625 43.124,39.423 15.764,12.062 H 7.986 L 39.236,43.312 36.438,46.11 5,14.673 v 7.696 0.083 65.485 h 5.5 V 27.953 l 3.958,3.957 v 56.027 h 5.5 V 37.412 l 3.958,3.957 v 46.568 h 2.75 2.475 0.276 V 87.66 L 49.813,67.265 70.487,87.937 h 0.099 1.541 3.959 V 40.994 l 3.958,-3.959 v 50.902 h 5.5 V 31.535 l 3.958,-3.958 v 60.36 H 95 V 22.369 H 94.709 L 95,22.078 Z M 32.546,50 l -3.13,3.131 v -6.262 z m 30.642,3.891 7.396,7.396 v 5.598 L 60.389,56.688 Z m -9.486,9.484 2.798,-2.799 14.084,14.086 v 5.596 z m 16.882,-9.869 -3.506,-3.507 3.506,-3.506 z"
       id="path4580"
       inkscape:connector-curvature="0"
       style="fill:#ffffff;fill-opacity:1" />
  </g>
</svg>
