<?xml version="1.0" encoding="UTF-8" standalone="no"?>
<svg
   xmlns:dc="http://purl.org/dc/elements/1.1/"
   xmlns:cc="http://creativecommons.org/ns#"
   xmlns:rdf="http://www.w3.org/1999/02/22-rdf-syntax-ns#"
   xmlns:svg="http://www.w3.org/2000/svg"
   xmlns="http://www.w3.org/2000/svg"
   xmlns:sodipodi="http://sodipodi.sourceforge.net/DTD/sodipodi-0.dtd"
   xmlns:inkscape="http://www.inkscape.org/namespaces/inkscape"
   width="68.791664mm"
   height="115.58512mm"
   viewBox="0 0 68.791666 115.58512"
   version="1.1"
   id="svg8"
   inkscape:version="1.0 (4035a4f, 2020-05-01)"
   sodipodi:docname="mobile-first.svg">
  <defs
     id="defs2">
    <filter
       inkscape:collect="always"
       style="color-interpolation-filters:sRGB"
       id="filter1194"
       x="-0.0002717743"
       width="1.0005435"
       y="-0.00016174924"
       height="1.0003235">
      <feGaussianBlur
         inkscape:collect="always"
         stdDeviation="0.0077899192"
         id="feGaussianBlur1196" />
    </filter>
  </defs>
  <sodipodi:namedview
     fit-margin-bottom="0"
     fit-margin-right="0"
     fit-margin-left="0"
     fit-margin-top="0"
     id="base"
     pagecolor="#ffffff"
     bordercolor="#666666"
     borderopacity="1.0"
     inkscape:pageopacity="0.0"
     inkscape:pageshadow="2"
     inkscape:zoom="0.70710678"
     inkscape:cx="449.95767"
     inkscape:cy="319.08113"
     inkscape:document-units="mm"
     inkscape:current-layer="layer1"
     inkscape:document-rotation="0"
     showgrid="false"
     inkscape:window-width="1920"
     inkscape:window-height="1035"
     inkscape:window-x="1440"
     inkscape:window-y="68"
     inkscape:window-maximized="1" />
  <metadata
     id="metadata5">
    <rdf:RDF>
      <cc:Work
         rdf:about="">
        <dc:format>image/svg+xml</dc:format>
        <dc:type
           rdf:resource="http://purl.org/dc/dcmitype/StillImage" />
        <dc:title />
      </cc:Work>
    </rdf:RDF>
  </metadata>
  <g
     transform="translate(-15.97458,-70.681549)"
     inkscape:groupmode="layer"
     id="layer4"
     inkscape:label="behind" />
  <g
     transform="translate(-15.97458,-70.681549)"
     inkscape:label="Layer 1"
     inkscape:groupmode="layer"
     id="layer1"
     style="filter:url(#filter1194)">
    <rect
       style="fill:#1d1d1d;fill-opacity:1;stroke:none;stroke-width:0.971508;stroke-linejoin:round"
       id="rect833"
       width="68.791664"
       height="115.58512"
       x="15.97458"
       y="70.681549"
       ry="3.5069816" />
    <rect
       style="fill:#e9262c;fill-opacity:1;stroke:none;stroke-width:1.21983;stroke-linejoin:round"
       id="rect835"
       width="56.364323"
       height="87.280663"
       x="22.456013"
       y="84.967445"
       ry="0" />
    <rect
       style="fill:#708090;fill-opacity:1;stroke:none;stroke-width:0.882181;stroke-linejoin:round"
       id="rect837"
       width="24.870834"
       height="2.9966512"
       x="38.10001"
       y="76.888893"
       ry="1.4983256" />
    <rect
       ry="1.4983256"
       y="77.013756"
       x="29.567188"
       height="2.9966512"
       width="3.1750028"
       id="rect837-5"
       style="fill:#505050;fill-opacity:1;stroke:none;stroke-width:0.315199;stroke-linejoin:round" />
    <g
       id="g1136"
       transform="matrix(0.44031744,0,0,0.43987639,27.113331,95.406153)">
      <g
         transform="translate(-47.013939,-106.62262)"
         inkscape:label="back"
         id="layer3">
        <ellipse
           ry="54.128521"
           rx="54.128525"
           cy="160.75114"
           cx="101.14246"
           id="path1191"
           style="fill:#01cbd7;fill-opacity:1;stroke:none;stroke-width:1.32651;stroke-linejoin:miter;stroke-miterlimit:5.4;stroke-dasharray:none;stroke-opacity:1" />
      </g>
      <g
         transform="translate(-47.013939,-106.62262)"
         inkscape:label="shirt"
         id="layer2">
        <ellipse
           ry="4.2437549"
           rx="5.8851929"
           cy="183.86279"
           cx="101.93565"
           id="path1172"
           style="fill:#cc9c80;fill-opacity:1;stroke:#8c2425;stroke-width:0.899695;stroke-linejoin:miter;stroke-miterlimit:5.4;stroke-dasharray:none;stroke-opacity:1" />
      </g>
      <g
         transform="translate(-47.013939,-106.62262)"
         id="layer1-6"
         inkscape:label="head">
        <ellipse
           style="fill:#5a3825;fill-opacity:1;stroke:#5a3825;stroke-width:3.00311;stroke-opacity:1"
           id="path853-5"
           cx="102.16378"
           cy="137.91107"
           rx="30.533985"
           ry="24.319969" />
        <rect
           ry="0.042953249"
           y="126.36591"
           x="92.153854"
           height="18.708866"
           width="10.423512"
           id="rect871"
           style="fill:#000000;fill-opacity:0;stroke:#5a3825;stroke-width:3;stroke-opacity:1"
           transform="rotate(8.674784)" />
        <rect
           style="fill:#000000;fill-opacity:0;stroke:#5a3825;stroke-width:3;stroke-opacity:1"
           id="rect871-0"
           width="10.423512"
           height="18.708866"
           x="103.57507"
           y="153.57915"
           ry="0.042953249"
           transform="rotate(-7.196956)" />
        <ellipse
           ry="26.853189"
           rx="30.39451"
           cy="156.41949"
           cx="102.09695"
           id="path853"
           style="fill:#ffcd94;fill-opacity:1;stroke:#ffcd94;stroke-width:3.14843;stroke-opacity:1" />
        <ellipse
           ry="3.2740517"
           rx="2.4054255"
           cy="156.96478"
           cx="70.420143"
           id="path890"
           style="fill:#ffcd94;fill-opacity:1;stroke:#ffcd94;stroke-width:3;stroke-opacity:1" />
        <ellipse
           style="fill:#ffcd94;fill-opacity:1;stroke:#ffcd94;stroke-width:3;stroke-opacity:1"
           id="path890-6"
           cx="133.77916"
           cy="156.89796"
           rx="2.4054255"
           ry="3.2740517" />
        <ellipse
           ry="9.342474"
           rx="17.761463"
           cy="132.09796"
           cx="108.17734"
           id="path907"
           style="fill:#5a3825;fill-opacity:1;stroke:#5a3825;stroke-width:3.95936;stroke-opacity:1" />
        <ellipse
           ry="1.6036172"
           rx="11.024868"
           cy="160.49535"
           cx="101.89651"
           id="path909"
           style="fill:#e5af90;fill-opacity:1;stroke:none;stroke-width:3.56453;stroke-miterlimit:2.6;stroke-dasharray:none;stroke-opacity:1" />
        <ellipse
           style="fill:none;fill-opacity:1;stroke:#846d7b;stroke-width:0.712548;stroke-linejoin:round;stroke-miterlimit:2.6;stroke-dasharray:none;stroke-opacity:1"
           id="path919-5"
           cx="101.85046"
           cy="170.20145"
           rx="10.298187"
           ry="4.3180809" />
        <rect
           ry="0.08590658"
           y="164.30626"
           x="91.28125"
           height="5.2916718"
           width="21.166666"
           id="rect970"
           style="fill:#ffcd94;fill-opacity:1;stroke:#ffcd94;stroke-width:1.58656;stroke-linejoin:round;stroke-miterlimit:2.6;stroke-dasharray:none;stroke-opacity:1" />
        <path
           style="fill:none;stroke:#000000;stroke-width:0.645652;stroke-linecap:butt;stroke-linejoin:miter;stroke-miterlimit:4;stroke-dasharray:none;stroke-opacity:1"
           d="M 70.114583,152.13541 H 80.433281"
           id="path1008-6" />
        <path
           id="path1008-6-7"
           d="m 123.03125,152.13542 h 11.1125"
           style="fill:none;stroke:#000000;stroke-width:0.670026;stroke-linecap:butt;stroke-linejoin:miter;stroke-miterlimit:4;stroke-dasharray:none;stroke-opacity:1" />
        <ellipse
           style="fill:none;fill-opacity:1;stroke:#5a3825;stroke-width:0.528509;stroke-linejoin:round;stroke-miterlimit:2.6;stroke-dasharray:none;stroke-opacity:1"
           id="path972-3"
           cx="86.651031"
           cy="147.02859"
           rx="5.6432276"
           ry="2.4573164" />
        <ellipse
           ry="2.4573166"
           rx="5.6432276"
           cy="147.02863"
           cx="116.81353"
           id="path972-3-8"
           style="fill:none;fill-opacity:1;stroke:#5a3825;stroke-width:0.528508;stroke-linejoin:round;stroke-miterlimit:2.6;stroke-dasharray:none;stroke-opacity:1" />
        <rect
           ry="0.0687249"
           y="146.57919"
           x="78.052086"
           height="4.233315"
           width="50.270836"
           id="rect1055"
           style="fill:#ffcd94;fill-opacity:1;stroke:none;stroke-width:1.87067;stroke-linejoin:round;stroke-miterlimit:4;stroke-dasharray:none;stroke-opacity:1" />
        <ellipse
           ry="3.8244762"
           rx="3.0685236"
           cy="153.6662"
           cx="86.651039"
           id="path972"
           style="fill:none;fill-opacity:1;stroke:#846d7b;stroke-width:0.486193;stroke-linejoin:round;stroke-miterlimit:2.6;stroke-dasharray:none;stroke-opacity:1" />
        <ellipse
           style="fill:none;fill-opacity:1;stroke:#846d7b;stroke-width:0.486193;stroke-linejoin:round;stroke-miterlimit:2.6;stroke-dasharray:none;stroke-opacity:1"
           id="path972-5"
           cx="117.07808"
           cy="153.6662"
           rx="3.0685236"
           ry="3.8244765" />
        <rect
           ry="0.040805679"
           y="153.7229"
           x="82.020836"
           height="5.0270948"
           width="39.6875"
           id="rect989"
           style="fill:#ffcd94;fill-opacity:1;stroke:#ffcd94;stroke-width:0.46005;stroke-linejoin:round;stroke-miterlimit:2.6;stroke-dasharray:none;stroke-opacity:1" />
        <rect
           style="fill:none;fill-opacity:1;stroke:#000004;stroke-width:1.16;stroke-linejoin:round;stroke-miterlimit:2.6;stroke-dasharray:none;stroke-opacity:1"
           id="rect991-1"
           width="11.906249"
           height="6.6145825"
           x="110.86043"
           y="148.16667"
           ry="0.053691551" />
        <rect
           ry="0.053691551"
           y="148.16667"
           x="80.697914"
           height="6.6145821"
           width="11.906249"
           id="rect991"
           style="fill:none;fill-opacity:1;stroke:#000004;stroke-width:1.16;stroke-linejoin:round;stroke-miterlimit:2.6;stroke-dasharray:none;stroke-opacity:1" />
        <path
           id="path1101"
           d="m 84.350898,116.80073 -1.007148,-3.83884 3.56637,3.1674"
           style="fill:#5a3825;fill-opacity:1;stroke:#5a3825;stroke-width:0.264583px;stroke-linecap:butt;stroke-linejoin:miter;stroke-opacity:1" />
        <path
           inkscape:transform-center-y="-1.0476594"
           inkscape:transform-center-x="1.8112677"
           style="fill:#5a3825;fill-opacity:1;stroke:#5a3825;stroke-width:0.264583px;stroke-linecap:butt;stroke-linejoin:miter;stroke-opacity:1"
           d="m 82.021216,119.10753 -0.06754,-3.96818 2.712991,3.92315"
           id="path1101-3" />
        <path
           inkscape:transform-center-y="-7.6098438"
           inkscape:transform-center-x="-9.7859418"
           style="fill:#5a3825;fill-opacity:1;stroke:#5a3825;stroke-width:0.264583px;stroke-linecap:butt;stroke-linejoin:miter;stroke-opacity:1"
           d="m 80.697917,120.38542 -1.007148,-3.83884 3.56637,3.1674"
           id="path1101-5" />
        <path
           d="m 92.35161,135.8111 c 0.131236,0.16614 0.248541,0.3443 0.393702,0.49842 0.239761,0.25456 0.482468,0.51002 0.758423,0.72481 1.041197,0.81039 2.151134,1.41281 3.382902,1.90348 0.845796,0.33692 1.710126,0.63617 2.593406,0.85687 1.002357,0.25044 2.033177,0.36874 3.049767,0.55312 2.9839,0.31983 5.98581,0.22403 8.97321,0.0311 0.72315,-0.0467 1.44464,-0.1162 2.16697,-0.1743 0,0 0.98054,-0.72554 0.98054,-0.72554 v 0 c -0.73538,0.0693 -1.46962,0.15187 -2.20614,0.20775 -2.99079,0.22695 -5.99863,0.33687 -8.98841,0.0135 -1.00319,-0.18698 -2.02139,-0.30628 -3.00958,-0.56093 -0.867897,-0.22364 -1.716324,-0.52644 -2.544038,-0.87017 -1.466964,-0.6092 -2.920183,-1.44911 -3.971235,-2.66306 -0.134649,-0.15552 -0.236871,-0.33639 -0.355306,-0.50458 0,0 -1.224211,0.70954 -1.224211,0.70954 z"
           id="path1136"
           style="fill:#8b5523;fill-opacity:1;stroke:#8b5523;stroke-width:0.065;stroke-linejoin:miter;stroke-miterlimit:5.4;stroke-dasharray:none;stroke-opacity:1" />
        <path
           d="m 97.546298,135.27358 c 0.955491,0.49146 1.994345,0.68883 3.032372,0.84988 0.64244,0.0997 1.28776,0.17726 1.93355,0.24631 1.62488,0.17371 2.75984,0.22853 4.39986,0.33398 2.69978,0.1466 5.43266,0.34858 8.01891,1.27838 1.22986,0.44216 1.45034,0.62829 2.54138,1.25794 1.09263,0.7879 0.59563,0.39358 1.50206,1.16618 0,0 1.14985,-0.79395 1.14985,-0.79395 v 0 c -0.94323,-0.76502 -0.42805,-0.37377 -1.55537,-1.15814 -1.11953,-0.62963 -1.33943,-0.81169 -2.59642,-1.25379 -2.60786,-0.91721 -5.35757,-1.12319 -8.07544,-1.26912 -1.52549,-0.10332 -2.85111,-0.17405 -4.3673,-0.34918 -0.63318,-0.0731 -1.26551,-0.15845 -1.89454,-0.26619 -0.99633,-0.17064 -2.001037,-0.37775 -2.903431,-0.8912 0,0 -1.185481,0.8489 -1.185481,0.8489 z"
           id="path1140"
           style="fill:#8b5523;fill-opacity:1;stroke:#8b5523;stroke-width:0.0679639;stroke-linejoin:miter;stroke-miterlimit:5.4;stroke-dasharray:none;stroke-opacity:1" />
        <path
           d="m 92.057414,133.47385 c 0.139794,-0.0174 0.280166,-0.032 0.419392,-0.0522 0.892398,-0.1292 1.774899,-0.28821 2.672801,-0.39497 1.163385,-0.13831 1.604894,-0.16297 2.788516,-0.25945 1.921692,-0.13488 3.854027,-0.11063 5.765657,0.10111 1.06102,0.11753 1.76136,0.24583 2.81201,0.41725 1.85547,0.327 3.71749,0.64584 5.608,0.81027 0.96012,0.0835 1.48029,0.0957 2.43104,0.1362 1.47362,0.0295 2.95479,0.004 4.41959,-0.13804 0.54063,-0.0598 1.04644,-0.22124 1.55253,-0.37686 0.44828,-0.1511 0.89632,-0.30238 1.34205,-0.45831 0,0 1.37617,-0.87816 1.37617,-0.87816 v 0 c -0.44412,0.15487 -0.88857,0.30843 -1.33453,0.45965 -0.50181,0.1641 -1.00776,0.32692 -1.5408,0.41263 -1.4761,0.17507 -2.97361,0.21128 -4.46384,0.19502 -0.94759,-0.0332 -1.48275,-0.0418 -2.43909,-0.11888 -1.89146,-0.15253 -3.75499,-0.46507 -5.60813,-0.79791 -1.03981,-0.17298 -1.76812,-0.30796 -2.81887,-0.42799 -1.91791,-0.21908 -3.85736,-0.25042 -5.787273,-0.12251 -1.0978,0.0845 -1.688058,0.12083 -2.770404,0.23836 -0.877577,0.0953 -1.741354,0.23699 -2.612712,0.35976 -0.130435,0.0185 -0.261795,0.0322 -0.392695,0.0482 0,0 -1.419412,0.84668 -1.419412,0.84668 z"
           id="path1144"
           style="fill:#8b5523;fill-opacity:1;stroke:#8b5523;stroke-width:0.0721667;stroke-linejoin:miter;stroke-miterlimit:5.4;stroke-dasharray:none;stroke-opacity:1" />
        <ellipse
           ry="0.99820954"
           rx="1.3994265"
           cy="159.83565"
           cx="102.18118"
           id="path919"
           style="fill:none;fill-opacity:1;stroke:#846d7b;stroke-width:0.416418;stroke-linejoin:round;stroke-miterlimit:2.6;stroke-dasharray:none;stroke-opacity:1" />
        <rect
           ry="0.071431816"
           y="159.70453"
           x="100.21094"
           height="1.4928759"
           width="4.2049851"
           id="rect921"
           style="fill:#e5af90;fill-opacity:1;stroke:none;stroke-width:0.582223;stroke-linejoin:round;stroke-miterlimit:2.6;stroke-dasharray:none;stroke-opacity:1" />
        <path
           id="path1008"
           d="M 92.604166,150.5479 H 111.125"
           style="fill:none;stroke:#000000;stroke-width:1.165;stroke-linecap:butt;stroke-linejoin:miter;stroke-miterlimit:4;stroke-dasharray:none;stroke-opacity:1" />
        <path
           transform="scale(0.26458333)"
           id="path1195"
           d="m 369.86789,811.61667 c -14.01568,-0.92068 -29.08751,-3.4617 -42.15153,-7.10651 -4.31658,-1.20431 -9.13888,-2.68713 -9.3758,-2.88299 -0.0603,-0.0499 1.94276,-9.92458 4.45135,-21.94375 2.50859,-12.01917 4.56108,-21.99268 4.56108,-22.16335 0,-0.17068 -8.09419,-4.78325 -17.98708,-10.25018 -9.89289,-5.46692 -17.98707,-10.06823 -17.98707,-10.22513 0,-0.1569 8.55874,-11.19727 19.01942,-24.53416 10.46068,-13.33688 19.23208,-24.59087 19.492,-25.00886 l 0.47258,-0.75998 1.67461,0.79842 c 6.77892,3.23207 20.45671,7.48883 28.65521,8.918 l 2.63447,0.45925 0.005,2.57627 c 0.0122,5.85838 2.01283,10.57162 6.3537,14.96864 2.19869,2.22712 3.57104,3.26861 5.63231,4.27437 6.53943,3.19079 13.22533,3.14317 19.88967,-0.14168 4.84525,-2.38821 8.81792,-6.91056 10.65024,-12.12386 0.84057,-2.39156 1.53178,-7.16787 1.21815,-8.41747 -0.18757,-0.74736 -0.0523,-0.87153 1.18457,-1.08722 10.34997,-1.80486 21.14661,-4.96062 30.23224,-8.83662 l 2.67289,-1.14027 0.77918,0.99065 c 0.42854,0.54485 9.25021,11.61898 19.60372,24.60917 16.34523,20.50781 18.74694,23.67526 18.23532,24.04936 -0.32407,0.23697 -8.50726,4.73729 -18.18486,10.0007 -13.00771,7.07458 -17.55178,9.71243 -17.42743,10.11669 0.56614,1.84051 8.89932,42.01677 8.77963,42.32869 -0.17621,0.4592 -10.89636,4.02711 -17.49472,5.82264 -10.40261,2.83073 -22.90277,5.07937 -34.33896,6.17719 -7.16947,0.68824 -24.405,0.98165 -31.25026,0.53199 z"
           style="fill:#cc9c80;fill-opacity:1;stroke:none;stroke-width:1.30884;stroke-linejoin:miter;stroke-miterlimit:5.4;stroke-dasharray:none;stroke-opacity:1" />
        <path
           transform="scale(0.26458333)"
           id="path1197"
           d="m 369.86789,811.61667 c -16.03634,-1.05341 -32.2896,-4.01006 -47.23878,-8.59326 -2.29835,-0.70464 -4.22769,-1.32696 -4.28742,-1.38293 -0.0597,-0.056 1.94338,-9.94556 4.45135,-21.97685 2.50797,-12.03129 4.55995,-21.9935 4.55995,-22.13824 0,-0.14474 -8.09419,-4.74983 -17.98708,-10.23353 -9.89289,-5.48371 -17.98707,-10.10213 -17.98707,-10.26317 0,-0.16104 8.57658,-11.22952 19.05906,-24.59662 10.48249,-13.3671 19.25611,-24.61935 19.49696,-25.00499 0.42432,-0.67946 0.5177,-0.66458 3.01598,0.48058 6.43081,2.94775 16.33862,6.09991 24.83323,7.90067 l 5.53987,1.17439 0.007,2.54363 c 0.0155,5.64461 2.16175,10.68913 6.35306,14.93184 2.86409,2.89922 4.88098,4.19313 8.49526,5.45005 10.27694,3.57397 22.00884,-1.38375 26.73434,-11.29751 1.48152,-3.10811 2.05458,-5.48572 2.13724,-8.86735 0.0347,-1.41823 0.0956,-2.57868 0.13543,-2.57878 0.0398,-10e-5 1.83853,-0.33527 3.99713,-0.74481 8.33703,-1.58175 18.9881,-4.79874 26.56428,-8.02332 1.87862,-0.79959 3.45869,-1.40228 3.51126,-1.33933 0.0526,0.063 8.87622,11.14666 19.60812,24.63048 16.92136,21.2604 19.43448,24.5731 18.92468,24.94588 -0.32333,0.23642 -8.14162,4.54525 -17.37398,9.57518 -9.23236,5.02993 -17.11134,9.38517 -17.50885,9.67832 -0.82477,0.60824 -1.19148,-1.42421 5.07189,28.11101 1.71496,8.08699 3.052,14.8759 2.9712,15.08647 -0.17633,0.4595 -10.89419,4.02685 -17.49486,5.82301 -10.40261,2.83073 -22.90277,5.07937 -34.33896,6.17719 -7.16947,0.68824 -24.405,0.98165 -31.25026,0.53199 z"
           style="fill:#8c2425;fill-opacity:1;stroke:#8c2425;stroke-width:0.551811;stroke-linejoin:miter;stroke-miterlimit:5.4;stroke-dasharray:none;stroke-opacity:1" />
        <path
           transform="scale(0.26458333)"
           id="path1241"
           d="m 313.98262,800.33673 c -5.22517,-1.83854 -12.29773,-4.72947 -17.85769,-7.29936 -4.01575,-1.85614 -12.09548,-5.99387 -11.96297,-6.12639 0.054,-0.054 29.40013,12.93731 30.27031,13.40043 0.3803,0.2024 0.0987,0.21826 -0.44965,0.0253 z"
           style="fill:#ffcd94;fill-opacity:1;stroke:#ffcd94;stroke-width:0.275316;stroke-linejoin:miter;stroke-miterlimit:4;stroke-dasharray:none;stroke-opacity:1" />
        <path
           transform="scale(0.26458333)"
           id="path1243"
           d=""
           style="fill:#ffcd94;fill-opacity:1;stroke:#ffcd94;stroke-width:0.137658;stroke-linejoin:miter;stroke-miterlimit:4;stroke-dasharray:none;stroke-opacity:1" />
        <path
           transform="scale(0.26458333)"
           id="path1245"
           d=""
           style="fill:#ffcd94;fill-opacity:1;stroke:#ffcd94;stroke-width:0.137658;stroke-linejoin:miter;stroke-miterlimit:4;stroke-dasharray:none;stroke-opacity:1" />
        <path
           transform="scale(0.26458333)"
           id="path1247"
           d=""
           style="fill:#ffcd94;fill-opacity:1;stroke:#ffcd94;stroke-width:0.137658;stroke-linejoin:miter;stroke-miterlimit:4;stroke-dasharray:none;stroke-opacity:1" />
        <path
           transform="scale(0.26458333)"
           id="path1249"
           d=""
           style="fill:#ffcd94;fill-opacity:1;stroke:#ffcd94;stroke-width:0.137658;stroke-linejoin:miter;stroke-miterlimit:4;stroke-dasharray:none;stroke-opacity:1" />
        <path
           transform="scale(0.26458333)"
           id="path1251"
           d=""
           style="fill:#ffcd94;fill-opacity:1;stroke:#ffcd94;stroke-width:0.137658;stroke-linejoin:miter;stroke-miterlimit:4;stroke-dasharray:none;stroke-opacity:1" />
        <path
           transform="scale(0.26458333)"
           id="path1255"
           d=""
           style="fill:#ffcd94;fill-opacity:1;stroke:#ffcd94;stroke-width:0.137658;stroke-linejoin:miter;stroke-miterlimit:4;stroke-dasharray:none;stroke-opacity:1" />
        <path
           transform="scale(0.26458333)"
           id="path1261"
           d=""
           style="fill:#ffcd94;fill-opacity:1;stroke:#ffcd94;stroke-width:0.137658;stroke-linejoin:miter;stroke-miterlimit:4;stroke-dasharray:none;stroke-opacity:1" />
        <path
           transform="scale(0.26458333)"
           id="path1263"
           d=""
           style="fill:#ffcd94;fill-opacity:1;stroke:#ffcd94;stroke-width:0.137658;stroke-linejoin:miter;stroke-miterlimit:4;stroke-dasharray:none;stroke-opacity:1" />
        <path
           transform="scale(0.26458333)"
           id="path1265"
           d="m 315.20013,800.80434 c -0.22081,-0.0742 -0.40148,-0.17201 -0.40148,-0.21733 0,-0.0918 0.0605,-0.0735 0.64237,0.19417 0.42706,0.19644 0.30857,0.20783 -0.24089,0.0232 z"
           style="fill:#ffcd94;fill-opacity:1;stroke:#ffcd94;stroke-width:0.137658;stroke-linejoin:miter;stroke-miterlimit:4;stroke-dasharray:none;stroke-opacity:1" />
        <path
           id="path1267"
           d="m 83.837803,211.94971 c -0.218535,-0.0967 -0.40164,-0.17582 -0.4069,-0.17582 -0.0053,0 0.0053,0.0111 0.02342,0.0246 0.02923,0.0219 0.02967,0.0247 0.0039,0.0252 -0.01601,2.5e-4 -0.07214,-0.0154 -0.124735,-0.0348 -0.08242,-0.0305 -0.09436,-0.0403 -0.08646,-0.0714 0.0084,-0.033 0.0073,-0.0336 -0.0131,-0.007 -0.04126,0.0545 -0.09995,0.0408 -0.613381,-0.14318 -1.184719,-0.42452 -2.710844,-1.04432 -4.0875,-1.66006 -0.516411,-0.23098 -2.313202,-1.11243 -2.953049,-1.44868 -0.399026,-0.20968 -0.486881,-0.26829 -0.471945,-0.31483 0.0081,-0.0253 -0.05976,-0.0607 -0.436915,-0.22794 -0.554556,-0.24583 -0.60689,-0.27175 -0.620717,-0.30747 -0.0061,-0.0158 -0.02479,-0.0401 -0.04152,-0.0539 -0.02883,-0.0239 -0.02635,-0.0339 0.04791,-0.19331 0.232341,-0.49873 3.308549,-7.07709 3.953812,-8.45509 1.332629,-2.84593 1.221047,-2.61547 1.260697,-2.60375 0.171328,0.0506 1.356537,0.70341 5.630418,3.10121 1.478817,0.82966 1.713616,0.96296 1.768152,1.00377 l 0.03832,0.0287 -0.151797,0.74788 c -0.25015,1.23246 -2.162646,10.45329 -2.231255,10.75769 -0.02733,0.12124 -0.0476,0.17748 -0.06488,0.18002 -0.01381,0.002 -0.20393,-0.0755 -0.422465,-0.17214 z"
           style="fill:#ffcd94;fill-opacity:1;stroke:none;stroke-width:0;stroke-linejoin:miter;stroke-miterlimit:4;stroke-dasharray:none;stroke-opacity:1" />
        <path
           transform="scale(0.26458333)"
           id="path1269"
           d=""
           style="fill:#ffcd94;fill-opacity:1;stroke:#ffcd94;stroke-width:0.137658;stroke-linejoin:miter;stroke-miterlimit:4;stroke-dasharray:none;stroke-opacity:1" />
        <path
           transform="scale(0.26458333)"
           id="path1271"
           d=""
           style="fill:#ffcd94;fill-opacity:1;stroke:#ffcd94;stroke-width:0.137658;stroke-linejoin:miter;stroke-miterlimit:4;stroke-dasharray:none;stroke-opacity:1" />
        <path
           transform="scale(0.26458333)"
           id="path1273"
           d=""
           style="fill:#ffcd94;fill-opacity:1;stroke:#ffcd94;stroke-width:0.137658;stroke-linejoin:miter;stroke-miterlimit:4;stroke-dasharray:none;stroke-opacity:1" />
        <path
           transform="scale(0.26458333)"
           id="path1275"
           d=""
           style="fill:#ffcd94;fill-opacity:1;stroke:#ffcd94;stroke-width:0.137658;stroke-linejoin:miter;stroke-miterlimit:4;stroke-dasharray:none;stroke-opacity:1" />
        <path
           transform="scale(0.26458333)"
           id="path1294"
           d=""
           style="fill:#ffcd94;fill-opacity:1;stroke:#ffcd94;stroke-width:0.389355;stroke-linejoin:miter;stroke-miterlimit:4;stroke-dasharray:none;stroke-opacity:1" />
        <path
           transform="scale(0.26458333)"
           id="path1302"
           d="m 282.841,786.33584 c -0.50848,-0.28427 -0.91884,-0.52251 -0.91191,-0.52943 0.0289,-0.0289 1.67298,0.73188 1.79241,0.82944 0.0555,0.0453 0.11059,0.22033 0.0687,0.21813 -0.0136,-7.2e-4 -0.44073,-0.23388 -0.9492,-0.51814 z"
           style="fill:#ffcd94;fill-opacity:1;stroke:#ffcd94;stroke-width:0.0688289;stroke-linejoin:miter;stroke-miterlimit:4;stroke-dasharray:none;stroke-opacity:1" />
        <path
           id="path1310"
           d="m 84.454657,212.04019 -0.05949,0.1827"
           style="fill:none;stroke:#000000;stroke-width:0.264583px;stroke-linecap:butt;stroke-linejoin:miter;stroke-opacity:1" />
        <path
           transform="scale(0.26458333)"
           id="path1312"
           d="m 317.32389,801.5497 c -1.20275,-0.4036 -1.63294,-0.55247 -1.60035,-0.55378 0.0112,-4.5e-4 0.0285,-0.0186 0.0384,-0.0403 0.0295,-0.0647 -0.0162,-0.11122 -0.19527,-0.19905 l -0.16022,-0.0786 0.0635,-0.0102 c 0.0349,-0.006 0.0767,-0.0243 0.0928,-0.0416 0.0289,-0.031 0.0382,-0.0275 0.67099,0.24993 1.22776,0.53825 1.87106,0.80897 2.11567,0.89034 0.089,0.0296 0.1163,0.0329 0.1493,0.0178 0.0222,-0.0101 0.043,-0.0184 0.0462,-0.0184 0.003,0 -0.006,0.0361 -0.0199,0.0803 -0.017,0.0531 -0.0346,0.0803 -0.0519,0.0803 -0.0144,0 -0.53155,-0.16958 -1.14917,-0.37683 z"
           style="fill:#ffcd94;fill-opacity:1;stroke:#ffcd94;stroke-width:0.0344145;stroke-linejoin:miter;stroke-miterlimit:4;stroke-dasharray:none;stroke-opacity:1" />
        <path
           transform="scale(0.26458333)"
           id="path1314"
           d="m 314.67089,800.64332 -0.0687,-0.0273 0.054,-0.0258 0.054,-0.0257 0.0248,0.0547 c 0.028,0.0617 0.0293,0.0612 -0.0641,0.0241 z"
           style="fill:#ffcd94;fill-opacity:1;stroke:#ffcd94;stroke-width:0.0344145;stroke-linejoin:miter;stroke-miterlimit:4;stroke-dasharray:none;stroke-opacity:1" />
        <path
           transform="scale(0.26458333)"
           id="path1316"
           d=""
           style="fill:#ffcd94;fill-opacity:1;stroke:#ffcd94;stroke-width:0.00837106;stroke-linejoin:miter;stroke-miterlimit:4;stroke-dasharray:none;stroke-opacity:1" />
        <path
           transform="scale(0.26458333)"
           id="path1318"
           d="m 314.72288,800.54736 c -0.003,-0.007 -10e-4,-0.0137 0.007,-0.032 0.006,-0.0129 0.0121,-0.0324 0.0138,-0.0433 l 0.003,-0.0199 0.023,0.0102 0.023,0.0102 -0.0162,0.0107 c -0.0198,0.0131 -0.0385,0.0382 -0.0419,0.056 -0.003,0.0165 -0.007,0.019 -0.0117,0.008 z"
           style="fill:#ffcd94;fill-opacity:1;stroke:#ffcd94;stroke-width:0.00837106;stroke-linejoin:miter;stroke-miterlimit:4;stroke-dasharray:none;stroke-opacity:1" />
        <path
           transform="scale(0.26458333)"
           id="path1320"
           d="m 315.3423,800.65761 -0.0137,-0.008 0.0137,0.002 c 0.008,10e-4 0.0216,0.003 0.0312,0.005 0.0153,0.002 0.0163,0.003 0.008,0.005 -0.0162,0.005 -0.0247,0.004 -0.0391,-0.005 z"
           style="fill:#ffcd94;fill-opacity:1;stroke:#ffcd94;stroke-width:0.00837106;stroke-linejoin:miter;stroke-miterlimit:4;stroke-dasharray:none;stroke-opacity:1" />
        <path
           transform="scale(0.26458333)"
           id="path1322"
           d=""
           style="fill:#ffcd94;fill-opacity:1;stroke:#ffcd94;stroke-width:0.00837106;stroke-linejoin:miter;stroke-miterlimit:4;stroke-dasharray:none;stroke-opacity:1" />
        <path
           id="path1324"
           d="m 83.515315,211.82169 c -0.05139,0.004 -0.01016,2.7e-4 -0.09405,0.0114 -0.0034,5.3e-4 -0.01333,-7.9e-4 -0.01034,0.001 0.0058,0.003 0.01318,0.003 0.01976,0.004"
           style="fill:none;stroke:#ffcd94;stroke-width:0.01;stroke-linecap:butt;stroke-linejoin:miter;stroke-miterlimit:4;stroke-dasharray:none;stroke-opacity:1" />
        <path
           style="fill:none;stroke:#ffcd94;stroke-width:0.01;stroke-linecap:butt;stroke-linejoin:miter;stroke-miterlimit:4;stroke-dasharray:none;stroke-opacity:1"
           d="m 83.526681,211.82489 c -0.05139,0.004 -0.01016,2.7e-4 -0.09405,0.0114 -0.0034,5.3e-4 -0.01333,-7.9e-4 -0.01034,0.001 0.0058,0.003 0.01318,0.003 0.01976,0.004"
           id="path1324-3" />
        <path
           style="fill:#ffcd94;fill-opacity:1;stroke:#ffcd94;stroke-width:0;stroke-linejoin:miter;stroke-miterlimit:4;stroke-dasharray:none;stroke-opacity:1"
           d="m 120.19528,211.05867 c 0.20403,-0.0912 0.37497,-0.16563 0.37988,-0.16563 0.005,0 -0.005,0.0103 -0.0219,0.0231 -0.0273,0.0205 -0.0278,0.0233 -0.004,0.0238 0.0151,2.4e-4 0.0673,-0.0145 0.11645,-0.0326 0.077,-0.0287 0.0882,-0.0378 0.0808,-0.0674 -0.007,-0.0311 -0.006,-0.0317 0.0122,-0.007 0.0385,0.0514 0.0934,0.0383 0.57265,-0.13483 1.10608,-0.39992 2.53089,-0.98377 3.81617,-1.56379 0.48211,-0.21756 2.15962,-1.0479 2.75699,-1.36463 0.37253,-0.19751 0.45456,-0.25274 0.44061,-0.29657 -0.007,-0.0238 0.0559,-0.0571 0.40792,-0.21472 0.51774,-0.23156 0.5666,-0.25598 0.57951,-0.28963 0.006,-0.0149 0.0231,-0.0377 0.0387,-0.0507 0.0269,-0.0226 0.0245,-0.0322 -0.0446,-0.18212 -0.21691,-0.46978 -3.0889,-6.66653 -3.69133,-7.96457 -1.24416,-2.68086 -1.13998,-2.46375 -1.17699,-2.45272 -0.15996,0.0479 -1.26648,0.66261 -5.25664,2.92129 -1.38066,0.78155 -1.59987,0.90711 -1.65079,0.94556 l -0.0358,0.0271 0.14173,0.70451 c 0.23355,1.16096 2.01908,9.84687 2.08313,10.13362 0.0254,0.11419 0.0444,0.16719 0.0606,0.16957 0.0128,0.002 0.1904,-0.0711 0.39443,-0.16215 z"
           id="path1267-0" />
        <path
           id="path1376"
           d="m 119.80809,211.4966 c 0,-0.009 0.008,-0.0207 0.0188,-0.0271 0.0129,-0.008 0.0155,-0.0538 0.008,-0.14567 l -0.0104,-0.13416 0.31672,-0.1344 c 0.1742,-0.0739 0.31923,-0.12699 0.32227,-0.11794 0.007,0.0217 0.19761,-0.0375 0.20817,-0.0648 0.005,-0.0127 0.0253,-0.017 0.0532,-0.0115 0.0602,0.0119 0.16801,-0.0203 0.64505,-0.19252 0.93008,-0.33587 2.09661,-0.80339 3.2079,-1.28565 0.64725,-0.28089 0.94155,-0.41948 2.03641,-0.95899 0.55948,-0.2757 1.02038,-0.49816 1.02421,-0.49437 0.004,0.004 -0.10807,0.07 -0.24867,0.14723 -2.04359,1.12168 -4.31053,2.18245 -6.41248,3.00059 -0.40434,0.15738 -1.14252,0.43476 -1.15702,0.43477 -0.007,1e-5 -0.0125,-0.007 -0.0125,-0.0155 z"
           style="fill:#ffcd94;fill-opacity:1;stroke:#ffcd94;stroke-width:0.100517;stroke-linejoin:miter;stroke-miterlimit:4;stroke-dasharray:none;stroke-opacity:1" />
        <path
           id="path1378"
           d="m 127.69912,207.86007 c 0,-0.008 0.0559,-0.0442 0.12417,-0.0812 0.38094,-0.20676 0.61683,-0.35012 0.66492,-0.40414 0.012,-0.0135 0.0218,-0.0352 0.0218,-0.0483 0,-0.0286 0.0277,-0.0503 0.13754,-0.10792 0.13051,-0.0685 0.6042,-0.2902 0.60905,-0.28512 0.002,0.002 -0.038,0.0307 -0.0898,0.0625 -0.0518,0.0318 -0.22422,0.13814 -0.38311,0.23621 -0.40059,0.24726 -1.06067,0.64179 -1.07376,0.64179 -0.006,0 -0.0108,-0.006 -0.0108,-0.0138 z"
           style="fill:#ffcd94;fill-opacity:1;stroke:#ffcd94;stroke-width:0.129164;stroke-linejoin:miter;stroke-miterlimit:4;stroke-dasharray:none;stroke-opacity:1" />
        <path
           transform="scale(0.26458333)"
           id="path1380"
           d="m 381.42348,720.31316 c -2.51848,-0.46746 -5.57037,-1.65877 -7.58032,-2.959 -4.33164,-2.80213 -8.63536,-8.59748 -9.40973,-12.67106 l -0.16633,-0.875 0.88722,1.03336 c 2.07498,2.41676 6.49952,5.1466 10.41131,6.42354 5.82328,1.90091 13.27889,1.90699 19.27559,0.0157 3.87351,-1.22166 6.72353,-2.88661 9.55559,-5.58228 1.59641,-1.51954 1.71004,-1.58511 1.54284,-0.89034 -0.0993,0.4125 -0.51176,1.5467 -0.91665,2.52044 -3.80756,9.15704 -14.0019,14.76603 -23.59952,12.98462 z"
           style="fill:#8c2425;fill-opacity:1;stroke:#8c2425;stroke-width:3.12189;stroke-linejoin:miter;stroke-miterlimit:4;stroke-dasharray:none;stroke-opacity:1" />
      </g>
    </g>
  </g>
</svg>
