<?xml version="1.0" encoding="UTF-8" standalone="no"?>
<svg
   xmlns:dc="http://purl.org/dc/elements/1.1/"
   xmlns:cc="http://creativecommons.org/ns#"
   xmlns:rdf="http://www.w3.org/1999/02/22-rdf-syntax-ns#"
   xmlns:svg="http://www.w3.org/2000/svg"
   xmlns="http://www.w3.org/2000/svg"
   xmlns:sodipodi="http://sodipodi.sourceforge.net/DTD/sodipodi-0.dtd"
   xmlns:inkscape="http://www.inkscape.org/namespaces/inkscape"
   sodipodi:docname="skills.svg"
   inkscape:version="1.0 (4035a4f, 2020-05-01)"
   id="svg8"
   version="1.1"
   viewBox="0 0 108.25705 108.25704"
   height="108.25704mm"
   width="108.25705mm">
  <defs
     id="defs2" />
  <sodipodi:namedview
     inkscape:window-maximized="0"
     inkscape:window-y="68"
     inkscape:window-x="1440"
     inkscape:window-height="1009"
     inkscape:window-width="1920"
     showgrid="false"
     inkscape:document-rotation="0"
     inkscape:current-layer="layer1"
     inkscape:document-units="mm"
     inkscape:cy="203.8957"
     inkscape:cx="313.7437"
     inkscape:zoom="1.3396996"
     inkscape:pageshadow="2"
     inkscape:pageopacity="0.0"
     borderopacity="1.0"
     bordercolor="#666666"
     pagecolor="#ffffff"
     id="base">
    <inkscape:grid
       originy="-106.62262"
       originx="-47.01394"
       id="grid953"
       type="xygrid" />
  </sodipodi:namedview>
  <metadata
     id="metadata5">
    <rdf:RDF>
      <cc:Work
         rdf:about="">
        <dc:format>image/svg+xml</dc:format>
        <dc:type
           rdf:resource="http://purl.org/dc/dcmitype/StillImage" />
        <dc:title></dc:title>
      </cc:Work>
    </rdf:RDF>
  </metadata>
  <g
     transform="translate(-47.013939,-106.62262)"
     inkscape:label="back"
     id="layer3"
     inkscape:groupmode="layer">
    <ellipse
       ry="54.128521"
       rx="54.128525"
       cy="160.75114"
       cx="101.14246"
       id="path1191"
       style="fill:#01cbd7;fill-opacity:1;stroke:none;stroke-width:1.32651;stroke-linejoin:miter;stroke-miterlimit:5.4;stroke-dasharray:none;stroke-opacity:1" />
  </g>
  <g
     transform="translate(-47.013939,-106.62262)"
     inkscape:label="shirt"
     id="layer2"
     inkscape:groupmode="layer" />
  <g
     style="opacity:0.997"
     transform="translate(-47.013939,-106.62262)"
     id="layer1"
     inkscape:groupmode="layer"
     inkscape:label="head">
    <ellipse
       style="fill:#5a3825;fill-opacity:1;stroke:#5a3825;stroke-width:3.00311;stroke-opacity:1"
       id="path853-5"
       cx="102.16378"
       cy="147.43594"
       rx="30.533985"
       ry="24.319969" />
    <rect
       ry="0.042953249"
       y="135.782"
       x="93.590454"
       height="18.708866"
       width="10.423512"
       id="rect871"
       style="fill:#000000;fill-opacity:0;stroke:#5a3825;stroke-width:3;stroke-opacity:1"
       transform="rotate(8.674784)" />
    <rect
       style="fill:#000000;fill-opacity:0;stroke:#5a3825;stroke-width:3;stroke-opacity:1"
       id="rect871-0"
       width="10.423512"
       height="18.708866"
       x="102.38184"
       y="163.02904"
       ry="0.042953249"
       transform="rotate(-7.196956)" />
    <ellipse
       ry="26.853189"
       rx="30.39451"
       cy="165.94437"
       cx="102.09695"
       id="path853"
       style="fill:#ffcd94;fill-opacity:1;stroke:#ffcd94;stroke-width:3.14843;stroke-opacity:1" />
    <ellipse
       ry="3.2740517"
       rx="2.4054255"
       cy="166.48965"
       cx="70.420143"
       id="path890"
       style="fill:#ffcd94;fill-opacity:1;stroke:#ffcd94;stroke-width:3;stroke-opacity:1" />
    <ellipse
       style="fill:#ffcd94;fill-opacity:1;stroke:#ffcd94;stroke-width:3;stroke-opacity:1"
       id="path890-6"
       cx="133.77916"
       cy="166.42284"
       rx="2.4054255"
       ry="3.2740517" />
    <ellipse
       ry="9.342474"
       rx="17.761463"
       cy="141.62283"
       cx="108.17734"
       id="path907"
       style="fill:#5a3825;fill-opacity:1;stroke:#5a3825;stroke-width:3.95936;stroke-opacity:1" />
    <ellipse
       ry="1.6036172"
       rx="11.024868"
       cy="170.02022"
       cx="101.89651"
       id="path909"
       style="fill:#e5af90;fill-opacity:1;stroke:none;stroke-width:3.56453;stroke-miterlimit:2.6;stroke-dasharray:none;stroke-opacity:1" />
    <ellipse
       style="fill:none;fill-opacity:1;stroke:#846d7b;stroke-width:0.712548;stroke-linejoin:round;stroke-miterlimit:2.6;stroke-dasharray:none;stroke-opacity:1"
       id="path919-5"
       cx="101.85046"
       cy="179.72632"
       rx="10.298187"
       ry="4.3180809" />
    <rect
       ry="0.08590658"
       y="173.83113"
       x="91.28125"
       height="5.2916718"
       width="21.166666"
       id="rect970"
       style="fill:#ffcd94;fill-opacity:1;stroke:#ffcd94;stroke-width:1.58656;stroke-linejoin:round;stroke-miterlimit:2.6;stroke-dasharray:none;stroke-opacity:1" />
    <path
       style="fill:none;stroke:#000000;stroke-width:0.645652;stroke-linecap:butt;stroke-linejoin:miter;stroke-miterlimit:4;stroke-dasharray:none;stroke-opacity:1"
       d="M 70.114583,161.66047 H 80.433281"
       id="path1008-6" />
    <path
       id="path1008-6-7"
       d="m 123.03125,161.66048 h 11.1125"
       style="fill:none;stroke:#000000;stroke-width:0.670026;stroke-linecap:butt;stroke-linejoin:miter;stroke-miterlimit:4;stroke-dasharray:none;stroke-opacity:1" />
    <ellipse
       style="fill:none;fill-opacity:1;stroke:#5a3825;stroke-width:0.528509;stroke-linejoin:round;stroke-miterlimit:2.6;stroke-dasharray:none;stroke-opacity:1"
       id="path972-3"
       cx="86.651031"
       cy="156.55347"
       rx="5.6432276"
       ry="2.4573164" />
    <ellipse
       ry="2.4573166"
       rx="5.6432276"
       cy="156.5535"
       cx="116.81353"
       id="path972-3-8"
       style="fill:none;fill-opacity:1;stroke:#5a3825;stroke-width:0.528508;stroke-linejoin:round;stroke-miterlimit:2.6;stroke-dasharray:none;stroke-opacity:1" />
    <rect
       ry="0.0687249"
       y="156.10406"
       x="78.052086"
       height="4.233315"
       width="50.270836"
       id="rect1055"
       style="fill:#ffcd94;fill-opacity:1;stroke:none;stroke-width:1.87067;stroke-linejoin:round;stroke-miterlimit:4;stroke-dasharray:none;stroke-opacity:1" />
    <ellipse
       ry="3.8244762"
       rx="3.0685236"
       cy="163.19107"
       cx="86.651039"
       id="path972"
       style="fill:none;fill-opacity:1;stroke:#846d7b;stroke-width:0.486193;stroke-linejoin:round;stroke-miterlimit:2.6;stroke-dasharray:none;stroke-opacity:1" />
    <ellipse
       style="fill:none;fill-opacity:1;stroke:#846d7b;stroke-width:0.486193;stroke-linejoin:round;stroke-miterlimit:2.6;stroke-dasharray:none;stroke-opacity:1"
       id="path972-5"
       cx="117.07808"
       cy="163.19107"
       rx="3.0685236"
       ry="3.8244765" />
    <rect
       ry="0.040805679"
       y="163.24777"
       x="82.020836"
       height="5.0270948"
       width="39.6875"
       id="rect989"
       style="fill:#ffcd94;fill-opacity:1;stroke:#ffcd94;stroke-width:0.46005;stroke-linejoin:round;stroke-miterlimit:2.6;stroke-dasharray:none;stroke-opacity:1" />
    <rect
       style="fill:none;fill-opacity:1;stroke:#000004;stroke-width:1.16;stroke-linejoin:round;stroke-miterlimit:2.6;stroke-dasharray:none;stroke-opacity:1"
       id="rect991-1"
       width="11.906249"
       height="6.6145825"
       x="110.86043"
       y="157.69154"
       ry="0.053691551" />
    <rect
       ry="0.053691551"
       y="157.69154"
       x="80.697914"
       height="6.6145821"
       width="11.906249"
       id="rect991"
       style="fill:none;fill-opacity:1;stroke:#000004;stroke-width:1.16;stroke-linejoin:round;stroke-miterlimit:2.6;stroke-dasharray:none;stroke-opacity:1" />
    <path
       id="path1101"
       d="m 84.350898,126.32579 -1.007148,-3.83884 3.56637,3.1674"
       style="fill:#5a3825;fill-opacity:1;stroke:#5a3825;stroke-width:0.26458300000000001px;stroke-linecap:butt;stroke-linejoin:miter;stroke-opacity:1" />
    <path
       inkscape:transform-center-y="-1.0476594"
       inkscape:transform-center-x="1.8112677"
       style="fill:#5a3825;fill-opacity:1;stroke:#5a3825;stroke-width:0.26458300000000001px;stroke-linecap:butt;stroke-linejoin:miter;stroke-opacity:1"
       d="m 82.021216,128.63259 -0.06754,-3.96818 2.712991,3.92315"
       id="path1101-3" />
    <path
       inkscape:transform-center-y="-7.6098438"
       inkscape:transform-center-x="-9.7859418"
       style="fill:#5a3825;fill-opacity:1;stroke:#5a3825;stroke-width:0.26458300000000001px;stroke-linecap:butt;stroke-linejoin:miter;stroke-opacity:1"
       d="m 80.697917,129.91048 -1.007148,-3.83884 3.56637,3.1674"
       id="path1101-5" />
    <path
       d="m 92.35161,145.33616 c 0.131236,0.16614 0.248541,0.3443 0.393702,0.49842 0.239761,0.25456 0.482468,0.51002 0.758423,0.72481 1.041197,0.81039 2.151134,1.41281 3.382902,1.90348 0.845796,0.33692 1.710126,0.63617 2.593406,0.85687 1.002357,0.25044 2.033177,0.36874 3.049767,0.55312 2.9839,0.31983 5.98581,0.22403 8.97321,0.0311 0.72315,-0.0467 1.44464,-0.1162 2.16697,-0.1743 0,0 0.98054,-0.72554 0.98054,-0.72554 v 0 c -0.73538,0.0693 -1.46962,0.15187 -2.20614,0.20775 -2.99079,0.22695 -5.99863,0.33687 -8.98841,0.0135 -1.00319,-0.18698 -2.02139,-0.30628 -3.00958,-0.56093 -0.867897,-0.22364 -1.716324,-0.52644 -2.544038,-0.87017 -1.466964,-0.6092 -2.920183,-1.44911 -3.971235,-2.66306 -0.134649,-0.15552 -0.236871,-0.33639 -0.355306,-0.50458 0,0 -1.224211,0.70954 -1.224211,0.70954 z"
       id="path1136"
       style="fill:#8b5523;fill-opacity:1;stroke:#8b5523;stroke-width:0.065;stroke-linejoin:miter;stroke-miterlimit:5.4;stroke-dasharray:none;stroke-opacity:1" />
    <path
       d="m 97.546298,144.79864 c 0.955491,0.49146 1.994345,0.68883 3.032372,0.84988 0.64244,0.0997 1.28776,0.17726 1.93355,0.24631 1.62488,0.17371 2.75984,0.22853 4.39986,0.33398 2.69978,0.1466 5.43266,0.34858 8.01891,1.27838 1.22986,0.44216 1.45034,0.62829 2.54138,1.25794 1.09263,0.7879 0.59563,0.39358 1.50206,1.16618 0,0 1.14985,-0.79395 1.14985,-0.79395 v 0 c -0.94323,-0.76502 -0.42805,-0.37377 -1.55537,-1.15814 -1.11953,-0.62963 -1.33943,-0.81169 -2.59642,-1.25379 -2.60786,-0.91721 -5.35757,-1.12319 -8.07544,-1.26912 -1.52549,-0.10332 -2.85111,-0.17405 -4.3673,-0.34918 -0.63318,-0.0731 -1.26551,-0.15845 -1.89454,-0.26619 -0.99633,-0.17064 -2.001037,-0.37775 -2.903431,-0.8912 0,0 -1.185481,0.8489 -1.185481,0.8489 z"
       id="path1140"
       style="fill:#8b5523;fill-opacity:1;stroke:#8b5523;stroke-width:0.0679639;stroke-linejoin:miter;stroke-miterlimit:5.4;stroke-dasharray:none;stroke-opacity:1" />
    <path
       d="m 92.057414,142.99891 c 0.139794,-0.0174 0.280166,-0.032 0.419392,-0.0522 0.892398,-0.1292 1.774899,-0.28821 2.672801,-0.39497 1.163385,-0.13831 1.604894,-0.16297 2.788516,-0.25945 1.921692,-0.13488 3.854027,-0.11063 5.765657,0.10111 1.06102,0.11753 1.76136,0.24583 2.81201,0.41725 1.85547,0.327 3.71749,0.64584 5.608,0.81027 0.96012,0.0835 1.48029,0.0957 2.43104,0.1362 1.47362,0.0295 2.95479,0.004 4.41959,-0.13804 0.54063,-0.0598 1.04644,-0.22124 1.55253,-0.37686 0.44828,-0.1511 0.89632,-0.30238 1.34205,-0.45831 0,0 1.37617,-0.87816 1.37617,-0.87816 v 0 c -0.44412,0.15487 -0.88857,0.30843 -1.33453,0.45965 -0.50181,0.1641 -1.00776,0.32692 -1.5408,0.41263 -1.4761,0.17507 -2.97361,0.21128 -4.46384,0.19502 -0.94759,-0.0332 -1.48275,-0.0418 -2.43909,-0.11888 -1.89146,-0.15253 -3.75499,-0.46507 -5.60813,-0.79791 -1.03981,-0.17298 -1.76812,-0.30796 -2.81887,-0.42799 -1.91791,-0.21908 -3.85736,-0.25042 -5.787273,-0.12251 -1.0978,0.0845 -1.688058,0.12083 -2.770404,0.23836 -0.877577,0.0953 -1.741354,0.23699 -2.612712,0.35976 -0.130435,0.0185 -0.261795,0.0322 -0.392695,0.0482 0,0 -1.419412,0.84668 -1.419412,0.84668 z"
       id="path1144"
       style="fill:#8b5523;fill-opacity:1;stroke:#8b5523;stroke-width:0.0721667;stroke-linejoin:miter;stroke-miterlimit:5.4;stroke-dasharray:none;stroke-opacity:1" />
    <ellipse
       ry="0.99820954"
       rx="1.3994265"
       cy="169.36052"
       cx="102.18118"
       id="path919"
       style="fill:none;fill-opacity:1;stroke:#846d7b;stroke-width:0.416418;stroke-linejoin:round;stroke-miterlimit:2.6;stroke-dasharray:none;stroke-opacity:1" />
    <rect
       ry="0.071431816"
       y="169.2294"
       x="100.21094"
       height="1.4928759"
       width="4.2049851"
       id="rect921"
       style="fill:#e5af90;fill-opacity:1;stroke:none;stroke-width:0.582223;stroke-linejoin:round;stroke-miterlimit:2.6;stroke-dasharray:none;stroke-opacity:1" />
    <path
       id="path1008"
       d="M 92.604166,160.07296 H 111.125"
       style="fill:none;stroke:#000000;stroke-width:1.165;stroke-linecap:butt;stroke-linejoin:miter;stroke-miterlimit:4;stroke-dasharray:none;stroke-opacity:1" />
    <path
       transform="scale(0.26458333)"
       id="path1241"
       d="m 313.98262,800.33673 c -5.22517,-1.83854 -12.29773,-4.72947 -17.85769,-7.29936 -4.01575,-1.85614 -12.09548,-5.99387 -11.96297,-6.12639 0.054,-0.054 29.40013,12.93731 30.27031,13.40043 0.3803,0.2024 0.0987,0.21826 -0.44965,0.0253 z"
       style="fill:#ffcd94;fill-opacity:1;stroke:#ffcd94;stroke-width:0.275316;stroke-linejoin:miter;stroke-miterlimit:4;stroke-dasharray:none;stroke-opacity:1" />
    <path
       transform="scale(0.26458333)"
       id="path1243"
       d=""
       style="fill:#ffcd94;fill-opacity:1;stroke:#ffcd94;stroke-width:0.137658;stroke-linejoin:miter;stroke-miterlimit:4;stroke-dasharray:none;stroke-opacity:1" />
    <path
       transform="scale(0.26458333)"
       id="path1245"
       d=""
       style="fill:#ffcd94;fill-opacity:1;stroke:#ffcd94;stroke-width:0.137658;stroke-linejoin:miter;stroke-miterlimit:4;stroke-dasharray:none;stroke-opacity:1" />
    <path
       transform="scale(0.26458333)"
       id="path1247"
       d=""
       style="fill:#ffcd94;fill-opacity:1;stroke:#ffcd94;stroke-width:0.137658;stroke-linejoin:miter;stroke-miterlimit:4;stroke-dasharray:none;stroke-opacity:1" />
    <path
       transform="scale(0.26458333)"
       id="path1249"
       d=""
       style="fill:#ffcd94;fill-opacity:1;stroke:#ffcd94;stroke-width:0.137658;stroke-linejoin:miter;stroke-miterlimit:4;stroke-dasharray:none;stroke-opacity:1" />
    <path
       transform="scale(0.26458333)"
       id="path1251"
       d=""
       style="fill:#ffcd94;fill-opacity:1;stroke:#ffcd94;stroke-width:0.137658;stroke-linejoin:miter;stroke-miterlimit:4;stroke-dasharray:none;stroke-opacity:1" />
    <path
       transform="scale(0.26458333)"
       id="path1255"
       d=""
       style="fill:#ffcd94;fill-opacity:1;stroke:#ffcd94;stroke-width:0.137658;stroke-linejoin:miter;stroke-miterlimit:4;stroke-dasharray:none;stroke-opacity:1" />
    <path
       transform="scale(0.26458333)"
       id="path1261"
       d=""
       style="fill:#ffcd94;fill-opacity:1;stroke:#ffcd94;stroke-width:0.137658;stroke-linejoin:miter;stroke-miterlimit:4;stroke-dasharray:none;stroke-opacity:1" />
    <path
       transform="scale(0.26458333)"
       id="path1263"
       d=""
       style="fill:#ffcd94;fill-opacity:1;stroke:#ffcd94;stroke-width:0.137658;stroke-linejoin:miter;stroke-miterlimit:4;stroke-dasharray:none;stroke-opacity:1" />
    <path
       transform="scale(0.26458333)"
       id="path1265"
       d="m 315.20013,800.80434 c -0.22081,-0.0742 -0.40148,-0.17201 -0.40148,-0.21733 0,-0.0918 0.0605,-0.0735 0.64237,0.19417 0.42706,0.19644 0.30857,0.20783 -0.24089,0.0232 z"
       style="fill:#ffcd94;fill-opacity:1;stroke:#ffcd94;stroke-width:0.137658;stroke-linejoin:miter;stroke-miterlimit:4;stroke-dasharray:none;stroke-opacity:1" />
    <path
       transform="scale(0.26458333)"
       id="path1269"
       d=""
       style="fill:#ffcd94;fill-opacity:1;stroke:#ffcd94;stroke-width:0.137658;stroke-linejoin:miter;stroke-miterlimit:4;stroke-dasharray:none;stroke-opacity:1" />
    <path
       transform="scale(0.26458333)"
       id="path1271"
       d=""
       style="fill:#ffcd94;fill-opacity:1;stroke:#ffcd94;stroke-width:0.137658;stroke-linejoin:miter;stroke-miterlimit:4;stroke-dasharray:none;stroke-opacity:1" />
    <path
       transform="scale(0.26458333)"
       id="path1273"
       d=""
       style="fill:#ffcd94;fill-opacity:1;stroke:#ffcd94;stroke-width:0.137658;stroke-linejoin:miter;stroke-miterlimit:4;stroke-dasharray:none;stroke-opacity:1" />
    <path
       transform="scale(0.26458333)"
       id="path1275"
       d=""
       style="fill:#ffcd94;fill-opacity:1;stroke:#ffcd94;stroke-width:0.137658;stroke-linejoin:miter;stroke-miterlimit:4;stroke-dasharray:none;stroke-opacity:1" />
    <path
       transform="scale(0.26458333)"
       id="path1294"
       d=""
       style="fill:#ffcd94;fill-opacity:1;stroke:#ffcd94;stroke-width:0.389355;stroke-linejoin:miter;stroke-miterlimit:4;stroke-dasharray:none;stroke-opacity:1" />
    <path
       transform="scale(0.26458333)"
       id="path1302"
       d="m 282.841,786.33584 c -0.50848,-0.28427 -0.91884,-0.52251 -0.91191,-0.52943 0.0289,-0.0289 1.67298,0.73188 1.79241,0.82944 0.0555,0.0453 0.11059,0.22033 0.0687,0.21813 -0.0136,-7.2e-4 -0.44073,-0.23388 -0.9492,-0.51814 z"
       style="fill:#ffcd94;fill-opacity:1;stroke:#ffcd94;stroke-width:0.0688289;stroke-linejoin:miter;stroke-miterlimit:4;stroke-dasharray:none;stroke-opacity:1" />
    <path
       transform="scale(0.26458333)"
       id="path1314"
       d="m 314.67089,800.64332 -0.0687,-0.0273 0.054,-0.0258 0.054,-0.0257 0.0248,0.0547 c 0.028,0.0617 0.0293,0.0612 -0.0641,0.0241 z"
       style="fill:#ffcd94;fill-opacity:1;stroke:#ffcd94;stroke-width:0.0344145;stroke-linejoin:miter;stroke-miterlimit:4;stroke-dasharray:none;stroke-opacity:1" />
    <path
       transform="scale(0.26458333)"
       id="path1316"
       d=""
       style="fill:#ffcd94;fill-opacity:1;stroke:#ffcd94;stroke-width:0.00837106;stroke-linejoin:miter;stroke-miterlimit:4;stroke-dasharray:none;stroke-opacity:1" />
    <path
       transform="scale(0.26458333)"
       id="path1318"
       d="m 314.72288,800.54736 c -0.003,-0.007 -10e-4,-0.0137 0.007,-0.032 0.006,-0.0129 0.0121,-0.0324 0.0138,-0.0433 l 0.003,-0.0199 0.023,0.0102 0.023,0.0102 -0.0162,0.0107 c -0.0198,0.0131 -0.0385,0.0382 -0.0419,0.056 -0.003,0.0165 -0.007,0.019 -0.0117,0.008 z"
       style="fill:#ffcd94;fill-opacity:1;stroke:#ffcd94;stroke-width:0.00837106;stroke-linejoin:miter;stroke-miterlimit:4;stroke-dasharray:none;stroke-opacity:1" />
    <path
       transform="scale(0.26458333)"
       id="path1320"
       d="m 315.3423,800.65761 -0.0137,-0.008 0.0137,0.002 c 0.008,10e-4 0.0216,0.003 0.0312,0.005 0.0153,0.002 0.0163,0.003 0.008,0.005 -0.0162,0.005 -0.0247,0.004 -0.0391,-0.005 z"
       style="fill:#ffcd94;fill-opacity:1;stroke:#ffcd94;stroke-width:0.00837106;stroke-linejoin:miter;stroke-miterlimit:4;stroke-dasharray:none;stroke-opacity:1" />
    <path
       transform="scale(0.26458333)"
       id="path1322"
       d=""
       style="fill:#ffcd94;fill-opacity:1;stroke:#ffcd94;stroke-width:0.00837106;stroke-linejoin:miter;stroke-miterlimit:4;stroke-dasharray:none;stroke-opacity:1" />
    <path
       id="path1324"
       d="m 83.515315,211.82169 c -0.05139,0.004 -0.01016,2.7e-4 -0.09405,0.0114 -0.0034,5.3e-4 -0.01333,-7.9e-4 -0.01034,0.001 0.0058,0.003 0.01318,0.003 0.01976,0.004"
       style="fill:none;stroke:#ffcd94;stroke-width:0.01;stroke-linecap:butt;stroke-linejoin:miter;stroke-miterlimit:4;stroke-dasharray:none;stroke-opacity:1" />
    <path
       style="fill:none;stroke:#ffcd94;stroke-width:0.01;stroke-linecap:butt;stroke-linejoin:miter;stroke-miterlimit:4;stroke-dasharray:none;stroke-opacity:1"
       d="m 83.526681,211.82489 c -0.05139,0.004 -0.01016,2.7e-4 -0.09405,0.0114 -0.0034,5.3e-4 -0.01333,-7.9e-4 -0.01034,0.001 0.0058,0.003 0.01318,0.003 0.01976,0.004"
       id="path1324-3" />
    <path
       id="path1378"
       d="m 127.69912,207.86007 c 0,-0.008 0.0559,-0.0442 0.12417,-0.0812 0.38094,-0.20676 0.61683,-0.35012 0.66492,-0.40414 0.012,-0.0135 0.0218,-0.0352 0.0218,-0.0483 0,-0.0286 0.0277,-0.0503 0.13754,-0.10792 0.13051,-0.0685 0.6042,-0.2902 0.60905,-0.28512 0.002,0.002 -0.038,0.0307 -0.0898,0.0625 -0.0518,0.0318 -0.22422,0.13814 -0.38311,0.23621 -0.40059,0.24726 -1.06067,0.64179 -1.07376,0.64179 -0.006,0 -0.0108,-0.006 -0.0108,-0.0138 z"
       style="fill:#ffcd94;fill-opacity:1;stroke:#ffcd94;stroke-width:0.129164;stroke-linejoin:miter;stroke-miterlimit:4;stroke-dasharray:none;stroke-opacity:1" />
    <ellipse
       ry="20.371723"
       rx="22.132505"
       cy="136.67157"
       cx="117.70386"
       id="path2205"
       style="fill:#01cbd7;fill-opacity:1;stroke:none;stroke-width:1.35115;stroke-linejoin:round" />
    <ellipse
       style="opacity:0.997;fill:#1d1d1d;fill-opacity:1;stroke:#1d1d1d;stroke-width:1.24814;stroke-linejoin:round;stroke-miterlimit:4;stroke-dasharray:none;stroke-opacity:1"
       id="path2208-7"
       cx="117.5195"
       cy="137.33302"
       rx="9.6149645"
       ry="9.6225433" />
    <ellipse
       ry="4.3756175"
       rx="4.3680391"
       cy="137.24417"
       cx="117.7193"
       id="path2208"
       style="opacity:0.997;fill:#01cbd7;fill-opacity:1;stroke:#1d1d1d;stroke-width:1.45832;stroke-linejoin:round;stroke-miterlimit:4;stroke-dasharray:none;stroke-opacity:1" />
    <rect
       y="122.12594"
       x="114.85332"
       height="5.9248357"
       width="5.7273412"
       id="rect2226"
       style="fill:#1d1d1d;fill-opacity:1;stroke:none;stroke-width:1.5;stroke-linejoin:round;stroke-miterlimit:4;stroke-dasharray:none;stroke-opacity:1" />
    <rect
       transform="rotate(41.366645)"
       style="opacity:0.997;fill:#1d1d1d;fill-opacity:1;stroke:none;stroke-width:1.5;stroke-linejoin:round;stroke-miterlimit:4;stroke-dasharray:none;stroke-opacity:1"
       id="rect2226-7"
       width="5.7273412"
       height="5.9248357"
       x="176.62407"
       y="9.9537659" />
    <rect
       inkscape:transform-center-y="2.1724398"
       inkscape:transform-center-x="-3.2586597"
       style="opacity:0.997;fill:#1d1d1d;fill-opacity:1;stroke:none;stroke-width:1.5;stroke-linejoin:round;stroke-miterlimit:4;stroke-dasharray:none;stroke-opacity:1"
       id="rect2226-8"
       width="5.7273412"
       height="5.9248357"
       x="126.84499"
       y="133.79591" />
    <rect
       y="133.79591"
       x="102.50333"
       height="5.9248357"
       width="5.7273412"
       id="rect2226-8-8"
       style="opacity:0.997;fill:#1d1d1d;fill-opacity:1;stroke:none;stroke-width:1.5;stroke-linejoin:round;stroke-miterlimit:4;stroke-dasharray:none;stroke-opacity:1"
       inkscape:transform-center-x="-3.2586597"
       inkscape:transform-center-y="2.1724398" />
    <rect
       style="opacity:0.997;fill:#1d1d1d;fill-opacity:1;stroke:none;stroke-width:1.5;stroke-linejoin:round;stroke-miterlimit:4;stroke-dasharray:none;stroke-opacity:1"
       id="rect2226-5"
       width="5.7273412"
       height="5.9248357"
       x="114.85332"
       y="146.99652" />
    <rect
       y="34.954758"
       x="175.40446"
       height="5.9248357"
       width="5.7273412"
       id="rect2226-7-1"
       style="opacity:0.997;fill:#1d1d1d;fill-opacity:1;stroke:none;stroke-width:1.5;stroke-linejoin:round;stroke-miterlimit:4;stroke-dasharray:none;stroke-opacity:1"
       transform="rotate(41.366646)" />
    <rect
       y="22.506762"
       x="188.71872"
       height="5.9248357"
       width="5.7273412"
       id="rect2226-7-8"
       style="opacity:0.997;fill:#1d1d1d;fill-opacity:1;stroke:none;stroke-width:1.5;stroke-linejoin:round;stroke-miterlimit:4;stroke-dasharray:none;stroke-opacity:1"
       transform="rotate(41.366646)" />
    <rect
       y="21.717379"
       x="163.61624"
       height="5.9248357"
       width="5.7273412"
       id="rect2226-7-83"
       style="opacity:0.997;fill:#1d1d1d;fill-opacity:1;stroke:none;stroke-width:1.5;stroke-linejoin:round;stroke-miterlimit:4;stroke-dasharray:none;stroke-opacity:1"
       transform="rotate(41.366646)" />
  </g>
</svg>
