<svg xmlns="http://www.w3.org/2000/svg" viewBox="0 0 108.257 108.257" height="409.16" width="409.161"><circle cy="160.751" cx="101.142" fill="#01cbd7" r="54.129" transform="translate(-47.014 -106.623)"/><g transform="translate(-47.014 -106.623)" opacity=".997"><ellipse cx="102.164" cy="147.436" rx="30.534" ry="24.32" fill="#5a3825" stroke="#5a3825" stroke-width="3.003"/><rect ry=".043" y="135.782" x="93.59" height="18.709" width="10.424" transform="rotate(8.675)" stroke="#5a3825" stroke-width="3" fill="none"/><rect width="10.424" height="18.709" x="102.382" y="163.029" ry=".043" transform="rotate(-7.197)" stroke="#5a3825" stroke-width="3" fill="none"/><ellipse ry="26.853" rx="30.395" cy="165.944" cx="102.097" fill="#ffcd94" stroke="#ffcd94" stroke-width="3.148"/><ellipse ry="3.274" rx="2.405" cy="166.49" cx="70.42" fill="#ffcd94" stroke="#ffcd94" stroke-width="3"/><ellipse cx="133.779" cy="166.423" rx="2.405" ry="3.274" fill="#ffcd94" stroke="#ffcd94" stroke-width="3"/><ellipse ry="9.342" rx="17.761" cy="141.623" cx="108.177" fill="#5a3825" stroke="#5a3825" stroke-width="3.959"/><ellipse ry="1.604" rx="11.025" cy="170.02" cx="101.897" fill="#e5af90"/><ellipse cx="101.85" cy="179.726" rx="10.298" ry="4.318" fill="none" stroke="#846d7b" stroke-width=".713" stroke-linejoin="round" stroke-miterlimit="2.6"/><rect ry=".086" y="173.831" x="91.281" height="5.292" width="21.167" fill="#ffcd94" stroke="#ffcd94" stroke-width="1.587" stroke-linejoin="round" stroke-miterlimit="2.6"/><path d="M70.115 161.66h10.318" fill="none" stroke="#000" stroke-width=".646"/><path d="M123.031 161.66h11.113" fill="none" stroke="#000" stroke-width=".67"/><ellipse cx="86.651" cy="156.553" rx="5.643" ry="2.457" fill="none" stroke="#5a3825" stroke-width=".529" stroke-linejoin="round" stroke-miterlimit="2.6"/><ellipse ry="2.457" rx="5.643" cy="156.554" cx="116.814" fill="none" stroke="#5a3825" stroke-width=".529" stroke-linejoin="round" stroke-miterlimit="2.6"/><rect ry=".069" y="156.104" x="78.052" height="4.233" width="50.271" fill="#ffcd94"/><ellipse ry="3.824" rx="3.069" cy="163.191" cx="86.651" fill="none" stroke="#846d7b" stroke-width=".486" stroke-linejoin="round" stroke-miterlimit="2.6"/><ellipse cx="117.078" cy="163.191" rx="3.069" ry="3.824" fill="none" stroke="#846d7b" stroke-width=".486" stroke-linejoin="round" stroke-miterlimit="2.6"/><rect ry=".041" y="163.248" x="82.021" height="5.027" width="39.688" fill="#ffcd94" stroke="#ffcd94" stroke-width=".46" stroke-linejoin="round" stroke-miterlimit="2.6"/><rect width="11.906" height="6.615" x="110.86" y="157.692" ry=".054" fill="none" stroke="#000004" stroke-width="1.16" stroke-linejoin="round" stroke-miterlimit="2.6"/><rect ry=".054" y="157.692" x="80.698" height="6.615" width="11.906" fill="none" stroke="#000004" stroke-width="1.16" stroke-linejoin="round" stroke-miterlimit="2.6"/><path d="M84.35 126.326l-1.006-3.839 3.566 3.167M82.021 128.633l-.067-3.969 2.713 3.924" fill="#5a3825" stroke="#5a3825" stroke-width=".265"/><path d="M80.698 129.91l-1.007-3.838 3.566 3.167" fill="#5a3825" stroke="#5a3825" stroke-width=".265"/><path d="M92.352 145.336c.13.166.248.344.393.499.24.254.483.51.759.724 1.04.81 2.15 1.413 3.383 1.904.845.337 1.71.636 2.593.857 1.002.25 2.033.368 3.05.553 2.984.32 5.986.224 8.973.031.723-.047 1.445-.116 2.167-.174l.98-.726v0c-.735.07-1.47.152-2.206.208-2.99.227-5.998.337-8.988.013-1.003-.187-2.021-.306-3.01-.56a19.054 19.054 0 01-2.544-.87c-1.467-.61-2.92-1.45-3.97-2.664-.136-.155-.238-.336-.356-.504l-1.224.71z" fill="#8b5523" stroke="#8b5523" stroke-width=".065" stroke-miterlimit="5.4"/><path d="M97.546 144.799c.956.491 1.995.688 3.033.85.642.1 1.287.177 1.933.246 1.625.174 2.76.228 4.4.334 2.7.146 5.433.348 8.019 1.278 1.23.442 1.45.628 2.541 1.258 1.093.788.596.394 1.502 1.166l1.15-.794v0c-.943-.765-.428-.373-1.555-1.158-1.12-.63-1.34-.811-2.597-1.254-2.607-.917-5.357-1.123-8.075-1.269-1.525-.103-2.851-.174-4.367-.349a34.984 34.984 0 01-1.895-.266c-.996-.17-2-.378-2.903-.891l-1.186.849z" fill="#8b5523" stroke="#8b5523" stroke-width=".068" stroke-miterlimit="5.4"/><path d="M92.057 142.999c.14-.017.28-.032.42-.052.892-.13 1.775-.289 2.673-.395 1.163-.139 1.605-.163 2.788-.26a32.032 32.032 0 015.766.101c1.06.118 1.761.246 2.812.418 1.855.327 3.717.645 5.608.81.96.083 1.48.096 2.43.136 1.474.03 2.956.004 4.42-.138.541-.06 1.047-.221 1.553-.377.448-.15.896-.302 1.342-.458l1.376-.878v0c-.444.155-.888.308-1.334.46-.502.164-1.008.326-1.541.412-1.476.175-2.974.211-4.464.195-.948-.033-1.483-.042-2.44-.119-1.89-.152-3.754-.465-5.607-.798-1.04-.173-1.768-.308-2.82-.428a32.237 32.237 0 00-5.786-.122c-1.098.084-1.688.12-2.77.238-.878.095-1.742.237-2.613.36-.13.018-.262.032-.393.048l-1.42.847z" fill="#8b5523" stroke="#8b5523" stroke-width=".072" stroke-miterlimit="5.4"/><ellipse ry=".998" rx="1.399" cy="169.361" cx="102.181" fill="none" stroke="#846d7b" stroke-width=".416" stroke-linejoin="round" stroke-miterlimit="2.6"/><rect ry=".071" y="169.229" x="100.211" height="1.493" width="4.205" fill="#e5af90"/><path d="M92.604 160.073h18.521" fill="none" stroke="#000" stroke-width="1.165"/><path d="M83.075 211.756a59.643 59.643 0 01-4.725-1.932c-1.063-.49-3.2-1.585-3.165-1.62.014-.015 7.778 3.423 8.009 3.545.1.054.026.058-.12.007z" fill="#ffcd94" stroke="#ffcd94" stroke-width=".0727595"/><path d="M83.397 211.88c-.059-.02-.107-.046-.107-.058 0-.024.016-.02.17.051.113.052.082.055-.063.006z" fill="#ffcd94" stroke="#ffcd94" stroke-width=".03651204"/><path d="M74.835 208.051a4.286 4.286 0 01-.241-.14c.007-.007.442.194.474.22.015.012.03.058.018.057-.003 0-.116-.061-.251-.137z" fill="#ffcd94" stroke="#ffcd94" stroke-width=".01825602"/><path d="M83.257 211.837l-.019-.007.015-.007.014-.007.007.014c.007.017.007.017-.017.007z" fill="#ffcd94" stroke="#ffcd94" stroke-width=".00899572"/><path d="M83.27 211.811l.002-.008a.052.052 0 00.004-.011v-.006l.007.003.006.003-.004.003a.028.028 0 00-.011.014c-.001.005-.002.005-.004.002zM83.434 211.84l-.003-.001h.003a.12.12 0 01.009.001c.004 0 .004.001.002.002-.005.001-.007 0-.01-.002z" fill="#ffcd94" stroke="#ffcd94" stroke-width=".00211664"/><path d="M83.515 211.822c-.051.004-.01 0-.094.011-.003 0-.013 0-.01.001.006.003.013.003.02.004" fill="none" stroke="#ffcd94" stroke-width=".01"/><path d="M83.527 211.825c-.052.004-.01 0-.094.011-.004 0-.014 0-.01.001.005.003.012.003.02.004" fill="none" stroke="#ffcd94" stroke-width=".01"/><path d="M127.7 207.86c0-.008.055-.044.123-.081.381-.207.617-.35.665-.404a.088.088 0 00.022-.049c0-.028.028-.05.138-.107.13-.069.604-.29.609-.286a.526.526 0 01-.09.063l-.383.236c-.4.247-1.061.642-1.074.642-.006 0-.01-.006-.01-.014z" fill="#ffcd94" stroke="#ffcd94" stroke-width=".129"/><ellipse ry="20.372" rx="22.133" cy="136.672" cx="117.704" fill="#01cbd7"/><ellipse cx="117.519" cy="137.333" rx="9.615" ry="9.623" opacity=".997" fill="#1d1d1d" stroke="#1d1d1d" stroke-width="1.248" stroke-linejoin="round"/><ellipse ry="4.376" rx="4.368" cy="137.244" cx="117.719" opacity=".997" fill="#01cbd7" stroke="#1d1d1d" stroke-width="1.458" stroke-linejoin="round"/><path fill="#1d1d1d" d="M114.853 122.126h5.727v5.925h-5.727z"/><path opacity=".997" fill="#1d1d1d" d="M125.977 124.197l4.298 3.785-3.915 4.446-4.298-3.784zM126.845 133.796h5.727v5.925h-5.727zM102.503 133.796h5.727v5.925h-5.727zM114.853 146.997h5.727v5.925h-5.727zM108.54 142.154l4.297 3.785-3.915 4.446-4.299-3.785zM126.759 141.611l4.298 3.785-3.916 4.447-4.298-3.785zM108.44 124.428l4.299 3.785-3.916 4.447-4.298-3.785z"/></g></svg>