<svg xmlns="http://www.w3.org/2000/svg" width="2311.057" height="1099.702" viewBox="0 0 611.467 290.963"><g transform="translate(225.934 -6.505)"><rect ry="0" y="6.505" x="-225.934" height="290.963" width="611.467" fill="#53a7eb"/><ellipse cx="79.076" cy="131.506" rx="54.095" ry="70.429" fill="#53a7eb" stroke="#000" stroke-width="3" stroke-linejoin="round" stroke-dasharray="6,3"/><path fill="#53a7eb" d="M47.578 188.476h56.856v23.647H47.578z"/><path d="M48.107 189.535c92.916 67.339 221.305 48.075 283.792-16.94m-555.776 6.334c100.077 84.878 239.458 55.545 328.222 14.759" fill="none" stroke="#000" stroke-width="3" stroke-dasharray="6,3"/><path d="M310.442 192.917l15.218-13.843 20.919 19.154 27.586-56.884-91.887 18.417 27.822 9.777z" fill="#f8f8ff"/><path d="M310.1 169.538l.342 23.38 15.218-13.844 48.505-37.73z" fill="#c5c5cc"/><path d="M310.442 192.917l20.41-9.077-5.192-4.766-15.218 13.843" fill="#929299"/><path d="M-24.427 59.804l-25.061.268-57.822 83.708-.12 25.313 57.967.415v37.755h23.844v-39h21.79l-.096-23.917-21.137-.172z" fill="none" stroke="#000" stroke-width=".282"/><path d="M-88.158 143.943l39.535-58.088v58.088z" fill="none" stroke="#000" stroke-width=".282"/><ellipse cx="-73.332" cy="110.498" rx="12.355" ry="14.962" fill="#fff"/><ellipse cx="-98.187" cy="132.941" rx="6.105" ry="5.427" fill="#fff"/><ellipse cx="-88.158" cy="135.142" rx="6.541" ry="14.669" fill="#fff"/><ellipse cx="-85.397" cy="126.635" rx="11.047" ry="8.803" fill="#fff"/><ellipse cx="-86.705" cy="116.952" rx="5.378" ry="4.694" fill="#fff"/><ellipse cx="-27.547" cy="163.159" rx="12.5" ry="13.348" fill="#fff"/><ellipse cx="-4.29" cy="161.692" rx="8.14" ry="10.121" fill="#fff"/><ellipse cx="-14.32" cy="162.572" rx="4.797" ry="10.121" fill="#fff"/><ellipse ry="8.068" rx="7.704" cy="144.676" cx="-23.913" fill="#fff"/><path d="M3.227 157.717a13.51 11.907 0 01-18.583 3.793 13.51 11.907 0 01-4.362-16.367 13.51 11.907 0 0118.555-3.897 13.51 11.907 0 014.48 16.343m-36.451 24.267a11.12 26.99 0 01-15.295 8.597 11.12 26.99 0 01-3.59-37.1 11.12 26.99 0 0115.272-8.832 11.12 26.99 0 013.687 37.043" fill="#fff"/><path d="M-23.104 205.723a10.901 12.762 0 01-14.995 4.065 10.901 12.762 0 01-3.52-17.542 10.901 12.762 0 0114.973-4.176 10.901 12.762 0 013.615 17.515" fill="#fff"/><path d="M-23.323 185.886a10.43 11.897 0 01-14.347 3.79 10.43 11.897 0 01-3.368-16.353 10.43 11.897 0 0114.326-3.893 10.43 11.897 0 013.459 16.328" fill="#fff"/><path d="M-36.146 204.63a8.866 12.762 0 01-12.197 4.064 8.866 12.762 0 01-2.862-17.541 8.866 12.762 0 0112.178-4.177 8.866 12.762 0 012.94 17.515M-39.851 75.15a12.064 9.681 0 01-16.595 3.084 12.064 9.681 0 01-3.896-13.307 12.064 9.681 0 0116.57-3.168 12.064 9.681 0 014.001 13.287m-14.263 27.352a7.849 8.508 0 01-10.797 2.71 7.849 8.508 0 01-2.535-11.694 7.849 8.508 0 0110.781-2.784 7.849 8.508 0 012.603 11.676" fill="#fff"/><path d="M-39.942 90.047a10.756 12.322 0 01-14.796 3.925 10.756 12.322 0 01-3.473-16.937 10.756 12.322 0 0114.774-4.032 10.756 12.322 0 013.566 16.91" fill="#fff"/><path d="M-52.418 96.074a12.5 15.109 0 01-17.195 4.812 12.5 15.109 0 01-4.036-20.768 12.5 15.109 0 0117.17-4.944 12.5 15.109 0 014.145 20.736m-.079 67.6a19.347 12.782 0 01-26.614 4.07 19.347 12.782 0 01-6.247-17.57 19.347 12.782 0 0126.574-4.183 19.347 12.782 0 016.416 17.544m-35.09 7.967a9.157 6.014 0 01-12.596 1.916 9.157 6.014 0 01-2.957-8.267 9.157 6.014 0 0112.578-1.968 9.157 6.014 0 013.036 8.254" fill="#fff"/><path d="M-65.99 170.425a13.808 7.334 0 01-18.994 2.336 13.808 7.334 0 01-4.459-10.081 13.808 7.334 0 0118.966-2.4 13.808 7.334 0 014.58 10.066" fill="#fff"/><path d="M-50.762 172.51a8.519 7.93 0 01-11.718 2.526 8.519 7.93 0 01-2.75-10.9 8.519 7.93 0 0111.7-2.595 8.519 7.93 0 012.825 10.884m-14.225-20.258a12.573 7.481 0 01-17.294 2.383 12.573 7.481 0 01-4.06-10.283 12.573 7.481 0 0117.27-2.448 12.573 7.481 0 014.169 10.267m-26.148-2.506a11.919 9.241 0 01-16.395 2.944 11.919 9.241 0 01-3.848-12.702 11.919 9.241 0 0116.37-3.025 11.919 9.241 0 013.953 12.684" fill="#fff"/><path d="M-80.193 167.183a16.63 15.183 0 01-22.877 4.836 16.63 15.183 0 01-5.37-20.87 16.63 15.183 0 0122.843-4.968 16.63 15.183 0 015.515 20.838m55.478-17.304a22.677 6.454 0 01-31.194 2.056 22.677 6.454 0 01-7.322-8.872 22.677 6.454 0 0131.148-2.112 22.677 6.454 0 017.52 8.858m-8.343-32.915a9.636 13.602 0 01-13.255 4.333 9.636 13.602 0 01-3.111-18.696 9.636 13.602 0 0113.235-4.452 9.636 13.602 0 013.196 18.668" fill="#fff"/><path d="M-20.424 105.32a8.576 12.908 0 01-11.796 4.112 8.576 12.908 0 01-2.77-17.743 8.576 12.908 0 0111.78-4.225 8.576 12.908 0 012.844 17.717" fill="#fff"/><path d="M-24 86.53a9.157 14.815 0 01-12.597 4.719 9.157 14.815 0 01-2.957-20.365 9.157 14.815 0 0112.578-4.848A9.157 14.815 0 01-23.94 86.37" fill="#fff"/><path d="M-28.172 65.343a13.35 5.574 0 01-18.365 1.776 13.35 5.574 0 01-4.31-7.662 13.35 5.574 0 0118.336-1.824 13.35 5.574 0 014.428 7.65" fill="#fff"/><path d="M-20.85 69.298a7.558 7.774 0 01-10.397 2.476 7.558 7.774 0 01-2.44-10.686 7.558 7.774 0 0110.381-2.544 7.558 7.774 0 012.507 10.67m-6.876 66.281a12.282 18 0 01-16.895 5.734 12.282 18 0 01-3.966-24.742 12.282 18 0 0116.87-5.891 12.282 18 0 014.073 24.705" fill="#fff"/><path d="M-25.969 102.142a13.313 10.304 0 01-18.313 3.282 13.313 10.304 0 01-4.298-14.163 13.313 10.304 0 0118.285-3.372 13.313 10.304 0 014.415 14.142m4.205 27.418a9.157 13.53 0 01-12.596 4.31 9.157 13.53 0 01-2.957-18.598 9.157 13.53 0 0112.577-4.428 9.157 13.53 0 013.037 18.57" fill="#fff"/><path d="M-22.952 145.424a15.627 11.7 0 01-21.497 3.727 15.627 11.7 0 01-5.045-16.083 15.627 11.7 0 0121.464-3.83 15.627 11.7 0 015.182 16.06m-97.159 24.758a3.924 2.494 0 01-5.398.795 3.924 2.494 0 01-1.268-3.428 3.924 2.494 0 015.39-.816 3.924 2.494 0 011.302 3.422m17.338 3.377a4.826 4.734 0 01-6.639 1.507 4.826 4.734 0 01-1.558-6.507 4.826 4.734 0 016.629-1.549 4.826 4.734 0 011.6 6.497" fill="#fff"/><path d="M-117.633 168.43a3.636 3.408 0 01-5.002 1.086 3.636 3.408 0 01-1.174-4.684 3.636 3.408 0 014.995-1.116 3.636 3.408 0 011.205 4.677m2.48-6.519a1.619 1.348 0 01-2.227.43 1.619 1.348 0 01-.522-1.854 1.619 1.348 0 012.223-.442 1.619 1.348 0 01.537 1.851m99.495 40.953a3.78 3.96 0 01-5.198 1.262 3.78 3.96 0 01-1.22-5.444 3.78 3.96 0 015.19-1.296 3.78 3.96 0 011.254 5.436M-6.53 97.9a4.942 4.107 0 01-6.799 1.309 4.942 4.107 0 01-1.596-5.646 4.942 4.107 0 016.788-1.344 4.942 4.107 0 011.64 5.637m-60.082-38.09a8.14 3.08 0 01-11.197.981 8.14 3.08 0 01-2.628-4.234 8.14 3.08 0 0111.18-1.008 8.14 3.08 0 012.7 4.228" fill="#fff"/><path d="M-74.724 65.807a4.36 3.96 0 01-5.998 1.262 4.36 3.96 0 01-1.408-5.444 4.36 3.96 0 015.99-1.297 4.36 3.96 0 011.445 5.436" fill="#fff"/><path d="M240.246 61.976l-25.061.269-57.822 83.707-.12 25.313 57.967.415v37.755h23.844v-39h21.79l-.096-23.917-21.137-.172z" fill="none" stroke="#000" stroke-width=".282"/><path d="M176.515 146.115l39.535-58.088v58.088z" fill="none" stroke="#000" stroke-width=".282"/><ellipse ry="14.962" rx="12.355" cy="112.67" cx="191.34" fill="#fff"/><ellipse ry="5.427" rx="6.105" cy="135.114" cx="166.485" fill="#fff"/><ellipse ry="14.669" rx="6.541" cy="137.314" cx="176.515" fill="#fff"/><ellipse ry="8.803" rx="11.047" cy="128.808" cx="179.276" fill="#fff"/><ellipse ry="4.694" rx="5.378" cy="119.125" cx="177.968" fill="#fff"/><ellipse ry="13.348" rx="12.5" cy="165.331" cx="237.126" fill="#fff"/><ellipse ry="10.121" rx="11.974" cy="163.864" cx="256.548" fill="#fff"/><ellipse cx="240.76" cy="146.849" rx="7.704" ry="8.068" fill="#fff"/><path d="M267.9 159.89a13.51 11.907 0 01-18.583 3.792 13.51 11.907 0 01-4.363-16.367 13.51 11.907 0 0118.556-3.897 13.51 11.907 0 014.48 16.343m-36.451 24.268a11.12 26.99 0 01-15.296 8.597 11.12 26.99 0 01-3.59-37.1 11.12 26.99 0 0115.273-8.833 11.12 26.99 0 013.687 37.044" fill="#fff"/><path d="M241.57 207.895a10.901 12.762 0 01-14.997 4.065 10.901 12.762 0 01-3.52-17.541 10.901 12.762 0 0114.974-4.177 10.901 12.762 0 013.615 17.515" fill="#fff"/><path d="M241.35 188.059a10.43 11.897 0 01-14.347 3.789 10.43 11.897 0 01-3.368-16.353 10.43 11.897 0 0114.326-3.893 10.43 11.897 0 013.459 16.328" fill="#fff"/><path d="M228.527 206.802a8.866 12.762 0 01-12.197 4.065 8.866 12.762 0 01-2.863-17.542 8.866 12.762 0 0112.179-4.176 8.866 12.762 0 012.94 17.515m-3.764-130.349a12.064 11.83 0 01-16.595 3.768 12.064 11.83 0 01-3.896-16.261 12.064 11.83 0 0116.57-3.872 12.064 11.83 0 014.001 16.237" fill="#fff"/><path d="M209.98 100.178a12.165 17.868 0 01-16.733 5.691 12.165 17.868 0 01-3.928-24.56 12.165 17.868 0 0116.709-5.848 12.165 17.868 0 014.034 24.524" fill="#fff"/><path d="M240.24 90.464a19.151 16.062 0 01-26.343 5.116 19.151 16.062 0 01-6.184-22.078 19.151 16.062 0 0126.305-5.257 19.151 16.062 0 016.35 22.045m-28.108 75.391a19.347 12.782 0 01-26.614 4.072 19.347 12.782 0 01-6.247-17.57A19.347 12.782 0 01205.973 148a19.347 12.782 0 016.416 17.543" fill="#fff"/><path d="M177.299 168.748a9.157 6.014 0 01-12.596 1.915 9.157 6.014 0 01-2.957-8.266 9.157 6.014 0 0112.577-1.969 9.157 6.014 0 013.037 8.255" fill="#fff"/><path d="M198.683 172.597a13.808 7.334 0 01-18.994 2.336 13.808 7.334 0 01-4.459-10.081 13.808 7.334 0 0118.966-2.4 13.808 7.334 0 014.58 10.066" fill="#fff"/><path d="M213.91 174.683a8.519 7.93 0 01-11.717 2.526 8.519 7.93 0 01-2.75-10.9 8.519 7.93 0 0111.7-2.596 8.519 7.93 0 012.825 10.884m-14.224-20.035a12.573 7.007 0 01-17.295 2.232 12.573 7.007 0 01-4.06-9.632 12.573 7.007 0 0117.27-2.294 12.573 7.007 0 014.169 9.618m-26.148-2.733a11.919 9.241 0 01-16.395 2.943 11.919 9.241 0 01-3.848-12.702 11.919 9.241 0 0116.37-3.024 11.919 9.241 0 013.953 12.683" fill="#fff"/><path d="M184.026 169.356a19.613 15.183 0 01-26.98 4.836 19.613 15.183 0 01-6.332-20.87 19.613 15.183 0 0126.939-4.969 19.613 15.183 0 016.504 20.838m55.62-17.304a24.594 6.454 0 01-33.831 2.056 24.594 6.454 0 01-7.942-8.871 24.594 6.454 0 0133.781-2.113 24.594 6.454 0 018.156 8.859m-8.063-32.915a9.636 13.602 0 01-13.255 4.332 9.636 13.602 0 01-3.111-18.696 9.636 13.602 0 0113.235-4.451 9.636 13.602 0 013.195 18.667" fill="#fff"/><path d="M243.15 112.605a15.782 19.215 0 01-21.708 6.12 15.782 19.215 0 01-5.096-26.412 15.782 19.215 0 0121.677-6.288 15.782 19.215 0 015.233 26.372m-1.397-37.878a16.67 12.737 0 01-22.93 4.057 16.67 12.737 0 01-5.383-17.507 16.67 12.737 0 0122.896-4.169 16.67 12.737 0 015.528 17.481" fill="#fff"/><path d="M236.998 137.668a12.282 18 0 01-16.895 5.733 12.282 18 0 01-3.966-24.742 12.282 18 0 0116.87-5.89 12.282 18 0 014.073 24.704" fill="#fff"/><path d="M242.998 131.621a9.157 13.53 0 01-12.596 4.31 9.157 13.53 0 01-2.957-18.598 9.157 13.53 0 0112.577-4.428 9.157 13.53 0 013.037 18.57" fill="#fff"/><path d="M241.72 147.596a15.627 11.7 0 01-21.496 3.727 15.627 11.7 0 01-5.046-16.083 15.627 11.7 0 0121.465-3.829 15.627 11.7 0 015.182 16.059m18.368-9.92a3.924 2.494 0 01-5.399.794 3.924 2.494 0 01-1.267-3.428 3.924 2.494 0 015.39-.816 3.924 2.494 0 011.302 3.423" fill="#fff"/><path d="M262.567 135.923a3.636 3.408 0 01-5.002 1.086 3.636 3.408 0 01-1.174-4.684 3.636 3.408 0 014.994-1.115 3.636 3.408 0 011.206 4.676m2.479-6.519a1.619 1.348 0 01-2.226.43 1.619 1.348 0 01-.523-1.854 1.619 1.348 0 012.224-.441 1.619 1.348 0 01.537 1.85m-81.216-24.061a3.78 3.96 0 01-5.198 1.262 3.78 3.96 0 01-1.22-5.444 3.78 3.96 0 015.19-1.296 3.78 3.96 0 011.253 5.435m56.722-51.903a4.942 4.107 0 01-6.798 1.308 4.942 4.107 0 01-1.595-5.645 4.942 4.107 0 016.788-1.344 4.942 4.107 0 011.638 5.637M204.12 189.568a8.14 3.08 0 01-11.197.981 8.14 3.08 0 01-2.629-4.234 8.14 3.08 0 0111.18-1.008 8.14 3.08 0 012.7 4.228" fill="#fff"/><path d="M204.09 194.373a4.36 3.96 0 01-5.998 1.262 4.36 3.96 0 01-1.408-5.444 4.36 3.96 0 015.99-1.296 4.36 3.96 0 011.445 5.435" fill="#fff"/><path d="M162.044 166.14a4.164 2.905 0 01-5.728.925 4.164 2.905 0 01-1.344-3.993 4.164 2.905 0 015.719-.951 4.164 2.905 0 011.38 3.987" fill="#53a7eb"/><path d="M162.117 165.262a4.203 3.22 0 01-5.782 1.025 4.203 3.22 0 01-1.357-4.425 4.203 3.22 0 015.773-1.054 4.203 3.22 0 011.394 4.419" fill="#fff"/><path d="M173.868 167.391a6.13 4.16 0 01-8.432 1.326 6.13 4.16 0 01-1.98-5.72 6.13 4.16 0 018.42-1.36 6.13 4.16 0 012.033 5.71" fill="#53a7eb"/><path d="M173.976 166.134a6.188 4.61 0 01-8.512 1.469 6.188 4.61 0 01-1.998-6.338 6.188 4.61 0 018.499-1.509 6.188 4.61 0 012.052 6.328" fill="#fff"/><path d="M182.146 166.819a4.164 2.905 0 01-5.728.925 4.164 2.905 0 01-1.344-3.993 4.164 2.905 0 015.719-.95 4.164 2.905 0 011.38 3.986" fill="#53a7eb"/><path d="M182.218 165.941a4.203 3.22 0 01-5.78 1.025 4.203 3.22 0 01-1.358-4.425 4.203 3.22 0 015.773-1.053 4.203 3.22 0 011.393 4.418" fill="#fff"/><path d="M239.054 170.435a6.658 5.26 0 01-9.158 1.675 6.658 5.26 0 01-2.15-7.229 6.658 5.26 0 019.145-1.72 6.658 5.26 0 012.208 7.217" fill="#53a7eb"/><path d="M239.17 168.846a6.72 5.828 0 01-9.244 1.857 6.72 5.828 0 01-2.17-8.012 6.72 5.828 0 019.231-1.907 6.72 5.828 0 012.229 8" fill="#fff"/><path d="M226.592 168.386a4.164 2.905 0 01-5.728.925 4.164 2.905 0 01-1.344-3.993 4.164 2.905 0 015.719-.95 4.164 2.905 0 011.38 3.986" fill="#53a7eb"/><path d="M226.664 167.508a4.203 3.22 0 01-5.78 1.025 4.203 3.22 0 01-1.358-4.425 4.203 3.22 0 015.773-1.053 4.203 3.22 0 011.394 4.418" fill="#fff"/><path d="M259.708 153.086a4.164 2.905 0 01-5.727.925 4.164 2.905 0 01-1.345-3.993 4.164 2.905 0 015.72-.95 4.164 2.905 0 011.38 3.987" fill="#53a7eb"/><path d="M259.781 152.208a4.203 3.22 0 01-5.781 1.026 4.203 3.22 0 01-1.357-4.425 4.203 3.22 0 015.773-1.054 4.203 3.22 0 011.393 4.419" fill="#fff"/><path d="M221.47 81.93a5.795 4.318 0 01-7.97 1.374 5.795 4.318 0 01-1.871-5.934 5.795 4.318 0 017.959-1.413 5.795 4.318 0 011.921 5.925" fill="#53a7eb"/><path d="M221.572 80.625a5.849 4.785 0 01-8.046 1.524 5.849 4.785 0 01-1.888-6.577 5.849 4.785 0 018.033-1.566 5.849 4.785 0 011.94 6.567" fill="#fff"/><path d="M229.884 81.043a4.164 2.905 0 01-5.728.925 4.164 2.905 0 01-1.344-3.993 4.164 2.905 0 015.719-.95 4.164 2.905 0 011.38 3.986" fill="#53a7eb"/><path d="M229.957 80.165a4.203 3.22 0 01-5.781 1.025 4.203 3.22 0 01-1.358-4.425 4.203 3.22 0 015.773-1.053 4.203 3.22 0 011.394 4.418" fill="#fff"/><path d="M-45.895 77.75a4.164 2.905 0 01-5.727.926 4.164 2.905 0 01-1.345-3.993 4.164 2.905 0 015.72-.95 4.164 2.905 0 011.38 3.986" fill="#53a7eb"/><path d="M-45.822 76.873a4.203 3.22 0 01-5.781 1.025 4.203 3.22 0 01-1.357-4.425 4.203 3.22 0 015.772-1.053 4.203 3.22 0 011.394 4.418" fill="#fff"/><path d="M-32.782 80.132a6.754 5.26 0 01-9.29 1.675 6.754 5.26 0 01-2.181-7.23 6.754 5.26 0 019.276-1.72 6.754 5.26 0 012.24 7.218" fill="#53a7eb"/><path d="M-32.664 78.543a6.817 5.828 0 01-9.378 1.856 6.817 5.828 0 01-2.2-8.011 6.817 5.828 0 019.363-1.908 6.817 5.828 0 012.26 8" fill="#fff"/><path d="M-54.533 78.208a5.149 3.993 0 01-7.082 1.272 5.149 3.993 0 01-1.663-5.488 5.149 3.993 0 017.072-1.306 5.149 3.993 0 011.707 5.48" fill="#53a7eb"/><path d="M-54.443 77.002a5.197 4.425 0 01-7.149 1.41 5.197 4.425 0 01-1.678-6.082 5.197 4.425 0 017.138-1.448 5.197 4.425 0 011.724 6.072" fill="#fff"/><path d="M-26.677 205.675a4.164 2.905 0 01-5.727.926 4.164 2.905 0 01-1.345-3.993 4.164 2.905 0 015.72-.951 4.164 2.905 0 011.38 3.987" fill="#53a7eb"/><path d="M-26.604 204.798a4.203 3.22 0 01-5.781 1.025 4.203 3.22 0 01-1.357-4.425 4.203 3.22 0 015.772-1.053 4.203 3.22 0 011.394 4.418" fill="#fff"/><path d="M-80.082 167.02a5.699 4.318 0 01-7.838 1.374 5.699 4.318 0 01-1.84-5.934 5.699 4.318 0 017.827-1.413 5.699 4.318 0 011.89 5.925" fill="#53a7eb"/><path d="M-79.982 165.715a5.752 4.785 0 01-7.912 1.524 5.752 4.785 0 01-1.858-6.577 5.752 4.785 0 017.901-1.566 5.752 4.785 0 011.907 6.567" fill="#fff"/><path d="M-97.216 160.64a4.164 2.905 0 01-5.728.924 4.164 2.905 0 01-1.344-3.993 4.164 2.905 0 015.719-.95 4.164 2.905 0 011.38 3.987" fill="#53a7eb"/><path d="M-97.143 159.761a4.203 3.22 0 01-5.782 1.026 4.203 3.22 0 01-1.357-4.425 4.203 3.22 0 015.773-1.054 4.203 3.22 0 011.394 4.419" fill="#fff"/><path d="M-89.276 162.188a4.164 2.905 0 01-5.727.926 4.164 2.905 0 01-1.345-3.993 4.164 2.905 0 015.72-.951 4.164 2.905 0 011.38 3.987" fill="#53a7eb"/><path d="M-89.203 161.31a4.203 3.22 0 01-5.781 1.026 4.203 3.22 0 01-1.357-4.425 4.203 3.22 0 015.772-1.054 4.203 3.22 0 011.394 4.419" fill="#fff"/><path d="M-27.199 158.086a6.946 4.631 0 01-9.554 1.475 6.946 4.631 0 01-2.243-6.366 6.946 4.631 0 019.54-1.516 6.946 4.631 0 012.304 6.357" fill="#53a7eb"/><path d="M-27.077 156.687a7.01 5.133 0 01-9.644 1.634 7.01 5.133 0 01-2.264-7.055 7.01 5.133 0 019.63-1.68 7.01 5.133 0 012.324 7.045" fill="#fff"/><path d="M-18.394 156.96a4.164 2.905 0 01-5.728.925 4.164 2.905 0 01-1.345-3.993 4.164 2.905 0 015.72-.951 4.164 2.905 0 011.38 3.987" fill="#53a7eb"/><path d="M-18.322 156.082a4.203 3.22 0 01-5.781 1.025 4.203 3.22 0 01-1.357-4.425 4.203 3.22 0 015.773-1.053 4.203 3.22 0 011.393 4.418" fill="#fff"/><path d="M-40.86 157.153a4.164 2.905 0 01-5.727.925 4.164 2.905 0 01-1.345-3.993 4.164 2.905 0 015.72-.95 4.164 2.905 0 011.38 3.987" fill="#53a7eb"/><path d="M-40.787 156.275a4.203 3.22 0 01-5.781 1.026 4.203 3.22 0 01-1.357-4.425 4.203 3.22 0 015.772-1.054 4.203 3.22 0 011.394 4.419" fill="#fff"/></g></svg>