<svg xmlns="http://www.w3.org/2000/svg" viewBox="0 0 108.257 108.257" height="409.16" width="409.161"><circle cy="160.751" cx="101.142" fill="#01cbd7" r="54.129" transform="translate(-47.014 -106.623)"/><g transform="translate(-47.014 -106.623)"><ellipse cx="101.951" cy="159.425" rx="26.172" ry="20.531" fill="#5a3825" stroke="#5a3825" stroke-width="2.555"/><rect ry=".036" y="147.102" x="99.758" height="15.8" width="8.931" transform="matrix(.9889 .1486 -.15309 .98821 0 0)" stroke="#5a3825" stroke-width="2.552" fill="none"/><rect width="8.932" height="15.798" x="97.555" y="174.13" ry=".036" transform="matrix(.99235 -.12342 .12717 .99188 0 0)" stroke="#5a3825" stroke-width="2.552" fill="none"/><ellipse ry="22.669" rx="26.053" cy="175.05" cx="101.894" fill="#ffcd94" stroke="#ffcd94" stroke-width="2.678"/><ellipse ry="2.764" rx="2.062" cy="175.51" cx="74.742" fill="#ffcd94" stroke="#ffcd94" stroke-width="2.552"/><ellipse cx="129.05" cy="175.454" rx="2.062" ry="2.764" fill="#ffcd94" stroke="#ffcd94" stroke-width="2.552"/><ellipse ry="1.354" rx="9.45" cy="178.491" cx="101.722" fill="#e5af90"/><ellipse cx="101.683" cy="186.685" rx="8.827" ry="3.645" fill="none" stroke="#846d7b" stroke-width=".606" stroke-linejoin="round" stroke-miterlimit="2.6"/><rect ry=".073" y="181.708" x="92.623" height="4.467" width="18.143" fill="#ffcd94" stroke="#ffcd94" stroke-width="1.35" stroke-linejoin="round" stroke-miterlimit="2.6"/><path d="M74.48 171.434h8.845" fill="none" stroke="#000" stroke-width=".549"/><path d="M119.838 171.434h9.525" fill="none" stroke="#000" stroke-width=".57"/><ellipse cx="88.655" cy="167.122" rx="4.837" ry="2.074" fill="none" stroke="#5a3825" stroke-width=".45" stroke-linejoin="round" stroke-miterlimit="2.6"/><ellipse ry="2.074" rx="4.837" cy="167.122" cx="114.508" fill="none" stroke="#5a3825" stroke-width=".45" stroke-linejoin="round" stroke-miterlimit="2.6"/><rect ry=".058" y="166.743" x="81.284" height="3.574" width="43.09" fill="#ffcd94"/><ellipse ry="3.229" rx="2.63" cy="172.726" cx="88.655" fill="none" stroke="#846d7b" stroke-width=".414" stroke-linejoin="round" stroke-miterlimit="2.6"/><ellipse cx="114.735" cy="172.726" rx="2.63" ry="3.229" fill="none" stroke="#846d7b" stroke-width=".414" stroke-linejoin="round" stroke-miterlimit="2.6"/><rect ry=".034" y="172.774" x="84.686" height="4.244" width="34.018" fill="#ffcd94" stroke="#ffcd94" stroke-width=".391" stroke-linejoin="round" stroke-miterlimit="2.6"/><rect width="10.205" height="5.584" x="109.406" y="168.083" ry=".045" fill="none" stroke="#000004" stroke-width=".987" stroke-linejoin="round" stroke-miterlimit="2.6"/><rect ry=".045" y="168.083" x="83.552" height="5.584" width="10.205" fill="none" stroke="#000004" stroke-width=".987" stroke-linejoin="round" stroke-miterlimit="2.6"/><path d="M86.683 141.604l-.863-3.24 3.057 2.673M84.686 143.552l-.058-3.35 2.326 3.312" fill="#5a3825" stroke="#5a3825" stroke-width=".225"/><path d="M83.552 144.63l-.863-3.24 3.056 2.674" fill="#5a3825" stroke="#5a3825" stroke-width=".225"/><ellipse ry=".843" rx="1.2" cy="177.934" cx="101.966" fill="none" stroke="#846d7b" stroke-width=".354" stroke-linejoin="round" stroke-miterlimit="2.6"/><rect ry=".06" y="177.823" x="100.277" height="1.26" width="3.604" fill="#e5af90"/><path d="M93.757 170.093h15.875" fill="none" stroke="#000" stroke-width=".991"/><path d="M85.865 212.344c-.05-.016-.091-.038-.091-.048 0-.02.014-.017.146.043.097.044.07.047-.055.005z" fill="#ffcd94" stroke="#ffcd94" stroke-width=".031"/><path d="M78.526 209.113a3.696 3.696 0 01-.206-.119c.006-.006.379.164.406.186.013.01.025.049.016.048-.003 0-.1-.052-.216-.116z" fill="#ffcd94" stroke="#ffcd94" stroke-width=".015"/><path d="M86.772 212.48l-.051.154" fill="none" stroke="#000" stroke-width=".225"/><path d="M86.347 212.51a6.112 6.112 0 01-.363-.123c.002 0 .006-.004.008-.009.007-.015-.003-.025-.044-.045l-.036-.017.014-.002a.04.04 0 00.021-.01c.007-.006.009-.005.152.057.279.12.425.18.48.199.02.007.027.007.034.004l.01-.004c.001 0 0 .008-.004.017-.004.012-.008.018-.012.018l-.26-.084zM85.745 212.308l-.016-.006.013-.006.012-.006.006.012c.006.014.006.014-.015.005z" fill="#ffcd94" stroke="#ffcd94" stroke-width=".008"/><path d="M85.757 212.287l.001-.007a.038.038 0 00.004-.01v-.004l.005.002.006.002-.004.002a.026.026 0 00-.01.012c0 .004-.001.004-.002.002zM85.897 212.311l-.003-.002h.003a.322.322 0 01.01.003l-.01-.001z" fill="#ffcd94" stroke="#ffcd94" stroke-width=".002"/><path d="M85.967 212.295c-.044.003-.009 0-.08.01-.004 0-.012 0-.01.001.005.003.012.003.017.003" fill="none" stroke="#ffcd94" stroke-width=".009"/><path d="M85.976 212.298c-.044.003-.008 0-.08.01-.003 0-.012 0-.009.001.005.003.011.003.017.003" fill="none" stroke="#ffcd94" stroke-width=".009"/><path d="M74.55 160.216s15.453-4.178 20.047-4.112c4.595.066 7.795 1.22 7.795 1.22s2.928-1.418 7.66-1.559c4.731-.14 19.251 3.977 19.251 3.977l.813-18.347-55.447.068z" stroke="#000" stroke-width=".265"/><rect transform="matrix(.95994 .2802 -.95642 .292 0 0)" ry="0" y="178.185" x="283.334" height="40.845" width="41.62" fill="#0b0b0b"/><ellipse ry="1.288" rx="1.816" cy="142.714" cx="102.133" fill="#0b0b0b" stroke="#000" stroke-width=".428" stroke-linejoin="round"/><path d="M100.312 143.433l-20.322 5.08-.48 12.558" fill="none" stroke="#ffff1c" stroke-width=".865"/><circle r="1.534" cy="162.125" cx="79.702" fill="#ffff1c"/><path d="M79.079 163.228l-1.821 5.08 4.41.016-1.439-5.097z" fill="#ffff1c"/></g></svg>