<?xml version="1.0" encoding="UTF-8" standalone="no"?>
<svg
   xmlns:dc="http://purl.org/dc/elements/1.1/"
   xmlns:cc="http://creativecommons.org/ns#"
   xmlns:rdf="http://www.w3.org/1999/02/22-rdf-syntax-ns#"
   xmlns:svg="http://www.w3.org/2000/svg"
   xmlns="http://www.w3.org/2000/svg"
   xmlns:sodipodi="http://sodipodi.sourceforge.net/DTD/sodipodi-0.dtd"
   xmlns:inkscape="http://www.inkscape.org/namespaces/inkscape"
   sodipodi:docname="education.svg"
   inkscape:version="1.0 (4035a4f, 2020-05-01)"
   id="svg8"
   version="1.1"
   viewBox="0 0 108.25705 108.25704"
   height="108.25704mm"
   width="108.25705mm">
  <defs
     id="defs2" />
  <sodipodi:namedview
     inkscape:window-maximized="0"
     inkscape:window-y="68"
     inkscape:window-x="1440"
     inkscape:window-height="1035"
     inkscape:window-width="1920"
     showgrid="false"
     inkscape:document-rotation="0"
     inkscape:current-layer="layer3"
     inkscape:document-units="mm"
     inkscape:cy="187.72081"
     inkscape:cx="75.98576"
     inkscape:zoom="1.9517014"
     inkscape:pageshadow="2"
     inkscape:pageopacity="0.0"
     borderopacity="1.0"
     bordercolor="#666666"
     pagecolor="#ffffff"
     id="base">
    <inkscape:grid
       originy="-106.62262"
       originx="-47.01394"
       id="grid953"
       type="xygrid" />
  </sodipodi:namedview>
  <metadata
     id="metadata5">
    <rdf:RDF>
      <cc:Work
         rdf:about="">
        <dc:format>image/svg+xml</dc:format>
        <dc:type
           rdf:resource="http://purl.org/dc/dcmitype/StillImage" />
        <dc:title></dc:title>
      </cc:Work>
    </rdf:RDF>
  </metadata>
  <g
     transform="translate(-47.013939,-106.62262)"
     inkscape:label="back"
     id="layer3"
     inkscape:groupmode="layer">
    <ellipse
       ry="54.128521"
       rx="54.128525"
       cy="160.75114"
       cx="101.14246"
       id="path1191"
       style="fill:#01cbd7;fill-opacity:1;stroke:none;stroke-width:1.32651;stroke-linejoin:miter;stroke-miterlimit:5.4;stroke-dasharray:none;stroke-opacity:1" />
  </g>
  <g
     transform="translate(-47.013939,-106.62262)"
     inkscape:label="shirt"
     id="layer2"
     inkscape:groupmode="layer" />
  <g
     transform="translate(-47.013939,-106.62262)"
     id="layer1"
     inkscape:groupmode="layer"
     inkscape:label="head">
    <path
       transform="scale(0.26458333)"
       id="path1243"
       d=""
       style="fill:#ffcd94;fill-opacity:1;stroke:#ffcd94;stroke-width:0.137658;stroke-linejoin:miter;stroke-miterlimit:4;stroke-dasharray:none;stroke-opacity:1" />
    <path
       transform="scale(0.26458333)"
       id="path1245"
       d=""
       style="fill:#ffcd94;fill-opacity:1;stroke:#ffcd94;stroke-width:0.137658;stroke-linejoin:miter;stroke-miterlimit:4;stroke-dasharray:none;stroke-opacity:1" />
    <path
       transform="scale(0.26458333)"
       id="path1247"
       d=""
       style="fill:#ffcd94;fill-opacity:1;stroke:#ffcd94;stroke-width:0.137658;stroke-linejoin:miter;stroke-miterlimit:4;stroke-dasharray:none;stroke-opacity:1" />
    <path
       transform="scale(0.26458333)"
       id="path1249"
       d=""
       style="fill:#ffcd94;fill-opacity:1;stroke:#ffcd94;stroke-width:0.137658;stroke-linejoin:miter;stroke-miterlimit:4;stroke-dasharray:none;stroke-opacity:1" />
    <path
       transform="scale(0.26458333)"
       id="path1251"
       d=""
       style="fill:#ffcd94;fill-opacity:1;stroke:#ffcd94;stroke-width:0.137658;stroke-linejoin:miter;stroke-miterlimit:4;stroke-dasharray:none;stroke-opacity:1" />
    <path
       transform="scale(0.26458333)"
       id="path1255"
       d=""
       style="fill:#ffcd94;fill-opacity:1;stroke:#ffcd94;stroke-width:0.137658;stroke-linejoin:miter;stroke-miterlimit:4;stroke-dasharray:none;stroke-opacity:1" />
    <path
       transform="scale(0.26458333)"
       id="path1261"
       d=""
       style="fill:#ffcd94;fill-opacity:1;stroke:#ffcd94;stroke-width:0.137658;stroke-linejoin:miter;stroke-miterlimit:4;stroke-dasharray:none;stroke-opacity:1" />
    <path
       transform="scale(0.26458333)"
       id="path1263"
       d=""
       style="fill:#ffcd94;fill-opacity:1;stroke:#ffcd94;stroke-width:0.137658;stroke-linejoin:miter;stroke-miterlimit:4;stroke-dasharray:none;stroke-opacity:1" />
    <path
       transform="scale(0.26458333)"
       id="path1269"
       d=""
       style="fill:#ffcd94;fill-opacity:1;stroke:#ffcd94;stroke-width:0.137658;stroke-linejoin:miter;stroke-miterlimit:4;stroke-dasharray:none;stroke-opacity:1" />
    <path
       transform="scale(0.26458333)"
       id="path1271"
       d=""
       style="fill:#ffcd94;fill-opacity:1;stroke:#ffcd94;stroke-width:0.137658;stroke-linejoin:miter;stroke-miterlimit:4;stroke-dasharray:none;stroke-opacity:1" />
    <path
       transform="scale(0.26458333)"
       id="path1273"
       d=""
       style="fill:#ffcd94;fill-opacity:1;stroke:#ffcd94;stroke-width:0.137658;stroke-linejoin:miter;stroke-miterlimit:4;stroke-dasharray:none;stroke-opacity:1" />
    <path
       transform="scale(0.26458333)"
       id="path1275"
       d=""
       style="fill:#ffcd94;fill-opacity:1;stroke:#ffcd94;stroke-width:0.137658;stroke-linejoin:miter;stroke-miterlimit:4;stroke-dasharray:none;stroke-opacity:1" />
    <path
       transform="scale(0.26458333)"
       id="path1294"
       d=""
       style="fill:#ffcd94;fill-opacity:1;stroke:#ffcd94;stroke-width:0.389355;stroke-linejoin:miter;stroke-miterlimit:4;stroke-dasharray:none;stroke-opacity:1" />
    <path
       transform="scale(0.26458333)"
       id="path1316"
       d=""
       style="fill:#ffcd94;fill-opacity:1;stroke:#ffcd94;stroke-width:0.00837106;stroke-linejoin:miter;stroke-miterlimit:4;stroke-dasharray:none;stroke-opacity:1" />
    <path
       transform="scale(0.26458333)"
       id="path1322"
       d=""
       style="fill:#ffcd94;fill-opacity:1;stroke:#ffcd94;stroke-width:0.00837106;stroke-linejoin:miter;stroke-miterlimit:4;stroke-dasharray:none;stroke-opacity:1" />
    <ellipse
       style="fill:#5a3825;fill-opacity:1;stroke:#5a3825;stroke-width:2.55459;stroke-opacity:1"
       id="path853-5"
       cx="101.95127"
       cy="159.42523"
       rx="26.172199"
       ry="20.530827" />
    <rect
       ry="0.036273722"
       y="147.10249"
       x="99.757919"
       height="15.799508"
       width="8.9314623"
       id="rect871"
       style="fill:#000000;fill-opacity:0;stroke:#5a3825;stroke-width:2.55196;stroke-opacity:1"
       transform="matrix(0.98889782,0.14859714,-0.15308624,0.98821283,0,0)" />
    <rect
       style="fill:#000000;fill-opacity:0;stroke:#5a3825;stroke-width:2.55195;stroke-opacity:1"
       id="rect871-0"
       width="8.9324083"
       height="15.797787"
       x="97.554726"
       y="174.13036"
       ry="0.036269769"
       transform="matrix(0.99235499,-0.12341629,0.12717201,0.99188068,0,0)" />
    <ellipse
       ry="22.669361"
       rx="26.052649"
       cy="175.04997"
       cx="101.89398"
       id="path853"
       style="fill:#ffcd94;fill-opacity:1;stroke:#ffcd94;stroke-width:2.67821;stroke-opacity:1" />
    <ellipse
       ry="2.763942"
       rx="2.06181"
       cy="175.5103"
       cx="74.742218"
       id="path890"
       style="fill:#ffcd94;fill-opacity:1;stroke:#ffcd94;stroke-width:2.55194;stroke-opacity:1" />
    <ellipse
       style="fill:#ffcd94;fill-opacity:1;stroke:#ffcd94;stroke-width:2.55194;stroke-opacity:1"
       id="path890-6"
       cx="129.05038"
       cy="175.45389"
       rx="2.06181"
       ry="2.763942" />
    <ellipse
       ry="1.3537675"
       rx="9.4499636"
       cy="178.49078"
       cx="101.72218"
       id="path909"
       style="fill:#e5af90;fill-opacity:1;stroke:none;stroke-width:3.03216;stroke-miterlimit:2.6;stroke-dasharray:none;stroke-opacity:1" />
    <ellipse
       style="fill:none;fill-opacity:1;stroke:#846d7b;stroke-width:0.606128;stroke-linejoin:round;stroke-miterlimit:2.6;stroke-dasharray:none;stroke-opacity:1"
       id="path919-5"
       cx="101.68271"
       cy="186.68463"
       rx="8.8270893"
       ry="3.6453075" />
    <rect
       ry="0.072522007"
       y="181.70795"
       x="92.623314"
       height="4.4672093"
       width="18.143003"
       id="rect970"
       style="fill:#ffcd94;fill-opacity:1;stroke:#ffcd94;stroke-width:1.3496;stroke-linejoin:round;stroke-miterlimit:2.6;stroke-dasharray:none;stroke-opacity:1" />
    <path
       style="fill:none;stroke:#000000;stroke-width:0.549223;stroke-linecap:butt;stroke-linejoin:miter;stroke-miterlimit:4;stroke-dasharray:none;stroke-opacity:1"
       d="m 74.480309,171.43355 h 8.84467"
       id="path1008-6" />
    <path
       id="path1008-6-7"
       d="m 119.83782,171.43355 h 9.52508"
       style="fill:none;stroke:#000000;stroke-width:0.569956;stroke-linecap:butt;stroke-linejoin:miter;stroke-miterlimit:4;stroke-dasharray:none;stroke-opacity:1" />
    <ellipse
       style="fill:none;fill-opacity:1;stroke:#5a3825;stroke-width:0.449575;stroke-linejoin:round;stroke-miterlimit:2.6;stroke-dasharray:none;stroke-opacity:1"
       id="path972-3"
       cx="88.654526"
       cy="167.12221"
       rx="4.8370914"
       ry="2.0744572" />
    <ellipse
       ry="2.0744574"
       rx="4.8370914"
       cy="167.12222"
       cx="114.5083"
       id="path972-3-8"
       style="fill:none;fill-opacity:1;stroke:#5a3825;stroke-width:0.449574;stroke-linejoin:round;stroke-miterlimit:2.6;stroke-dasharray:none;stroke-opacity:1" />
    <rect
       ry="0.058017302"
       y="166.74283"
       x="81.283936"
       height="3.5737486"
       width="43.089638"
       id="rect1055"
       style="fill:#ffcd94;fill-opacity:1;stroke:none;stroke-width:1.59128;stroke-linejoin:round;stroke-miterlimit:4;stroke-dasharray:none;stroke-opacity:1" />
    <ellipse
       ry="3.2286084"
       rx="2.6301844"
       cy="172.72565"
       cx="88.654526"
       id="path972"
       style="fill:none;fill-opacity:1;stroke:#846d7b;stroke-width:0.413579;stroke-linejoin:round;stroke-miterlimit:2.6;stroke-dasharray:none;stroke-opacity:1" />
    <ellipse
       style="fill:none;fill-opacity:1;stroke:#846d7b;stroke-width:0.413579;stroke-linejoin:round;stroke-miterlimit:2.6;stroke-dasharray:none;stroke-opacity:1"
       id="path972-5"
       cx="114.73506"
       cy="172.72565"
       rx="2.6301844"
       ry="3.2286086" />
    <rect
       ry="0.034447998"
       y="172.77351"
       x="84.685753"
       height="4.2438545"
       width="34.018131"
       id="rect989"
       style="fill:#ffcd94;fill-opacity:1;stroke:#ffcd94;stroke-width:0.391341;stroke-linejoin:round;stroke-miterlimit:2.6;stroke-dasharray:none;stroke-opacity:1" />
    <rect
       style="fill:none;fill-opacity:1;stroke:#000004;stroke-width:0.986752;stroke-linejoin:round;stroke-miterlimit:2.6;stroke-dasharray:none;stroke-opacity:1"
       id="rect991-1"
       width="10.205439"
       height="5.5840054"
       x="109.4056"
       y="168.08296"
       ry="0.045326203" />
    <rect
       ry="0.045326203"
       y="168.08296"
       x="83.551811"
       height="5.5840049"
       width="10.205439"
       id="rect991"
       style="fill:none;fill-opacity:1;stroke:#000004;stroke-width:0.986752;stroke-linejoin:round;stroke-miterlimit:2.6;stroke-dasharray:none;stroke-opacity:1" />
    <path
       id="path1101"
       d="m 86.682964,141.60414 -0.863277,-3.24073 3.056913,2.67391"
       style="fill:#5a3825;fill-opacity:1;stroke:#5a3825;stroke-width:0.225067px;stroke-linecap:butt;stroke-linejoin:miter;stroke-opacity:1" />
    <path
       inkscape:transform-center-y="-1.0476594"
       inkscape:transform-center-x="1.8112677"
       style="fill:#5a3825;fill-opacity:1;stroke:#5a3825;stroke-width:0.225067px;stroke-linecap:butt;stroke-linejoin:miter;stroke-opacity:1"
       d="m 84.686077,143.55154 -0.05789,-3.34993 2.32544,3.31191"
       id="path1101-3" />
    <path
       inkscape:transform-center-y="-7.6098438"
       inkscape:transform-center-x="-9.7859418"
       style="fill:#5a3825;fill-opacity:1;stroke:#5a3825;stroke-width:0.225067px;stroke-linecap:butt;stroke-linejoin:miter;stroke-opacity:1"
       d="m 83.551812,144.63033 -0.863277,-3.24074 3.056913,2.67391"
       id="path1101-5" />
    <ellipse
       ry="0.84268469"
       rx="1.1995181"
       cy="177.93387"
       cx="101.96619"
       id="path919"
       style="fill:none;fill-opacity:1;stroke:#846d7b;stroke-width:0.354225;stroke-linejoin:round;stroke-miterlimit:2.6;stroke-dasharray:none;stroke-opacity:1" />
    <rect
       ry="0.06030247"
       y="177.82318"
       x="100.27739"
       height="1.2602803"
       width="3.6043022"
       id="rect921"
       style="fill:#e5af90;fill-opacity:1;stroke:none;stroke-width:0.495267;stroke-linejoin:round;stroke-miterlimit:2.6;stroke-dasharray:none;stroke-opacity:1" />
    <path
       id="path1008"
       d="m 93.75725,170.09338 h 15.87513"
       style="fill:none;stroke:#000000;stroke-width:0.991005;stroke-linecap:butt;stroke-linejoin:miter;stroke-miterlimit:4;stroke-dasharray:none;stroke-opacity:1" />
    <path
       id="path1265"
       d="m 85.865074,212.3442 c -0.05008,-0.0166 -0.09105,-0.0384 -0.09105,-0.0485 0,-0.0205 0.01372,-0.0164 0.145681,0.0434 0.09685,0.0439 0.06998,0.0464 -0.05463,0.005 z"
       style="fill:#ffcd94;fill-opacity:1;stroke:#ffcd94;stroke-width:0.0309823;stroke-linejoin:miter;stroke-miterlimit:4;stroke-dasharray:none;stroke-opacity:1" />
    <path
       id="path1302"
       d="m 78.526426,209.11251 c -0.115317,-0.0635 -0.208381,-0.11671 -0.206809,-0.11825 0.0066,-0.006 0.379411,0.16347 0.406496,0.18526 0.01259,0.0101 0.02508,0.0492 0.01558,0.0487 -0.0031,-1.6e-4 -0.09995,-0.0522 -0.215267,-0.11573 z"
       style="fill:#ffcd94;fill-opacity:1;stroke:#ffcd94;stroke-width:0.0154911;stroke-linejoin:miter;stroke-miterlimit:4;stroke-dasharray:none;stroke-opacity:1" />
    <path
       id="path1310"
       d="m 86.771901,212.47987 -0.05099,0.15424"
       style="fill:none;stroke:#000000;stroke-width:0.225067px;stroke-linecap:butt;stroke-linejoin:miter;stroke-opacity:1" />
    <path
       id="path1312"
       d="m 86.346717,212.51068 c -0.272769,-0.0901 -0.370331,-0.1234 -0.36294,-0.12369 0.0025,-1e-4 0.0065,-0.004 0.0087,-0.009 0.0067,-0.0145 -0.0037,-0.0248 -0.04429,-0.0445 l -0.03634,-0.0176 0.0144,-0.002 c 0.0079,-10e-4 0.0174,-0.005 0.02105,-0.009 0.0066,-0.007 0.0087,-0.006 0.152172,0.0558 0.278441,0.12022 0.424333,0.18069 0.479808,0.19886 0.02018,0.007 0.02638,0.007 0.03386,0.004 0.005,-0.002 0.0098,-0.004 0.01048,-0.004 6.8e-4,0 -0.0014,0.008 -0.0045,0.0179 -0.0039,0.0119 -0.0078,0.0179 -0.01177,0.0179 -0.0033,0 -0.120549,-0.0379 -0.260617,-0.0842 z"
       style="fill:#ffcd94;fill-opacity:1;stroke:#ffcd94;stroke-width:0.00774558;stroke-linejoin:miter;stroke-miterlimit:4;stroke-dasharray:none;stroke-opacity:1" />
    <path
       id="path1314"
       d="m 85.745049,212.30823 -0.01558,-0.006 0.01225,-0.006 0.01225,-0.006 0.0056,0.0122 c 0.0063,0.0138 0.0066,0.0137 -0.01454,0.005 z"
       style="fill:#ffcd94;fill-opacity:1;stroke:#ffcd94;stroke-width:0.00774558;stroke-linejoin:miter;stroke-miterlimit:4;stroke-dasharray:none;stroke-opacity:1" />
    <path
       id="path1318"
       d="m 85.75684,212.2868 c -6.8e-4,-0.002 -2.27e-4,-0.003 0.0016,-0.007 0.0014,-0.003 0.0027,-0.007 0.0031,-0.01 l 6.8e-4,-0.004 0.0052,0.002 0.0052,0.002 -0.0037,0.002 c -0.0045,0.003 -0.0087,0.009 -0.0095,0.0125 -6.8e-4,0.004 -0.0016,0.004 -0.0027,0.002 z"
       style="fill:#ffcd94;fill-opacity:1;stroke:#ffcd94;stroke-width:0.00188405;stroke-linejoin:miter;stroke-miterlimit:4;stroke-dasharray:none;stroke-opacity:1" />
    <path
       id="path1320"
       d="m 85.897317,212.31143 -0.0031,-0.002 0.0031,4.5e-4 c 0.0018,2.2e-4 0.0049,6.7e-4 0.0071,0.001 0.0035,4.5e-4 0.0037,6.7e-4 0.0018,0.001 -0.0037,0.001 -0.0056,8.9e-4 -0.0089,-0.001 z"
       style="fill:#ffcd94;fill-opacity:1;stroke:#ffcd94;stroke-width:0.00188405;stroke-linejoin:miter;stroke-miterlimit:4;stroke-dasharray:none;stroke-opacity:1" />
    <path
       id="path1324"
       d="m 85.966744,212.29542 c -0.04405,0.003 -0.0087,2.3e-4 -0.08062,0.01 -0.0029,4.5e-4 -0.01143,-6.7e-4 -0.0089,8.5e-4 0.005,0.003 0.0113,0.003 0.01694,0.003"
       style="fill:none;stroke:#ffcd94;stroke-width:0.00850648;stroke-linecap:butt;stroke-linejoin:miter;stroke-miterlimit:4;stroke-dasharray:none;stroke-opacity:1" />
    <path
       style="fill:none;stroke:#ffcd94;stroke-width:0.00850648;stroke-linecap:butt;stroke-linejoin:miter;stroke-miterlimit:4;stroke-dasharray:none;stroke-opacity:1"
       d="m 85.976486,212.29812 c -0.04405,0.003 -0.0087,2.3e-4 -0.08061,0.01 -0.0029,4.5e-4 -0.01143,-6.6e-4 -0.0089,8.5e-4 0.005,0.003 0.0113,0.003 0.01694,0.003"
       id="path1324-3" />
    <path
       sodipodi:nodetypes="czczcccc"
       id="path3302"
       d="m 74.549343,160.21628 c 0,0 15.453864,-4.17837 20.048077,-4.11226 4.594213,0.0661 7.79502,1.22009 7.79502,1.22009 0,0 2.92783,-1.41857 7.65944,-1.559 4.73161,-0.14043 19.25149,3.97693 19.25149,3.97693 l 0.81221,-18.34687 -55.446285,0.0678 z"
       style="fill:#000000;stroke:#000000;stroke-width:0.26458300000000001px;stroke-linecap:butt;stroke-linejoin:miter;stroke-opacity:1;fill-opacity:1" />
    <rect
       transform="matrix(0.9599442,0.28019124,-0.95641958,0.29199586,0,0)"
       ry="0"
       y="178.18536"
       x="283.33438"
       height="40.845173"
       width="41.620094"
       id="rect3300"
       style="fill:#0b0b0b;fill-opacity:1;stroke:none;stroke-width:1.15367;stroke-linejoin:round" />
    <ellipse
       ry="1.2882861"
       rx="1.8155121"
       cy="142.71364"
       cx="102.13302"
       id="path3307"
       style="fill:#0b0b0b;fill-opacity:1;stroke:#000000;stroke-width:0.428;stroke-linejoin:round;stroke-opacity:1;stroke-miterlimit:4;stroke-dasharray:none" />
    <path
       sodipodi:nodetypes="ccc"
       id="path3310"
       d="m 100.3117,143.43258 -20.322174,5.08054 -0.479295,12.55756"
       style="fill:none;stroke:#ffff1c;stroke-width:0.865;stroke-linecap:butt;stroke-linejoin:miter;stroke-miterlimit:4;stroke-dasharray:none;stroke-opacity:1" />
    <circle
       r="1.5337483"
       cy="162.12514"
       cx="79.701942"
       id="path3313"
       style="fill:#ffff1c;fill-opacity:1;stroke:none;stroke-width:0.804434;stroke-linejoin:round;stroke-miterlimit:4;stroke-dasharray:none;stroke-opacity:1" />
    <path
       sodipodi:nodetypes="ccccc"
       id="path3316"
       d="m 79.078863,163.22752 -1.821325,5.08054 4.409835,0.0164 -1.4382,-5.09699 z"
       style="fill:#ffff1c;stroke:none;stroke-width:0.26458300000000001px;stroke-linecap:butt;stroke-linejoin:miter;stroke-opacity:1;fill-opacity:1" />
  </g>
</svg>
