<svg xmlns="http://www.w3.org/2000/svg" xmlns:xlink="http://www.w3.org/1999/xlink" viewBox="0 0 605.479 382.294" height="1444.89" width="2288.423"><defs><linearGradient id="e"><stop offset="0" stop-color="#9963ba"/><stop offset="1" stop-color="#9963ba" stop-opacity="0"/></linearGradient><linearGradient id="d"><stop offset="0" stop-color="#fad376"/><stop offset="1" stop-color="#fad376" stop-opacity="0"/></linearGradient><linearGradient id="c"><stop offset="0" stop-color="gray"/><stop offset="1" stop-color="gray" stop-opacity="0"/></linearGradient><linearGradient id="b"><stop offset="0" stop-color="#e9262c"/><stop offset="1" stop-color="#e9262c" stop-opacity="0"/></linearGradient><linearGradient id="a"><stop offset="0" stop-color="#e1908d"/><stop offset="1" stop-color="#e1908d" stop-opacity="0"/></linearGradient><linearGradient gradientTransform="translate(-23.089 -43.017)" gradientUnits="userSpaceOnUse" y2="-229.487" x2="433.898" y1="-229.487" x1="401.97" id="i" xlink:href="#b"/><linearGradient xlink:href="#b" id="h" x1="401.97" y1="-229.487" x2="433.898" y2="-229.487" gradientUnits="userSpaceOnUse" gradientTransform="matrix(.57306 0 0 .18557 161.796 -327.945)"/><linearGradient gradientTransform="matrix(1 0 0 .72093 0 -115.166)" gradientUnits="userSpaceOnUse" y2="-424.892" x2="455.424" y1="-424.892" x1="365.39" id="j" xlink:href="#c"/><linearGradient gradientTransform="translate(554.202 -256.419)" gradientUnits="userSpaceOnUse" y2="-213.908" x2="-273.935" y1="2.792" x1="-273.44" id="f" xlink:href="#d"/><linearGradient gradientTransform="translate(150.979 20.179)" gradientUnits="userSpaceOnUse" y2="-105.443" x2="111.127" y1="-269.382" x1="110.258" id="g" xlink:href="#e"/></defs><g transform="translate(44.286 468.73)"><rect ry="0" y="-468.73" x="-44.286" height="216.973" width="605.395" fill="#dd8b8f"/><rect width="605.395" height="216.973" x="-44.286" y="-468.73" ry="0" fill="url(#f)"/><rect ry="0" y="-251.757" x="-44.286" height="165.321" width="605.395" fill="#4334a9"/><rect width="605.395" height="165.321" x="-44.286" y="-251.757" ry="0" fill="url(#g)"/></g><g fill="#1e2967"><path d="M240.685 228.356s19.803-18.46 31.891-19.677c12.088-1.217 18.37 14.133 33.248 12.214 14.878-1.92 24.615-30.718 44.782-31.213 20.168-.494 54.399 38.163 54.399 38.163zM363.347 341.585s15.995-15.893 24.949-15.353c8.954.54 19.191 15.271 19.191 15.271zM.065 382.196v-83.483s25.268 8.563 37.424 18.712c12.156 10.149 24.109 30.631 35.504 35.504 11.396 4.873 20.306-11.614 33.106-7.197 12.8 4.417 30.227 36.464 30.227 36.464z"/></g><g transform="translate(44.286 468.73)"><rect ry="1.02" y="-385.575" x="391.777" height="31.214" width="36.851" fill="#8c2425"/><path d="M391.94-385.683l.21 30.384 36.688-.068-.213-30.208z" fill="url(#h)"/><rect width="170.377" height="73.585" x="390.815" y="-219.288" ry="0" fill="#402905"/><ellipse cx="392.343" cy="-182.385" rx="43.171" ry="36.792" fill="#402905"/><ellipse ry="36.792" rx="43.171" cy="-191.91" cx="392.343" fill="#268b07"/><rect ry="0" y="-228.813" x="390.815" height="73.585" width="170.301" fill="#268b07"/><path d="M391.777-354.361L378.88-190.425l64.022-.368-13.828-163.79z" fill="#8c2425"/><path d="M391.777-354.361L378.88-190.425l64.022-.368-13.828-163.79z" fill="url(#i)"/></g><g transform="translate(44.286 468.73)"><rect rx="0" ry="0" y="-368.798" x="377.589" height="13.201" width="64.962" fill="none" stroke="#1d1d1d" stroke-width="2.53" stroke-linecap="square" stroke-miterlimit="2.9"/><rect width="10.967" height="13.13" x="377.414" y="-368.749" ry="0" rx="0" fill="none" stroke="#1d1d1d" stroke-width="2.5" stroke-linecap="square" stroke-miterlimit="2.9"/><rect rx="0" ry="0" y="-368.749" x="388.381" height="13.13" width="10.967" fill="none" stroke="#1d1d1d" stroke-width="2.5" stroke-linecap="square" stroke-miterlimit="2.9"/><rect rx="0" ry="0" y="-368.749" x="399.348" height="13.13" width="10.967" fill="none" stroke="#1d1d1d" stroke-width="2.5" stroke-linecap="square" stroke-miterlimit="2.9"/><rect rx="0" ry="0" y="-368.749" x="410.315" height="13.13" width="10.967" fill="none" stroke="#1d1d1d" stroke-width="2.5" stroke-linecap="square" stroke-miterlimit="2.9"/><rect rx="0" ry="0" y="-368.749" x="421.282" height="13.13" width="10.967" fill="none" stroke="#1d1d1d" stroke-width="2.5" stroke-linecap="square" stroke-miterlimit="2.9"/><rect rx="0" ry="0" y="-411.742" x="399.569" height="25.108" width="21.107" fill="#ff9" stroke="#1d1d1d" stroke-width="2.5" stroke-linecap="square" stroke-miterlimit="2.9"/><rect rx="0" ry="0" y="-411.866" x="420.552" height="25.357" width="16.953" fill="#ff9" stroke="#1d1d1d" stroke-width="2.252" stroke-linecap="square" stroke-miterlimit="2.9"/><rect width="16.957" height="25.26" x="382.613" y="-411.744" ry="0" rx="0" fill="#ff9" stroke="#1d1d1d" stroke-width="2.248" stroke-linecap="square" stroke-miterlimit="2.9"/><path d="M365.39-412.68l90.034-.102-44.59-17.507z" fill="#1d1d1d"/><path d="M365.39-412.68l90.034-.102-44.59-17.507z" fill="url(#j)"/><path d="M378.881-190.425l94.394 35.35 87.879-.154v-60.884l-120.247.145 2.063 25.175z" fill="#006407"/><g transform="matrix(.26458 0 0 .26458 -24.805 -423.573)"><path class="fill-primary" d="M140.146 176.278C92.152 217.686 65.259 276.519 67.879 337.41c4 93.426 76.335 202.027 405.466 175.6 519.245-41.601 460.773-167.89 465.22-194.144-2.758-2.507 2.572-230.479-145.544-233.115-102.555-11.031-132.517 15.39-214.86-31.99-101.657-73.38-212.25-72.115-303.687 6.715z" fill="#01cbd7"/><text transform="translate(-299.506 106.737)" y="377.133" x="292.402" style="line-height:1.25;white-space:pre;inline-size:1248.33" font-weight="400" font-size="192" font-family="sans-serif"><tspan x="292.402" y="377.133"><tspan style="-inkscape-font-specification:'IBM Plex Sans Condensed, Light Condensed'" font-weight="300" font-stretch="condensed" font-family="IBM Plex Sans Condensed" fill="#1d1d1d">Seth Maxwell</tspan></tspan></text><ellipse cx="426.306" cy="238.755" rx="58.471" ry="80.069" fill="#e9262c" stroke="#1d1d1d" stroke-width="9"/><path d="M436.493 151.242s-4.795-36.895-13.814-51.104c-9.019-14.21-20.574-24.511-37.193-29.385-16.618-4.874-57.823 7.176-57.823 7.176s29.303 7.409 40.563 13.356c11.26 5.948 18.538 9.852 26.878 20.287 8.339 10.436 20.136 42.226 20.136 42.226z" fill="#a87981" stroke="#1d1d1d" stroke-width="8.927" stroke-linecap="round" stroke-linejoin="round"/><path d="M426.455 138.453s4.796-29.808 13.814-41.288c9.019-11.48 20.574-19.803 37.193-23.74 16.618-3.938 57.823 5.798 57.823 5.798s-29.303 5.985-40.563 10.79c-11.26 4.805-18.538 7.96-26.877 16.39-8.34 8.43-20.137 34.114-20.137 34.114z" fill="#a87981" stroke="#1d1d1d" stroke-width="8.023" stroke-linecap="round" stroke-linejoin="round"/><path d="M403.365 148.153s3.196-34.337 7.322-50.786C414.814 80.918 428.18 52.8 428.18 52.8s14.238 26.837 18.307 43.531c4.068 16.694 6.102 51.822 6.102 51.822z" fill="#a87981" stroke="#1d1d1d" stroke-width="9.795" stroke-linejoin="round"/><path d="M428.235 155.832s-10.237-32.775-22.022-44.231c-11.784-11.456-25.814-18.946-44.645-20.674-18.832-1.73-62.257 15.935-62.257 15.935s33.044 1.97 46.162 5.547c13.117 3.578 21.604 5.944 32.135 14.078 10.53 8.134 27.733 35.127 27.733 35.127zM428.235 155.832s11.003-32.526 23.053-43.703c12.05-11.176 26.251-18.334 45.118-19.621 18.867-1.287 61.866 17.39 61.866 17.39s-33.082 1.195-46.28 4.464c-13.197 3.269-21.737 5.435-32.456 13.32-10.718 7.885-28.549 34.467-28.549 34.467z" fill="#a87981" stroke="#1d1d1d" stroke-width="9" stroke-linecap="round" stroke-linejoin="round"/><path d="M387.979 254.344s-11.536-34.023-.175-54.326c11.361-20.304 34.337-28.001 34.337-28.001s-15.166 18.35-22.045 33.748c-6.88 15.4-12.117 48.58-12.117 48.58z" fill="#fff" stroke="#1d1d1d" stroke-width="3.439" stroke-linejoin="round"/></g></g></svg>