<svg xmlns="http://www.w3.org/2000/svg" xmlns:xlink="http://www.w3.org/1999/xlink" viewBox="0 0 605.479 382.294" height="1444.89" width="2288.423"><defs><linearGradient id="e"><stop offset="0" stop-color="#9963ba"/><stop offset="1" stop-color="#9963ba" stop-opacity="0"/></linearGradient><linearGradient id="d"><stop offset="0" stop-color="#fad376"/><stop offset="1" stop-color="#fad376" stop-opacity="0"/></linearGradient><linearGradient id="c"><stop offset="0" stop-color="gray"/><stop offset="1" stop-color="gray" stop-opacity="0"/></linearGradient><linearGradient id="b"><stop offset="0" stop-color="#e9262c"/><stop offset="1" stop-color="#e9262c" stop-opacity="0"/></linearGradient><linearGradient id="a"><stop offset="0" stop-color="#e1908d"/><stop offset="1" stop-color="#e1908d" stop-opacity="0"/></linearGradient><linearGradient gradientTransform="translate(-23.089 -43.017)" gradientUnits="userSpaceOnUse" y2="-229.487" x2="433.898" y1="-229.487" x1="401.97" id="i" xlink:href="#b"/><linearGradient xlink:href="#b" id="h" x1="401.97" y1="-229.487" x2="433.898" y2="-229.487" gradientUnits="userSpaceOnUse" gradientTransform="matrix(.57306 0 0 .18557 161.796 -327.945)"/><linearGradient gradientTransform="matrix(1 0 0 .72093 0 -115.166)" gradientUnits="userSpaceOnUse" y2="-424.892" x2="455.424" y1="-424.892" x1="365.39" id="j" xlink:href="#c"/><linearGradient gradientTransform="translate(554.202 -256.419)" gradientUnits="userSpaceOnUse" y2="-213.908" x2="-273.935" y1="2.792" x1="-273.44" id="f" xlink:href="#d"/><linearGradient gradientTransform="translate(150.979 20.179)" gradientUnits="userSpaceOnUse" y2="-105.443" x2="111.127" y1="-269.382" x1="110.258" id="g" xlink:href="#e"/></defs><g transform="translate(44.286 468.73)"><rect ry="0" y="-468.73" x="-44.286" height="216.973" width="605.395" fill="#dd8b8f"/><rect width="605.395" height="216.973" x="-44.286" y="-468.73" ry="0" fill="url(#f)"/><rect ry="0" y="-251.757" x="-44.286" height="165.321" width="605.395" fill="#4334a9"/><rect width="605.395" height="165.321" x="-44.286" y="-251.757" ry="0" fill="url(#g)"/></g><g fill="#1e2967"><path d="M178.114 227.698s19.803-18.46 31.89-19.677c12.088-1.218 18.37 14.133 33.248 12.213 14.878-1.92 24.615-30.718 44.783-31.212 20.168-.494 54.398 38.162 54.398 38.162zM363.347 341.585s15.995-15.893 24.949-15.353c8.954.54 19.191 15.271 19.191 15.271zM.007 382.196v-83.483s25.268 8.563 37.424 18.712c12.156 10.149 24.109 30.631 35.504 35.504 11.396 4.873 20.306-11.614 33.106-7.197 12.8 4.417 30.227 36.464 30.227 36.464z"/></g><g transform="translate(44.286 468.73)"><rect ry="1.02" y="-385.575" x="391.777" height="31.214" width="36.851" fill="#8c2425"/><path d="M391.94-385.683l.21 30.384 36.688-.068-.213-30.208z" fill="url(#h)"/><rect width="170.377" height="73.585" x="390.815" y="-219.288" ry="0" fill="#402905"/><ellipse cx="392.343" cy="-182.385" rx="43.171" ry="36.792" fill="#402905"/><ellipse ry="36.792" rx="43.171" cy="-191.91" cx="392.343" fill="#268b07"/><rect ry="0" y="-228.813" x="390.815" height="73.585" width="170.301" fill="#268b07"/><path d="M391.777-354.361L378.88-190.425l64.022-.368-13.828-163.79z" fill="#8c2425"/><path d="M391.777-354.361L378.88-190.425l64.022-.368-13.828-163.79z" fill="url(#i)"/></g><g transform="translate(44.286 468.73)"><rect rx="0" ry="0" y="-368.798" x="377.589" height="13.201" width="64.962" fill="none" stroke="#1d1d1d" stroke-width="2.53" stroke-linecap="square" stroke-miterlimit="2.9"/><rect width="10.967" height="13.13" x="377.414" y="-368.749" ry="0" rx="0" fill="none" stroke="#1d1d1d" stroke-width="2.5" stroke-linecap="square" stroke-miterlimit="2.9"/><rect rx="0" ry="0" y="-368.749" x="388.381" height="13.13" width="10.967" fill="none" stroke="#1d1d1d" stroke-width="2.5" stroke-linecap="square" stroke-miterlimit="2.9"/><rect rx="0" ry="0" y="-368.749" x="399.348" height="13.13" width="10.967" fill="none" stroke="#1d1d1d" stroke-width="2.5" stroke-linecap="square" stroke-miterlimit="2.9"/><rect rx="0" ry="0" y="-368.749" x="410.315" height="13.13" width="10.967" fill="none" stroke="#1d1d1d" stroke-width="2.5" stroke-linecap="square" stroke-miterlimit="2.9"/><rect rx="0" ry="0" y="-368.749" x="421.282" height="13.13" width="10.967" fill="none" stroke="#1d1d1d" stroke-width="2.5" stroke-linecap="square" stroke-miterlimit="2.9"/><rect rx="0" ry="0" y="-411.742" x="399.569" height="25.108" width="21.107" fill="#ff9" stroke="#1d1d1d" stroke-width="2.5" stroke-linecap="square" stroke-miterlimit="2.9"/><rect rx="0" ry="0" y="-411.866" x="420.552" height="25.357" width="16.953" fill="#ff9" stroke="#1d1d1d" stroke-width="2.252" stroke-linecap="square" stroke-miterlimit="2.9"/><rect width="16.957" height="25.26" x="382.613" y="-411.744" ry="0" rx="0" fill="#ff9" stroke="#1d1d1d" stroke-width="2.248" stroke-linecap="square" stroke-miterlimit="2.9"/><path d="M365.39-412.68l90.034-.102-44.59-17.507z" fill="#1d1d1d"/><path d="M365.39-412.68l90.034-.102-44.59-17.507z" fill="url(#j)"/><path d="M378.881-190.425l94.394 35.35 87.879-.154v-60.884l-120.247.145 2.063 25.175z" fill="#006407"/></g></svg>