<svg xmlns="http://www.w3.org/2000/svg" viewBox="0 0 70.897 72.872" height="275.421" width="267.959"><g transform="translate(-76.432 -59.57)" stroke="#1d1d1d"><ellipse ry="21.185" rx="15.47" cy="110.066" cx="111.223" fill="#e9262c" stroke-width="2.381"/><path d="M113.919 86.912s-1.27-9.762-3.655-13.522c-2.386-3.76-5.444-6.485-9.84-7.774-4.398-1.29-15.3 1.898-15.3 1.898s7.753 1.96 10.732 3.534c2.98 1.574 4.905 2.607 7.112 5.368 2.206 2.76 5.328 11.172 5.328 11.172z" fill="#a87981" stroke-width="2.362" stroke-linecap="round" stroke-linejoin="round"/><path d="M111.263 83.528s1.269-7.887 3.655-10.924 5.443-5.24 9.84-6.281c4.397-1.042 15.3 1.534 15.3 1.534s-7.754 1.583-10.733 2.855c-2.98 1.271-4.905 2.105-7.111 4.336-2.207 2.23-5.328 9.026-5.328 9.026z" fill="#a87981" stroke-width="2.123" stroke-linecap="round" stroke-linejoin="round"/><path d="M105.153 86.094s.846-9.084 1.938-13.437c1.092-4.352 4.628-11.791 4.628-11.791s3.767 7.1 4.844 11.517c1.076 4.417 1.614 13.711 1.614 13.711z" fill="#a87981" stroke-width="2.592" stroke-linejoin="round"/><path d="M111.734 88.126s-2.709-8.672-5.827-11.703c-3.118-3.03-6.83-5.012-11.812-5.47-4.983-.457-16.473 4.216-16.473 4.216s8.744.522 12.214 1.468c3.47.947 5.716 1.573 8.503 3.725 2.786 2.152 7.337 9.294 7.337 9.294zm0 0s2.91-8.606 6.1-11.563c3.187-2.957 6.945-4.85 11.937-5.191 4.992-.34 16.368 4.6 16.368 4.6s-8.753.317-12.244 1.182c-3.492.865-5.752 1.438-8.588 3.524-2.836 2.086-7.553 9.12-7.553 9.12z" fill="#a87981" stroke-width="2.381" stroke-linecap="round" stroke-linejoin="round"/><path d="M101.083 114.19s-3.053-9.001-.047-14.373 9.085-7.409 9.085-7.409-4.012 4.855-5.833 8.93c-1.82 4.074-3.205 12.853-3.205 12.853z" fill="#fff" stroke-width=".91" stroke-linejoin="round"/></g></svg>