<svg xmlns="http://www.w3.org/2000/svg" viewBox="0 0 108.257 108.257" height="409.16" width="409.161"><circle cy="160.751" cx="101.142" fill="#01cbd7" r="54.129" transform="translate(-47.014 -106.623)"/><ellipse ry="4.244" rx="5.885" cy="183.863" cx="101.936" fill="#cc9c80" stroke="#8c2425" stroke-width=".9" stroke-miterlimit="5.4" transform="translate(-47.014 -106.623)"/><g transform="translate(-47.014 -106.623)"><ellipse cx="102.164" cy="137.911" rx="30.534" ry="24.32" fill="#5a3825" stroke="#5a3825" stroke-width="3.003"/><rect ry=".043" y="126.366" x="92.154" height="18.709" width="10.424" transform="rotate(8.675)" stroke="#5a3825" stroke-width="3" fill="none"/><rect width="10.424" height="18.709" x="103.575" y="153.579" ry=".043" transform="rotate(-7.197)" stroke="#5a3825" stroke-width="3" fill="none"/><ellipse ry="26.853" rx="30.395" cy="156.419" cx="102.097" fill="#ffcd94" stroke="#ffcd94" stroke-width="3.148"/><ellipse ry="3.274" rx="2.405" cy="156.965" cx="70.42" fill="#ffcd94" stroke="#ffcd94" stroke-width="3"/><ellipse cx="133.779" cy="156.898" rx="2.405" ry="3.274" fill="#ffcd94" stroke="#ffcd94" stroke-width="3"/><ellipse ry="9.342" rx="17.761" cy="132.098" cx="108.177" fill="#5a3825" stroke="#5a3825" stroke-width="3.959"/><ellipse ry="1.604" rx="11.025" cy="160.495" cx="101.897" fill="#e5af90"/><ellipse cx="101.85" cy="170.201" rx="10.298" ry="4.318" fill="none" stroke="#846d7b" stroke-width=".713" stroke-linejoin="round" stroke-miterlimit="2.6"/><rect ry=".086" y="164.306" x="91.281" height="5.292" width="21.167" fill="#ffcd94" stroke="#ffcd94" stroke-width="1.587" stroke-linejoin="round" stroke-miterlimit="2.6"/><path d="M70.115 152.135h10.318" fill="none" stroke="#000" stroke-width=".646"/><path d="M123.031 152.135h11.113" fill="none" stroke="#000" stroke-width=".67"/><ellipse cx="86.651" cy="147.029" rx="5.643" ry="2.457" fill="none" stroke="#5a3825" stroke-width=".529" stroke-linejoin="round" stroke-miterlimit="2.6"/><ellipse ry="2.457" rx="5.643" cy="147.029" cx="116.814" fill="none" stroke="#5a3825" stroke-width=".529" stroke-linejoin="round" stroke-miterlimit="2.6"/><rect ry=".069" y="146.579" x="78.052" height="4.233" width="50.271" fill="#ffcd94"/><ellipse ry="3.824" rx="3.069" cy="153.666" cx="86.651" fill="none" stroke="#846d7b" stroke-width=".486" stroke-linejoin="round" stroke-miterlimit="2.6"/><ellipse cx="117.078" cy="153.666" rx="3.069" ry="3.824" fill="none" stroke="#846d7b" stroke-width=".486" stroke-linejoin="round" stroke-miterlimit="2.6"/><rect ry=".041" y="153.723" x="82.021" height="5.027" width="39.688" fill="#ffcd94" stroke="#ffcd94" stroke-width=".46" stroke-linejoin="round" stroke-miterlimit="2.6"/><rect width="11.906" height="6.615" x="110.86" y="148.167" ry=".054" fill="none" stroke="#000004" stroke-width="1.16" stroke-linejoin="round" stroke-miterlimit="2.6"/><rect ry=".054" y="148.167" x="80.698" height="6.615" width="11.906" fill="none" stroke="#000004" stroke-width="1.16" stroke-linejoin="round" stroke-miterlimit="2.6"/><path d="M84.35 116.8l-1.006-3.838 3.566 3.167M82.021 119.108l-.067-3.969 2.713 3.923" fill="#5a3825" stroke="#5a3825" stroke-width=".265"/><path d="M80.698 120.385l-1.007-3.838 3.566 3.167" fill="#5a3825" stroke="#5a3825" stroke-width=".265"/><path d="M92.352 135.811c.13.166.248.344.393.499.24.254.483.51.759.724 1.04.81 2.15 1.413 3.383 1.904.845.337 1.71.636 2.593.857 1.002.25 2.033.368 3.05.553 2.984.32 5.986.224 8.973.03.723-.046 1.445-.115 2.167-.173l.98-.726v0c-.735.07-1.47.152-2.206.208-2.99.227-5.998.337-8.988.013-1.003-.187-2.021-.306-3.01-.56a19.054 19.054 0 01-2.544-.87c-1.467-.61-2.92-1.45-3.97-2.664-.136-.155-.238-.336-.356-.504l-1.224.71z" fill="#8b5523" stroke="#8b5523" stroke-width=".065" stroke-miterlimit="5.4"/><path d="M97.546 135.274c.956.491 1.995.688 3.033.85.642.1 1.287.177 1.933.246 1.625.173 2.76.228 4.4.334 2.7.146 5.433.348 8.019 1.278 1.23.442 1.45.628 2.541 1.258 1.093.788.596.394 1.502 1.166l1.15-.794v0c-.943-.765-.428-.373-1.555-1.158-1.12-.63-1.34-.812-2.597-1.254-2.607-.917-5.357-1.123-8.075-1.269-1.525-.103-2.851-.174-4.367-.349a34.984 34.984 0 01-1.895-.266c-.996-.17-2-.378-2.903-.891l-1.186.849z" fill="#8b5523" stroke="#8b5523" stroke-width=".068" stroke-miterlimit="5.4"/><path d="M92.057 133.474c.14-.018.28-.032.42-.052.892-.13 1.775-.289 2.673-.395 1.163-.139 1.605-.163 2.788-.26a32.032 32.032 0 015.766.101c1.06.118 1.761.246 2.812.418 1.855.327 3.717.645 5.608.81.96.083 1.48.096 2.43.136 1.474.03 2.956.004 4.42-.138.541-.06 1.047-.221 1.553-.377.448-.15.896-.302 1.342-.458l1.376-.878v0c-.444.155-.888.308-1.334.46-.502.163-1.008.326-1.541.412-1.476.175-2.974.211-4.464.195-.948-.033-1.483-.042-2.44-.119-1.89-.152-3.754-.465-5.607-.798-1.04-.173-1.768-.308-2.82-.428a32.237 32.237 0 00-5.786-.122c-1.098.084-1.688.12-2.77.238-.878.095-1.742.237-2.613.36-.13.018-.262.032-.393.048l-1.42.847z" fill="#8b5523" stroke="#8b5523" stroke-width=".072" stroke-miterlimit="5.4"/><ellipse ry=".998" rx="1.399" cy="159.836" cx="102.181" fill="none" stroke="#846d7b" stroke-width=".416" stroke-linejoin="round" stroke-miterlimit="2.6"/><rect ry=".071" y="159.705" x="100.211" height="1.493" width="4.205" fill="#e5af90"/><path d="M92.604 150.548h18.521" fill="none" stroke="#000" stroke-width="1.165"/><path d="M97.86 214.74c-3.707-.243-7.695-.916-11.152-1.88-1.142-.319-2.418-.711-2.48-.763-.016-.013.514-2.626 1.177-5.806.664-3.18 1.207-5.819 1.207-5.864 0-.045-2.141-1.265-4.759-2.712-2.617-1.446-4.759-2.664-4.759-2.705 0-.042 2.264-2.963 5.032-6.492 2.768-3.528 5.089-6.506 5.157-6.617l.126-.2.443.21c1.793.856 5.412 1.982 7.581 2.36l.697.122.002.681c.003 1.55.532 2.797 1.68 3.96.582.59.946.866 1.49 1.132 1.731.844 3.5.831 5.263-.038 1.282-.632 2.333-1.828 2.818-3.208.223-.632.406-1.896.323-2.227-.05-.197-.014-.23.313-.287 2.738-.478 5.595-1.313 7.999-2.338l.707-.302.206.262 5.187 6.511c4.325 5.426 4.96 6.264 4.825 6.363-.086.063-2.251 1.254-4.812 2.646-3.441 1.872-4.643 2.57-4.61 2.677.15.487 2.354 11.117 2.322 11.2-.046.121-2.883 1.065-4.628 1.54-2.753.75-6.06 1.344-9.086 1.634-1.897.183-6.457.26-8.268.141z" fill="#cc9c80"/><path d="M97.86 214.74c-4.242-.278-8.542-1.06-12.498-2.273-.608-.187-1.118-.351-1.134-.366-.016-.015.514-2.632 1.178-5.815.663-3.183 1.206-5.82 1.206-5.857 0-.039-2.141-1.257-4.759-2.708-2.617-1.45-4.759-2.673-4.759-2.715 0-.043 2.27-2.972 5.043-6.508 2.773-3.537 5.095-6.514 5.158-6.616.113-.18.137-.176.798.127 1.702.78 4.323 1.614 6.57 2.09l1.466.311.002.673c.004 1.493.572 2.828 1.681 3.95.758.768 1.292 1.11 2.248 1.443 2.719.945 5.823-.366 7.073-2.99.392-.822.544-1.45.566-2.346.009-.375.025-.682.036-.682.01 0 .486-.089 1.057-.197 2.206-.418 5.024-1.27 7.029-2.123.497-.211.915-.37.929-.354l5.188 6.517c4.477 5.625 5.142 6.501 5.007 6.6-.086.062-2.154 1.203-4.597 2.533-2.443 1.331-4.527 2.484-4.633 2.561-.218.161-.315-.377 1.342 7.438.454 2.14.808 3.936.787 3.991-.047.122-2.883 1.066-4.63 1.541-2.752.75-6.059 1.344-9.085 1.634-1.897.183-6.457.26-8.268.141z" fill="#8c2425" stroke="#8c2425" stroke-width=".14604816" stroke-miterlimit="5.4"/><path d="M83.075 211.756a59.643 59.643 0 01-4.725-1.932c-1.063-.49-3.2-1.585-3.165-1.62.014-.015 7.778 3.423 8.009 3.545.1.054.026.058-.12.007z" fill="#ffcd94" stroke="#ffcd94" stroke-width=".0727595"/><path d="M83.397 211.88c-.059-.02-.107-.046-.107-.058 0-.024.016-.02.17.051.113.052.082.055-.063.006z" fill="#ffcd94" stroke="#ffcd94" stroke-width=".03651204"/><path d="M83.838 211.95a13.236 13.236 0 00-.407-.176c-.005 0 .005.011.023.024.03.022.03.025.004.026a.583.583 0 01-.125-.035c-.082-.03-.094-.04-.086-.072.008-.033.007-.033-.013-.007-.041.055-.1.041-.613-.143a61.73 61.73 0 01-4.088-1.66 89.725 89.725 0 01-2.953-1.448c-.399-.21-.487-.269-.472-.315.008-.026-.06-.061-.437-.228-.554-.246-.607-.272-.62-.308a.161.161 0 00-.042-.054c-.029-.023-.026-.033.048-.193.232-.499 3.308-7.077 3.954-8.455 1.332-2.846 1.22-2.615 1.26-2.604.172.05 1.357.704 5.63 3.101 1.48.83 1.714.963 1.769 1.004l.038.029-.152.748c-.25 1.232-2.162 10.453-2.23 10.758-.028.12-.048.177-.066.18a4.24 4.24 0 01-.422-.173z" fill="#ffcd94"/><path d="M74.835 208.051a4.286 4.286 0 01-.241-.14c.007-.007.442.194.474.22.015.012.03.058.018.057-.003 0-.116-.061-.251-.137z" fill="#ffcd94" stroke="#ffcd94" stroke-width=".01825602"/><path d="M84.455 212.04l-.06.183" fill="none" stroke="#000" stroke-width=".265"/><path d="M83.959 212.077a7.113 7.113 0 01-.424-.147c.003 0 .008-.005.01-.01.008-.018-.004-.03-.051-.053l-.043-.021.017-.003a.051.051 0 00.025-.01c.007-.009.01-.008.177.065.325.143.495.215.56.236.023.008.03.009.04.005a.083.083 0 01.012-.005l-.006.021c-.004.014-.009.021-.013.021s-.141-.045-.304-.1zM83.257 211.837l-.019-.007.015-.007.014-.007.007.014c.007.017.007.017-.017.007z" fill="#ffcd94" stroke="#ffcd94" stroke-width=".00899572"/><path d="M83.27 211.811l.002-.008a.052.052 0 00.004-.011v-.006l.007.003.006.003-.004.003a.028.028 0 00-.011.014c-.001.005-.002.005-.004.002zM83.434 211.84l-.003-.001h.003a.12.12 0 01.009.001c.004 0 .004.001.002.002-.005.001-.007 0-.01-.002z" fill="#ffcd94" stroke="#ffcd94" stroke-width=".00211664"/><path d="M83.515 211.822c-.051.004-.01 0-.094.011-.003 0-.013 0-.01.001.006.003.013.003.02.004" fill="none" stroke="#ffcd94" stroke-width=".01"/><path d="M83.527 211.825c-.052.004-.01 0-.094.011-.004 0-.014 0-.01.001.005.003.012.003.02.004" fill="none" stroke="#ffcd94" stroke-width=".01"/><path d="M120.195 211.059c.204-.092.375-.166.38-.166.005 0-.005.01-.022.023-.027.02-.028.023-.004.024a.545.545 0 00.117-.033c.077-.028.088-.037.08-.067-.006-.031-.005-.032.013-.007.038.051.093.038.572-.135 1.106-.4 2.531-.984 3.817-1.564a83.463 83.463 0 002.757-1.364c.372-.198.454-.253.44-.297-.007-.024.056-.057.408-.215.518-.231.567-.256.58-.29a.156.156 0 01.038-.05c.027-.023.025-.032-.044-.182l-3.692-7.965c-1.244-2.68-1.14-2.463-1.177-2.452-.16.048-1.266.662-5.256 2.921-1.381.781-1.6.907-1.651.946l-.036.027.142.704c.233 1.161 2.019 9.847 2.083 10.134.025.114.044.167.06.17.013.001.191-.072.395-.163z" fill="#ffcd94"/><path d="M119.808 211.497c0-.01.008-.021.019-.028.013-.007.015-.053.008-.145l-.01-.134.316-.135c.174-.074.32-.127.322-.118.007.022.198-.037.209-.064.005-.013.025-.017.053-.012.06.012.168-.02.645-.192.93-.336 2.097-.804 3.208-1.286.647-.281.941-.42 2.036-.96.56-.275 1.02-.497 1.024-.494.004.004-.108.07-.248.148a55.808 55.808 0 01-6.413 3c-.404.158-1.142.435-1.157.435-.007 0-.012-.007-.012-.015z" fill="#ffcd94" stroke="#ffcd94" stroke-width=".101"/><path d="M127.7 207.86c0-.008.055-.044.123-.081.381-.207.617-.35.665-.404a.088.088 0 00.022-.049c0-.028.028-.05.138-.107.13-.069.604-.29.609-.286a.526.526 0 01-.09.063l-.383.236c-.4.247-1.061.642-1.074.642-.006 0-.01-.006-.01-.014z" fill="#ffcd94" stroke="#ffcd94" stroke-width=".129"/><path d="M100.918 190.583c-.666-.124-1.474-.439-2.005-.783-1.146-.741-2.285-2.275-2.49-3.353l-.044-.231.235.273c.549.64 1.72 1.362 2.754 1.7 1.541.503 3.514.504 5.1.004 1.025-.323 1.78-.764 2.529-1.477.422-.402.452-.42.408-.236a6.45 6.45 0 01-.243.667c-1.007 2.423-3.704 3.907-6.244 3.436z" fill="#8c2425" stroke="#8c2425" stroke-width=".82601876"/></g></svg>