<?xml version="1.0" encoding="UTF-8" standalone="no"?>
<svg
   xmlns:dc="http://purl.org/dc/elements/1.1/"
   xmlns:cc="http://creativecommons.org/ns#"
   xmlns:rdf="http://www.w3.org/1999/02/22-rdf-syntax-ns#"
   xmlns:svg="http://www.w3.org/2000/svg"
   xmlns="http://www.w3.org/2000/svg"
   xmlns:sodipodi="http://sodipodi.sourceforge.net/DTD/sodipodi-0.dtd"
   xmlns:inkscape="http://www.inkscape.org/namespaces/inkscape"
   sodipodi:docname="projects.svg"
   inkscape:version="1.0 (4035a4f, 2020-05-01)"
   id="svg1004"
   version="1.1"
   viewBox="0 0 612.02313 389.34375"
   height="389.34375mm"
   width="612.02313mm">
  <defs
     id="defs998" />
  <sodipodi:namedview
     inkscape:window-maximized="0"
     inkscape:window-y="406"
     inkscape:window-x="-10"
     inkscape:window-height="1009"
     inkscape:window-width="1920"
     fit-margin-bottom="0"
     fit-margin-right="0"
     fit-margin-left="0"
     fit-margin-top="0"
     showgrid="false"
     inkscape:document-rotation="0"
     inkscape:current-layer="layer1"
     inkscape:document-units="mm"
     inkscape:cy="412.58069"
     inkscape:cx="1457.2006"
     inkscape:zoom="0.57956235"
     inkscape:pageshadow="2"
     inkscape:pageopacity="0.0"
     borderopacity="1.0"
     bordercolor="#666666"
     pagecolor="#ffffff"
     id="base" />
  <metadata
     id="metadata1001">
    <rdf:RDF>
      <cc:Work
         rdf:about="">
        <dc:format>image/svg+xml</dc:format>
        <dc:type
           rdf:resource="http://purl.org/dc/dcmitype/StillImage" />
        <dc:title />
      </cc:Work>
    </rdf:RDF>
  </metadata>
  <g
     transform="translate(193.86921,189.87869)"
     id="layer1"
     inkscape:groupmode="layer"
     inkscape:label="Layer 1">
    <rect
       style="fill:#18527c;fill-opacity:1;stroke-width:6.37704;stroke-linejoin:round"
       id="rect1470"
       width="612.10327"
       height="389.19128"
       x="-193.94934"
       y="-189.87869"
       ry="0" />
    <ellipse
       ry="40.880108"
       rx="40.880112"
       cy="-111.63415"
       cx="325.40833"
       id="path1575"
       style="fill:#ffffff;fill-opacity:1;stroke-width:1.24327;stroke-linejoin:round" />
    <circle
       r="34.001244"
       style="fill:#18527c;fill-opacity:1;stroke-width:1.03407;stroke-linejoin:round"
       id="path1575-0"
       cx="347.67819"
       cy="-113.2821" />
    <path
       sodipodi:nodetypes="cczzzzzc"
       id="path1620"
       d="m 293.203,-16.901241 112.3105,0.78616 c 0,0 1.36138,-8.73237 -1.81861,-15.44517 -3.17999,-6.71281 -8.57022,-15.30323 -20.91485,-15.57597 -12.34463,-0.27273 -14.00147,14.56082 -25.71421,15.25442 -11.71273,0.6936 -22.15025,-14.11527 -34.13358,-14.10721 -11.98333,0.008 -23.25534,12.59652 -27.0042,18.47467 -3.74888,5.87814 -2.72505,10.6131 -2.72505,10.6131 z"
       style="fill:#a0daff;fill-opacity:1;stroke:none;stroke-width:0.313125px;stroke-linecap:butt;stroke-linejoin:miter;stroke-opacity:1" />
    <path
       sodipodi:nodetypes="czzzzzcc"
       id="path1626"
       d="m 75.849385,-90.837761 c 0,0 12.769569,-30.870469 25.511195,-33.580299 12.74162,-2.70982 13.22435,15.89019 24.35159,13.82718 11.12723,-2.06301 11.15555,-25.80539 22.41893,-25.67904 11.26338,0.12634 12.05921,12.50076 21.25929,14.1564 9.20008,1.65563 8.98973,-6.01243 20.8728,-3.62141 11.88306,2.39102 25.51121,34.56795 25.51121,34.56795 z"
       style="fill:#a0daff;fill-opacity:1;stroke:none;stroke-width:0.339573px;stroke-linecap:butt;stroke-linejoin:miter;stroke-opacity:1" />
    <path
       style="fill:#2e2d4b;fill-opacity:1;stroke:none;stroke-width:0.264583px;stroke-linecap:butt;stroke-linejoin:miter;stroke-opacity:1"
       d="m -193.95481,40.262336 c 0,0 68.95787,62.226784 104.594089,68.375224 C -53.724501,114.786 -35.316692,85.698563 0.13856708,86.957626 35.593826,88.216689 80.767885,126.37104 115.20908,123.64676 149.65027,120.92248 159.14387,96.7736 192.47866,84.734042 225.81345,72.694484 315.39159,56.38715 315.39159,56.38715 l 102.22502,34.46173 0.96531,108.94877 -612.58833,0.42799 z"
       id="path1136"
       sodipodi:nodetypes="czzzzccccc" />
    <path
       sodipodi:nodetypes="ccccaccc"
       id="path1596"
       d="m 182.14406,199.39044 h -15.96515 l 2.67215,-33.07742 -0.14607,-80.696116 c 0,0 3.29339,-2.175717 5.11267,-2.101415 1.98439,0.08104 5.40486,2.740593 5.40486,2.740593 l -0.14609,80.376518 z"
       style="fill:#1d1d1d;fill-opacity:1;stroke:none;stroke-width:0.672416;stroke-linecap:butt;stroke-linejoin:miter;stroke-miterlimit:4;stroke-dasharray:none;stroke-opacity:1" />
    <path
       sodipodi:nodetypes="czzc"
       id="path1598"
       d="m 173.66613,84.206608 c 0,0 0.4264,-9.341486 -1.95099,-12.999713 -2.37737,-3.658228 -5.78778,-6.225103 -10.7304,-8.124822 -4.94262,-1.899719 -17.6982,-2.294067 -17.6982,-2.294067"
       style="fill:none;fill-opacity:1;stroke:#1d1d1d;stroke-width:1.49485;stroke-linecap:butt;stroke-linejoin:miter;stroke-miterlimit:4;stroke-dasharray:none;stroke-opacity:1" />
    <path
       sodipodi:nodetypes="czsczzc"
       id="path1600"
       d="m 143.28654,60.788006 c 0,0 -9.7238,-0.494593 -12.58778,-0.09758 -2.86398,0.397012 -3.21138,0.502306 -4.11475,1.447378 -0.68437,0.715968 -0.34839,2.711784 -0.34839,2.711784 0,0 8.48147,0.121443 11.34896,-0.103786 2.86749,-0.225228 4.0702,-0.03606 5.10014,-0.946254 1.02994,-0.910194 0.60182,-3.011541 0.60182,-3.011542 z"
       style="fill:#1d1d1d;fill-opacity:1;stroke:#1d1d1d;stroke-width:1.49485;stroke-linecap:butt;stroke-linejoin:miter;stroke-miterlimit:4;stroke-dasharray:none;stroke-opacity:1" />
    <rect
       y="34.961906"
       x="253.22327"
       height="164.30658"
       width="138.36345"
       id="rect1628"
       style="fill:#7458a3;fill-opacity:1;stroke:none;stroke-width:1.8;stroke-linejoin:round;stroke-miterlimit:4;stroke-dasharray:none;stroke-opacity:1" />
    <rect
       y="56.242062"
       x="269.75424"
       height="37.212765"
       width="13.773083"
       id="rect1632"
       style="fill:#092c4d;fill-opacity:1;stroke:#ffffff;stroke-width:1.12307;stroke-linejoin:round;stroke-miterlimit:4;stroke-dasharray:none;stroke-opacity:1" />
    <rect
       style="fill:#092c4d;fill-opacity:1;stroke:#ffffff;stroke-width:1.0875;stroke-linejoin:round;stroke-miterlimit:4;stroke-dasharray:none;stroke-opacity:1"
       id="rect1632-5"
       width="13.794944"
       height="17.75494"
       x="269.74332"
       y="75.713669" />
    <rect
       style="fill:#5b3f8a;fill-opacity:1;stroke:none;stroke-width:2.13671;stroke-linejoin:round;stroke-miterlimit:4;stroke-dasharray:none;stroke-opacity:1"
       id="rect1630-4"
       width="15.619388"
       height="3.3454258"
       x="268.98343"
       y="94.77137" />
    <rect
       y="92.769081"
       x="267.92508"
       height="3.3454258"
       width="17.388239"
       id="rect1630"
       style="fill:#001334;fill-opacity:1;stroke:none;stroke-width:2.25445;stroke-linejoin:round;stroke-miterlimit:4;stroke-dasharray:none;stroke-opacity:1" />
    <rect
       style="fill:#092c4d;fill-opacity:1;stroke:#ffffff;stroke-width:1.12307;stroke-linejoin:round;stroke-miterlimit:4;stroke-dasharray:none;stroke-opacity:1"
       id="rect1632-6"
       width="13.773084"
       height="37.212765"
       x="292.63708"
       y="56.38715" />
    <rect
       y="75.858765"
       x="292.62616"
       height="17.754942"
       width="13.794944"
       id="rect1632-5-2"
       style="fill:#092c4d;fill-opacity:1;stroke:#ffffff;stroke-width:1.0875;stroke-linejoin:round;stroke-miterlimit:4;stroke-dasharray:none;stroke-opacity:1" />
    <rect
       y="94.916473"
       x="291.86627"
       height="3.3454258"
       width="15.619388"
       id="rect1630-4-5"
       style="fill:#5b3f8a;fill-opacity:1;stroke:none;stroke-width:2.13671;stroke-linejoin:round;stroke-miterlimit:4;stroke-dasharray:none;stroke-opacity:1" />
    <rect
       style="fill:#001334;fill-opacity:1;stroke:none;stroke-width:2.25445;stroke-linejoin:round;stroke-miterlimit:4;stroke-dasharray:none;stroke-opacity:1"
       id="rect1630-1"
       width="17.388239"
       height="3.3454258"
       x="290.80792"
       y="92.914177" />
    <rect
       style="fill:#092c4d;fill-opacity:1;stroke:#ffffff;stroke-width:1.12307;stroke-linejoin:round;stroke-miterlimit:4;stroke-dasharray:none;stroke-opacity:1"
       id="rect1632-55"
       width="13.773084"
       height="37.212765"
       x="315.3916"
       y="56.387154" />
    <rect
       y="75.858765"
       x="315.38068"
       height="17.754942"
       width="13.794944"
       id="rect1632-5-6"
       style="fill:#092c4d;fill-opacity:1;stroke:#ffffff;stroke-width:1.0875;stroke-linejoin:round;stroke-miterlimit:4;stroke-dasharray:none;stroke-opacity:1" />
    <rect
       y="94.916473"
       x="314.62079"
       height="3.3454258"
       width="15.619388"
       id="rect1630-4-3"
       style="fill:#5b3f8a;fill-opacity:1;stroke:none;stroke-width:2.13671;stroke-linejoin:round;stroke-miterlimit:4;stroke-dasharray:none;stroke-opacity:1" />
    <rect
       style="fill:#001334;fill-opacity:1;stroke:none;stroke-width:2.25445;stroke-linejoin:round;stroke-miterlimit:4;stroke-dasharray:none;stroke-opacity:1"
       id="rect1630-2"
       width="17.388239"
       height="3.3454258"
       x="313.56244"
       y="92.914177" />
    <rect
       style="fill:#c79f4d;fill-opacity:1;stroke:#ffffff;stroke-width:1.12307;stroke-linejoin:round;stroke-miterlimit:4;stroke-dasharray:none;stroke-opacity:1"
       id="rect1632-9"
       width="13.773084"
       height="37.212765"
       x="337.61694"
       y="56.387154" />
    <rect
       y="75.858765"
       x="337.60602"
       height="17.754942"
       width="13.794944"
       id="rect1632-5-0"
       style="fill:#c79f4d;fill-opacity:1;stroke:#ffffff;stroke-width:1.0875;stroke-linejoin:round;stroke-miterlimit:4;stroke-dasharray:none;stroke-opacity:1" />
    <rect
       y="94.916473"
       x="336.84613"
       height="3.3454258"
       width="15.619388"
       id="rect1630-4-9"
       style="fill:#5b3f8a;fill-opacity:1;stroke:none;stroke-width:2.13671;stroke-linejoin:round;stroke-miterlimit:4;stroke-dasharray:none;stroke-opacity:1" />
    <rect
       style="fill:#001334;fill-opacity:1;stroke:none;stroke-width:2.25445;stroke-linejoin:round;stroke-miterlimit:4;stroke-dasharray:none;stroke-opacity:1"
       id="rect1630-3"
       width="17.388239"
       height="3.3454258"
       x="335.78778"
       y="92.914177" />
    <rect
       style="fill:#092c4d;fill-opacity:1;stroke:#ffffff;stroke-width:1.12307;stroke-linejoin:round;stroke-miterlimit:4;stroke-dasharray:none;stroke-opacity:1"
       id="rect1632-4"
       width="13.773084"
       height="37.212765"
       x="360.37146"
       y="56.38715" />
    <rect
       y="75.858765"
       x="360.36053"
       height="17.754942"
       width="13.794944"
       id="rect1632-5-7"
       style="fill:#092c4d;fill-opacity:1;stroke:#ffffff;stroke-width:1.0875;stroke-linejoin:round;stroke-miterlimit:4;stroke-dasharray:none;stroke-opacity:1" />
    <rect
       y="94.916473"
       x="359.60065"
       height="3.3454258"
       width="15.619388"
       id="rect1630-4-8"
       style="fill:#5b3f8a;fill-opacity:1;stroke:none;stroke-width:2.13671;stroke-linejoin:round;stroke-miterlimit:4;stroke-dasharray:none;stroke-opacity:1" />
    <rect
       style="fill:#001334;fill-opacity:1;stroke:none;stroke-width:2.25445;stroke-linejoin:round;stroke-miterlimit:4;stroke-dasharray:none;stroke-opacity:1"
       id="rect1630-40"
       width="17.388239"
       height="3.3454258"
       x="358.5423"
       y="92.914177" />
    <rect
       style="fill:#092c4d;fill-opacity:1;stroke:#ffffff;stroke-width:1.12307;stroke-linejoin:round;stroke-miterlimit:4;stroke-dasharray:none;stroke-opacity:1"
       id="rect1632-7"
       width="13.773084"
       height="37.212765"
       x="269.74878"
       y="103.05386" />
    <rect
       y="122.52544"
       x="269.73785"
       height="17.754942"
       width="13.794944"
       id="rect1632-5-9"
       style="fill:#092c4d;fill-opacity:1;stroke:#ffffff;stroke-width:1.0875;stroke-linejoin:round;stroke-miterlimit:4;stroke-dasharray:none;stroke-opacity:1" />
    <rect
       y="141.58315"
       x="268.97797"
       height="3.3454258"
       width="15.619388"
       id="rect1630-4-38"
       style="fill:#5b3f8a;fill-opacity:1;stroke:none;stroke-width:2.13671;stroke-linejoin:round;stroke-miterlimit:4;stroke-dasharray:none;stroke-opacity:1" />
    <rect
       style="fill:#001334;fill-opacity:1;stroke:none;stroke-width:2.25445;stroke-linejoin:round;stroke-miterlimit:4;stroke-dasharray:none;stroke-opacity:1"
       id="rect1630-0"
       width="17.388239"
       height="3.3454258"
       x="267.91959"
       y="139.58086" />
    <rect
       y="103.19895"
       x="292.63196"
       height="37.212765"
       width="13.773085"
       id="rect1632-6-2"
       style="fill:#092c4d;fill-opacity:1;stroke:#ffffff;stroke-width:1.12307;stroke-linejoin:round;stroke-miterlimit:4;stroke-dasharray:none;stroke-opacity:1" />
    <rect
       style="fill:#092c4d;fill-opacity:1;stroke:#ffffff;stroke-width:1.0875;stroke-linejoin:round;stroke-miterlimit:4;stroke-dasharray:none;stroke-opacity:1"
       id="rect1632-5-2-4"
       width="13.794944"
       height="17.754942"
       x="292.62103"
       y="122.67056" />
    <rect
       style="fill:#5b3f8a;fill-opacity:1;stroke:none;stroke-width:2.13671;stroke-linejoin:round;stroke-miterlimit:4;stroke-dasharray:none;stroke-opacity:1"
       id="rect1630-4-5-8"
       width="15.619388"
       height="3.3454258"
       x="291.86115"
       y="141.7282" />
    <rect
       y="139.72592"
       x="290.8028"
       height="3.3454258"
       width="17.388239"
       id="rect1630-1-3"
       style="fill:#001334;fill-opacity:1;stroke:none;stroke-width:2.25445;stroke-linejoin:round;stroke-miterlimit:4;stroke-dasharray:none;stroke-opacity:1" />
    <rect
       y="103.19895"
       x="315.38647"
       height="37.212765"
       width="13.773085"
       id="rect1632-55-9"
       style="fill:#092c4d;fill-opacity:1;stroke:#ffffff;stroke-width:1.12307;stroke-linejoin:round;stroke-miterlimit:4;stroke-dasharray:none;stroke-opacity:1" />
    <rect
       style="fill:#092c4d;fill-opacity:1;stroke:#ffffff;stroke-width:1.0875;stroke-linejoin:round;stroke-miterlimit:4;stroke-dasharray:none;stroke-opacity:1"
       id="rect1632-5-6-0"
       width="13.794944"
       height="17.754942"
       x="315.37555"
       y="122.67056" />
    <rect
       style="fill:#5b3f8a;fill-opacity:1;stroke:none;stroke-width:2.13671;stroke-linejoin:round;stroke-miterlimit:4;stroke-dasharray:none;stroke-opacity:1"
       id="rect1630-4-3-5"
       width="15.619388"
       height="3.3454258"
       x="314.61566"
       y="141.7282" />
    <rect
       y="139.72592"
       x="313.55731"
       height="3.3454258"
       width="17.388239"
       id="rect1630-2-2"
       style="fill:#001334;fill-opacity:1;stroke:none;stroke-width:2.25445;stroke-linejoin:round;stroke-miterlimit:4;stroke-dasharray:none;stroke-opacity:1" />
    <rect
       y="103.19895"
       x="337.61182"
       height="37.212765"
       width="13.773085"
       id="rect1632-9-2"
       style="fill:#092c4d;fill-opacity:1;stroke:#ffffff;stroke-width:1.12307;stroke-linejoin:round;stroke-miterlimit:4;stroke-dasharray:none;stroke-opacity:1" />
    <rect
       style="fill:#092c4d;fill-opacity:1;stroke:#ffffff;stroke-width:1.0875;stroke-linejoin:round;stroke-miterlimit:4;stroke-dasharray:none;stroke-opacity:1"
       id="rect1632-5-0-7"
       width="13.794944"
       height="17.754942"
       x="337.60089"
       y="122.67056" />
    <rect
       style="fill:#5b3f8a;fill-opacity:1;stroke:none;stroke-width:2.13671;stroke-linejoin:round;stroke-miterlimit:4;stroke-dasharray:none;stroke-opacity:1"
       id="rect1630-4-9-3"
       width="15.619388"
       height="3.3454258"
       x="336.841"
       y="141.7282" />
    <rect
       y="139.72592"
       x="335.78265"
       height="3.3454258"
       width="17.388239"
       id="rect1630-3-7"
       style="fill:#001334;fill-opacity:1;stroke:none;stroke-width:2.25445;stroke-linejoin:round;stroke-miterlimit:4;stroke-dasharray:none;stroke-opacity:1" />
    <rect
       y="103.19895"
       x="360.36633"
       height="37.212765"
       width="13.773085"
       id="rect1632-4-9"
       style="fill:#092c4d;fill-opacity:1;stroke:#ffffff;stroke-width:1.12307;stroke-linejoin:round;stroke-miterlimit:4;stroke-dasharray:none;stroke-opacity:1" />
    <rect
       style="fill:#092c4d;fill-opacity:1;stroke:#ffffff;stroke-width:1.0875;stroke-linejoin:round;stroke-miterlimit:4;stroke-dasharray:none;stroke-opacity:1"
       id="rect1632-5-7-0"
       width="13.794944"
       height="17.754942"
       x="360.35541"
       y="122.67056" />
    <rect
       style="fill:#5b3f8a;fill-opacity:1;stroke:none;stroke-width:2.13671;stroke-linejoin:round;stroke-miterlimit:4;stroke-dasharray:none;stroke-opacity:1"
       id="rect1630-4-8-2"
       width="15.619388"
       height="3.3454258"
       x="359.59552"
       y="141.7282" />
    <rect
       y="139.72592"
       x="358.53717"
       height="3.3454258"
       width="17.388239"
       id="rect1630-40-3"
       style="fill:#001334;fill-opacity:1;stroke:none;stroke-width:2.25445;stroke-linejoin:round;stroke-miterlimit:4;stroke-dasharray:none;stroke-opacity:1" />
    <rect
       style="fill:#092c4d;fill-opacity:1;stroke:#ffffff;stroke-width:1.12307;stroke-linejoin:round;stroke-miterlimit:4;stroke-dasharray:none;stroke-opacity:1"
       id="rect1632-56"
       width="13.773084"
       height="37.212765"
       x="269.74911"
       y="149.10646" />
    <rect
       y="168.57777"
       x="269.73819"
       height="17.754942"
       width="13.794944"
       id="rect1632-5-5"
       style="fill:#092c4d;fill-opacity:1;stroke:#ffffff;stroke-width:1.0875;stroke-linejoin:round;stroke-miterlimit:4;stroke-dasharray:none;stroke-opacity:1" />
    <rect
       y="187.63524"
       x="268.9783"
       height="3.3454258"
       width="15.619388"
       id="rect1630-4-30"
       style="fill:#5b3f8a;fill-opacity:1;stroke:none;stroke-width:2.13671;stroke-linejoin:round;stroke-miterlimit:4;stroke-dasharray:none;stroke-opacity:1" />
    <rect
       style="fill:#001334;fill-opacity:1;stroke:none;stroke-width:2.25445;stroke-linejoin:round;stroke-miterlimit:4;stroke-dasharray:none;stroke-opacity:1"
       id="rect1630-48"
       width="17.388239"
       height="3.3454258"
       x="267.91995"
       y="185.63298" />
    <rect
       y="149.25159"
       x="292.63196"
       height="37.212765"
       width="13.773085"
       id="rect1632-6-5"
       style="fill:#092c4d;fill-opacity:1;stroke:#ffffff;stroke-width:1.12307;stroke-linejoin:round;stroke-miterlimit:4;stroke-dasharray:none;stroke-opacity:1" />
    <rect
       style="fill:#092c4d;fill-opacity:1;stroke:#ffffff;stroke-width:1.0875;stroke-linejoin:round;stroke-miterlimit:4;stroke-dasharray:none;stroke-opacity:1"
       id="rect1632-5-2-5"
       width="13.794944"
       height="17.754942"
       x="292.62103"
       y="168.72289" />
    <rect
       style="fill:#5b3f8a;fill-opacity:1;stroke:none;stroke-width:2.13671;stroke-linejoin:round;stroke-miterlimit:4;stroke-dasharray:none;stroke-opacity:1"
       id="rect1630-4-5-5"
       width="15.619388"
       height="3.3454258"
       x="291.86115"
       y="187.78035" />
    <rect
       y="185.77809"
       x="290.8028"
       height="3.3454258"
       width="17.388239"
       id="rect1630-1-4"
       style="fill:#001334;fill-opacity:1;stroke:none;stroke-width:2.25445;stroke-linejoin:round;stroke-miterlimit:4;stroke-dasharray:none;stroke-opacity:1" />
    <rect
       y="149.25159"
       x="315.38647"
       height="37.212765"
       width="13.773085"
       id="rect1632-55-2"
       style="fill:#092c4d;fill-opacity:1;stroke:#ffffff;stroke-width:1.12307;stroke-linejoin:round;stroke-miterlimit:4;stroke-dasharray:none;stroke-opacity:1" />
    <rect
       style="fill:#092c4d;fill-opacity:1;stroke:#ffffff;stroke-width:1.0875;stroke-linejoin:round;stroke-miterlimit:4;stroke-dasharray:none;stroke-opacity:1"
       id="rect1632-5-6-1"
       width="13.794944"
       height="17.754942"
       x="315.37555"
       y="168.72289" />
    <rect
       style="fill:#5b3f8a;fill-opacity:1;stroke:none;stroke-width:2.13671;stroke-linejoin:round;stroke-miterlimit:4;stroke-dasharray:none;stroke-opacity:1"
       id="rect1630-4-3-9"
       width="15.619388"
       height="3.3454258"
       x="314.61566"
       y="187.78035" />
    <rect
       y="185.77809"
       x="313.55731"
       height="3.3454258"
       width="17.388239"
       id="rect1630-2-24"
       style="fill:#001334;fill-opacity:1;stroke:none;stroke-width:2.25445;stroke-linejoin:round;stroke-miterlimit:4;stroke-dasharray:none;stroke-opacity:1" />
    <rect
       y="149.25159"
       x="337.61185"
       height="37.212765"
       width="13.773085"
       id="rect1632-9-5"
       style="fill:#092c4d;fill-opacity:1;stroke:#ffffff;stroke-width:1.12307;stroke-linejoin:round;stroke-miterlimit:4;stroke-dasharray:none;stroke-opacity:1" />
    <rect
       style="fill:#092c4d;fill-opacity:1;stroke:#ffffff;stroke-width:1.0875;stroke-linejoin:round;stroke-miterlimit:4;stroke-dasharray:none;stroke-opacity:1"
       id="rect1632-5-0-8"
       width="13.794944"
       height="17.754942"
       x="337.60089"
       y="168.72289" />
    <rect
       style="fill:#5b3f8a;fill-opacity:1;stroke:none;stroke-width:2.13671;stroke-linejoin:round;stroke-miterlimit:4;stroke-dasharray:none;stroke-opacity:1"
       id="rect1630-4-9-6"
       width="15.619388"
       height="3.3454258"
       x="336.841"
       y="187.78035" />
    <rect
       y="185.77809"
       x="335.78265"
       height="3.3454258"
       width="17.388239"
       id="rect1630-3-2"
       style="fill:#001334;fill-opacity:1;stroke:none;stroke-width:2.25445;stroke-linejoin:round;stroke-miterlimit:4;stroke-dasharray:none;stroke-opacity:1" />
    <rect
       y="149.25159"
       x="360.36633"
       height="37.212765"
       width="13.773085"
       id="rect1632-4-5"
       style="fill:#092c4d;fill-opacity:1;stroke:#ffffff;stroke-width:1.12307;stroke-linejoin:round;stroke-miterlimit:4;stroke-dasharray:none;stroke-opacity:1" />
    <rect
       style="fill:#092c4d;fill-opacity:1;stroke:#ffffff;stroke-width:1.0875;stroke-linejoin:round;stroke-miterlimit:4;stroke-dasharray:none;stroke-opacity:1"
       id="rect1632-5-7-1"
       width="13.794944"
       height="17.754942"
       x="360.35541"
       y="168.72289" />
    <rect
       style="fill:#5b3f8a;fill-opacity:1;stroke:none;stroke-width:2.13671;stroke-linejoin:round;stroke-miterlimit:4;stroke-dasharray:none;stroke-opacity:1"
       id="rect1630-4-8-3"
       width="15.619388"
       height="3.3454258"
       x="359.59552"
       y="187.78035" />
    <rect
       y="185.77809"
       x="358.53717"
       height="3.3454258"
       width="17.388239"
       id="rect1630-40-9"
       style="fill:#001334;fill-opacity:1;stroke:none;stroke-width:2.25445;stroke-linejoin:round;stroke-miterlimit:4;stroke-dasharray:none;stroke-opacity:1" />
    <rect
       style="fill:#001334;fill-opacity:1;stroke-width:1.5;stroke-linejoin:round"
       id="rect1011"
       width="11.792339"
       height="4.3238578"
       x="253.19943"
       y="44.395802" />
    <rect
       y="103.02048"
       x="379.81906"
       height="4.3238578"
       width="11.792339"
       id="rect1011-7"
       style="fill:#d890eb;fill-opacity:1;stroke-width:1.5;stroke-linejoin:round" />
    <rect
       y="98.731377"
       x="375.86362"
       height="4.3238578"
       width="11.792339"
       id="rect1011-9"
       style="fill:#001334;fill-opacity:1;stroke-width:1.5;stroke-linejoin:round" />
    <rect
       style="fill:#d890eb;fill-opacity:1;stroke-width:1.5;stroke-linejoin:round"
       id="rect1011-7-8"
       width="11.792339"
       height="4.3238578"
       x="258.72638"
       y="40.071926" />
    <rect
       style="fill:#d890eb;fill-opacity:1;stroke-width:1.5;stroke-linejoin:round"
       id="rect1011-7-87"
       width="11.792339"
       height="4.3238578"
       x="355.62589"
       y="43.651527" />
    <rect
       style="fill:#001334;fill-opacity:1;stroke-width:1.5;stroke-linejoin:round"
       id="rect1011-9-9"
       width="11.792339"
       height="4.3238578"
       x="253.24608"
       y="124.19061" />
    <rect
       style="fill:#d890eb;fill-opacity:1;stroke-width:1.52532;stroke-linejoin:round"
       id="rect1011-7-3"
       width="12.193809"
       height="4.3238578"
       x="379.35568"
       y="-158.94438"
       transform="matrix(0.99999938,0.00111028,0.00118716,-0.9999993,-7.0833337e-7,-4.5833337e-7)" />
    <rect
       style="fill:#001334;fill-opacity:1;stroke-width:1.52532;stroke-linejoin:round"
       id="rect1011-9-4"
       width="12.193809"
       height="4.3238578"
       x="375.26556"
       y="-163.23351"
       transform="matrix(0.99999938,0.00111028,0.00118716,-0.9999993,-7.0833337e-7,-4.5833337e-7)" />
    <rect
       y="193.35716"
       x="253.22327"
       height="4.3238578"
       width="11.792339"
       id="rect1011-7-87-5"
       style="fill:#d890eb;fill-opacity:1;stroke-width:1.5;stroke-linejoin:round" />
    <rect
       style="fill:#001334;fill-opacity:1;stroke-width:1.41389;stroke-linejoin:round"
       id="rect1117"
       width="138.36348"
       height="3.8912733"
       x="253.22327"
       y="31.070633" />
    <rect
       y="27.179361"
       x="251.10663"
       height="3.8912733"
       width="143.6445"
       id="rect1117-4"
       style="fill:#d890eb;fill-opacity:1;stroke-width:1.44062;stroke-linejoin:round" />
    <path
       style="fill:#01cbd7;fill-opacity:1;stroke:none;stroke-width:0.284833px;stroke-linecap:butt;stroke-linejoin:miter;stroke-opacity:1"
       d="m -145.50624,-57.820037 c 0.0994,-20.152317 21.65189,-36.959241 48.362972,-49.606873 26.711078,-12.64763 72.611082,-28.67437 108.399759,-6.44245 35.788677,22.231916 93.034389,97.943699 68.931125,134.647227 -24.103267,36.703527 -67.626715,-37.645178 -100.061312,-31.568011 -32.434597,6.077168 -52.588389,70.786298 -77.825467,59.914795 -25.237077,-10.871502 -8.890377,-58.3006049 -18.344577,-76.020923 -9.4542,-17.720319 -29.56193,-10.771448 -29.4625,-30.923765 z"
       id="path1213"
       sodipodi:nodetypes="zzzzzzzz" />
    <text
       xml:space="preserve"
       style="font-style:normal;font-weight:normal;font-size:50.8px;line-height:1.25;font-family:sans-serif;fill:#000000;fill-opacity:1;stroke:none;stroke-width:0.264583"
       x="-123.27039"
       y="-80.367134"
       id="text1217"><tspan
         sodipodi:role="line"
         id="tspan1215"
         x="-123.27039"
         y="-80.367134"
         style="font-style:normal;font-variant:normal;font-weight:300;font-stretch:condensed;font-size:50.8px;font-family:'IBM Plex Sans Condensed';-inkscape-font-specification:'IBM Plex Sans Condensed,  Light Condensed';stroke-width:0.264583">Projects</tspan></text>
    <g
       inkscape:label="Layer 1"
       id="layer1-0"
       transform="translate(-185.12068,-120.78347)">
      <ellipse
         cx="111.22324"
         cy="110.06635"
         rx="15.470404"
         ry="21.184847"
         id="path925"
         style="opacity:1;fill:#e9262c;fill-opacity:1;stroke:#1d1d1d;stroke-width:2.38125;stroke-miterlimit:4;stroke-dasharray:none;stroke-opacity:1" />
      <path
         sodipodi:nodetypes="czzczzcc"
         id="path1097-0-2"
         d="m 113.91876,86.911824 c 0,0 -1.26891,-9.761834 -3.65507,-13.521381 -2.38617,-3.75955 -5.44357,-6.485268 -9.84056,-7.774801 -4.396993,-1.289532 -15.299041,1.898745 -15.299041,1.898745 0,0 7.753117,1.960174 10.732275,3.533833 2.979158,1.573659 4.904916,2.606502 7.111326,5.367543 2.2064,2.761041 5.32789,11.172127 5.32789,11.172127 z"
         style="fill:#a87981;fill-opacity:1;stroke:#1d1d1d;stroke-width:2.36181;stroke-linecap:round;stroke-linejoin:round;stroke-miterlimit:4;stroke-dasharray:none;stroke-opacity:1" />
      <path
         style="fill:#a87981;fill-opacity:1;stroke:#1d1d1d;stroke-width:2.12288;stroke-linecap:round;stroke-linejoin:round;stroke-miterlimit:4;stroke-dasharray:none;stroke-opacity:1"
         d="m 111.26269,83.527927 c 0,0 1.26891,-7.886639 3.65507,-10.923997 2.38617,-3.037361 5.44357,-5.239482 9.84056,-6.281303 4.397,-1.04182 15.29905,1.534006 15.29905,1.534006 0,0 -7.75312,1.583635 -10.73228,2.855003 -2.97916,1.271369 -4.90492,2.105807 -7.11132,4.336467 -2.20641,2.230659 -5.32789,9.026022 -5.32789,9.026022 z"
         id="path1097-0"
         sodipodi:nodetypes="czzczzcc" />
      <path
         sodipodi:nodetypes="czczcc"
         id="path1146"
         d="m 105.15342,86.094489 c 0,0 0.8456,-9.08494 1.93744,-13.437061 1.09185,-4.352116 4.62832,-11.791703 4.62832,-11.791703 0,0 3.76712,7.100531 4.8436,11.517481 1.07648,4.416946 1.61453,13.711283 1.61453,13.711283 z"
         style="fill:#a87981;fill-opacity:1;stroke:#1d1d1d;stroke-width:2.59159;stroke-linecap:butt;stroke-linejoin:round;stroke-miterlimit:4;stroke-dasharray:none;stroke-opacity:1" />
      <path
         style="fill:#a87981;fill-opacity:1;stroke:#1d1d1d;stroke-width:2.38125;stroke-linecap:round;stroke-linejoin:round;stroke-miterlimit:4;stroke-dasharray:none;stroke-opacity:1"
         d="m 111.73373,88.126243 c 0,0 -2.70856,-8.671867 -5.82655,-11.702913 -3.11798,-3.031045 -6.83004,-5.012615 -11.812549,-5.470031 -4.982507,-0.457415 -16.47216,4.216102 -16.47216,4.216102 0,0 8.743106,0.521306 12.213701,1.467816 3.470593,0.946515 5.716133,1.572551 8.502431,3.724709 2.786297,2.152157 7.337807,9.294106 7.337807,9.294106 z"
         id="path1097-2"
         sodipodi:nodetypes="czzczzcc" />
      <path
         inkscape:transform-center-y="-2.9032284"
         inkscape:transform-center-x="4.568078"
         sodipodi:nodetypes="czzczzcc"
         id="path1097"
         d="m 111.73373,88.126243 c 0,0 2.91116,-8.60597 6.09936,-11.56307 3.1882,-2.9571 6.94571,-4.85108 11.93757,-5.191536 4.99187,-0.340456 16.36877,4.601192 16.36877,4.601192 0,0 -8.75293,0.316146 -12.24476,1.181018 -3.49183,0.864873 -5.75144,1.438082 -8.58743,3.524314 -2.836,2.086229 -7.55373,9.11949 -7.55373,9.11949 z"
         style="fill:#a87981;fill-opacity:1;stroke:#1d1d1d;stroke-width:2.38125;stroke-linecap:round;stroke-linejoin:round;stroke-miterlimit:4;stroke-dasharray:none;stroke-opacity:1" />
      <path
         style="fill:#ffffff;fill-opacity:1;stroke:#1d1d1d;stroke-width:0.91;stroke-linecap:butt;stroke-linejoin:round;stroke-miterlimit:4;stroke-dasharray:none;stroke-opacity:1"
         d="m 101.08256,114.19091 c 0,0 -3.052173,-9.00189 -0.0462,-14.373848 3.00595,-5.371978 9.085,-7.408625 9.085,-7.408625 0,0 -4.01264,4.854887 -5.83287,8.929203 -1.82023,4.07431 -3.20594,12.85327 -3.20594,12.85327 z"
         id="path1801"
         sodipodi:nodetypes="czczc" />
    </g>
    <path
       style="fill:#6f0b20;fill-opacity:1;stroke:none;stroke-width:0.264583px;stroke-linecap:butt;stroke-linejoin:miter;stroke-opacity:1"
       d="m 208.90372,199.46503 c 0,0 1.89616,-15.54901 5.20828,-20.44005 3.31212,-4.89104 6.35826,-7.3722 11.59581,-8.45116 5.23755,-1.07896 9.51293,7.86252 14.09902,10.04564 4.58609,2.18312 13.2199,1.7467 13.2199,1.7467 l 0.19653,16.90233 z"
       id="path1389"
       sodipodi:nodetypes="czzzccc" />
    <path
       style="fill:#842d4b;fill-opacity:1;stroke:none;stroke-width:0.234266px;stroke-linecap:butt;stroke-linejoin:miter;stroke-opacity:1"
       d="m 187.77362,199.46505 c 0,0 -1.75475,-2.82915 -1.33264,-5.01517 0.42211,-2.18601 1.2167,-6.16571 5.165,-6.74265 3.9483,-0.57695 5.28586,2.83393 9.10183,2.52856 3.81597,-0.30537 5.41608,-4.43947 9.17132,-4.38735 8.00524,3.20747 9.06717,9.22027 10.70901,13.61661 z"
       id="path1387"
       sodipodi:nodetypes="czzzccc" />
    <path
       style="fill:#a86374;fill-opacity:1;stroke:none;stroke-width:0.264583px;stroke-linecap:butt;stroke-linejoin:miter;stroke-opacity:1"
       d="m 372.22019,199.26851 c 0,0 3.91934,-9.34298 13.36466,-11.39928 9.44532,-2.0563 13.71097,9.35975 16.76047,7.07541 3.04951,-2.28434 10.20813,3.43618 9.18266,4.32387 z"
       id="path1392"
       sodipodi:nodetypes="czzcc" />
    <path
       style="opacity:0.630225;fill:#c7be4d;fill-opacity:1;stroke:none;stroke-width:0.264583px;stroke-linecap:butt;stroke-linejoin:miter;stroke-opacity:1"
       d="M 130.0793,65.555613 97.171299,199.26851 160.16206,199.07196 137.85488,65.425454 Z"
       id="path1394"
       sodipodi:nodetypes="ccccc" />
  </g>
</svg>
