<svg xmlns="http://www.w3.org/2000/svg" viewBox="0 0 612.023 389.344" height="1471.535" width="2313.158"><g transform="translate(193.87 189.879)"><rect width="612.103" height="389.191" x="-193.949" y="-189.879" ry="0" fill="#18527c"/><circle cy="-111.634" cx="325.408" fill="#fff" r="40.88"/><circle r="34.001" cx="347.678" cy="-113.282" fill="#18527c"/><path d="M293.203-16.901l112.31.786s1.362-8.732-1.818-15.445c-3.18-6.713-8.57-15.303-20.915-15.576-12.345-.273-14.001 14.56-25.714 15.254-11.713.694-22.15-14.115-34.134-14.107-11.983.008-23.255 12.597-27.004 18.475-3.749 5.878-2.725 10.613-2.725 10.613zM75.85-90.838s12.769-30.87 25.51-33.58c12.742-2.71 13.225 15.89 24.352 13.827 11.127-2.063 11.156-25.805 22.42-25.679 11.262.126 12.058 12.5 21.258 14.156 9.2 1.656 8.99-6.012 20.873-3.62 11.883 2.39 25.511 34.567 25.511 34.567z" fill="#a0daff"/><path d="M-193.955 40.262s68.958 62.227 104.594 68.376c35.636 6.148 54.044-22.94 89.5-21.68 35.455 1.259 80.629 39.413 115.07 36.689 34.441-2.725 43.935-26.873 77.27-38.913 33.334-12.04 122.913-28.347 122.913-28.347L417.617 90.85l.965 108.949-612.588.428z" fill="#2e2d4b"/><path d="M182.144 199.39H166.18l2.672-33.077-.146-80.696s3.293-2.176 5.113-2.102c1.984.082 5.405 2.741 5.405 2.741l-.147 80.377z" fill="#1d1d1d"/><path d="M173.666 84.207s.427-9.342-1.95-13c-2.378-3.658-5.789-6.225-10.731-8.125-4.943-1.9-17.698-2.294-17.698-2.294" fill="none" stroke="#1d1d1d" stroke-width="1.495"/><path d="M143.287 60.788s-9.724-.495-12.588-.098c-2.864.397-3.212.503-4.115 1.448-.684.716-.348 2.712-.348 2.712s8.481.121 11.349-.104c2.867-.225 4.07-.036 5.1-.946 1.03-.91.602-3.012.602-3.012z" fill="#1d1d1d" stroke="#1d1d1d" stroke-width="1.495"/><path fill="#7458a3" d="M253.223 34.962h138.363v164.307H253.223z"/><path fill="#092c4d" stroke="#fff" stroke-width="1.123" stroke-linejoin="round" d="M269.754 56.242h13.773v37.213h-13.773z"/><path fill="#092c4d" stroke="#fff" stroke-width="1.087" stroke-linejoin="round" d="M269.743 75.714h13.795v17.755h-13.795z"/><path fill="#5b3f8a" d="M268.983 94.771h15.619v3.345h-15.619z"/><path fill="#001334" d="M267.925 92.769h17.388v3.345h-17.388z"/><path fill="#092c4d" stroke="#fff" stroke-width="1.123" stroke-linejoin="round" d="M292.637 56.387h13.773V93.6h-13.773z"/><path fill="#092c4d" stroke="#fff" stroke-width="1.087" stroke-linejoin="round" d="M292.626 75.859h13.795v17.755h-13.795z"/><path fill="#5b3f8a" d="M291.866 94.916h15.619v3.345h-15.619z"/><path fill="#001334" d="M290.808 92.914h17.388v3.345h-17.388z"/><path fill="#092c4d" stroke="#fff" stroke-width="1.123" stroke-linejoin="round" d="M315.392 56.387h13.773V93.6h-13.773z"/><path fill="#092c4d" stroke="#fff" stroke-width="1.087" stroke-linejoin="round" d="M315.381 75.859h13.795v17.755h-13.795z"/><path fill="#5b3f8a" d="M314.621 94.916h15.619v3.345h-15.619z"/><path fill="#001334" d="M313.562 92.914h17.388v3.345h-17.388z"/><path fill="#c79f4d" stroke="#fff" stroke-width="1.123" stroke-linejoin="round" d="M337.617 56.387h13.773V93.6h-13.773z"/><path fill="#c79f4d" stroke="#fff" stroke-width="1.087" stroke-linejoin="round" d="M337.606 75.859h13.795v17.755h-13.795z"/><path fill="#5b3f8a" d="M336.846 94.916h15.619v3.345h-15.619z"/><path fill="#001334" d="M335.788 92.914h17.388v3.345h-17.388z"/><path fill="#092c4d" stroke="#fff" stroke-width="1.123" stroke-linejoin="round" d="M360.371 56.387h13.773V93.6h-13.773z"/><path fill="#092c4d" stroke="#fff" stroke-width="1.087" stroke-linejoin="round" d="M360.361 75.859h13.795v17.755h-13.795z"/><path fill="#5b3f8a" d="M359.601 94.916h15.619v3.345h-15.619z"/><path fill="#001334" d="M358.542 92.914h17.388v3.345h-17.388z"/><path fill="#092c4d" stroke="#fff" stroke-width="1.123" stroke-linejoin="round" d="M269.749 103.054h13.773v37.213h-13.773z"/><path fill="#092c4d" stroke="#fff" stroke-width="1.087" stroke-linejoin="round" d="M269.738 122.525h13.795v17.755h-13.795z"/><path fill="#5b3f8a" d="M268.978 141.583h15.619v3.345h-15.619z"/><path fill="#001334" d="M267.92 139.581h17.388v3.345H267.92z"/><path fill="#092c4d" stroke="#fff" stroke-width="1.123" stroke-linejoin="round" d="M292.632 103.199h13.773v37.213h-13.773z"/><path fill="#092c4d" stroke="#fff" stroke-width="1.087" stroke-linejoin="round" d="M292.621 122.671h13.795v17.755h-13.795z"/><path fill="#5b3f8a" d="M291.861 141.728h15.619v3.345h-15.619z"/><path fill="#001334" d="M290.803 139.726h17.388v3.345h-17.388z"/><path fill="#092c4d" stroke="#fff" stroke-width="1.123" stroke-linejoin="round" d="M315.386 103.199h13.773v37.213h-13.773z"/><path fill="#092c4d" stroke="#fff" stroke-width="1.087" stroke-linejoin="round" d="M315.376 122.671h13.795v17.755h-13.795z"/><path fill="#5b3f8a" d="M314.616 141.728h15.619v3.345h-15.619z"/><path fill="#001334" d="M313.557 139.726h17.388v3.345h-17.388z"/><path fill="#092c4d" stroke="#fff" stroke-width="1.123" stroke-linejoin="round" d="M337.612 103.199h13.773v37.213h-13.773z"/><path fill="#092c4d" stroke="#fff" stroke-width="1.087" stroke-linejoin="round" d="M337.601 122.671h13.795v17.755h-13.795z"/><path fill="#5b3f8a" d="M336.841 141.728h15.619v3.345h-15.619z"/><path fill="#001334" d="M335.783 139.726h17.388v3.345h-17.388z"/><path fill="#092c4d" stroke="#fff" stroke-width="1.123" stroke-linejoin="round" d="M360.366 103.199h13.773v37.213h-13.773z"/><path fill="#092c4d" stroke="#fff" stroke-width="1.087" stroke-linejoin="round" d="M360.355 122.671h13.795v17.755h-13.795z"/><path fill="#5b3f8a" d="M359.596 141.728h15.619v3.345h-15.619z"/><path fill="#001334" d="M358.537 139.726h17.388v3.345h-17.388z"/><path fill="#092c4d" stroke="#fff" stroke-width="1.123" stroke-linejoin="round" d="M269.749 149.106h13.773v37.213h-13.773z"/><path fill="#092c4d" stroke="#fff" stroke-width="1.087" stroke-linejoin="round" d="M269.738 168.578h13.795v17.755h-13.795z"/><path fill="#5b3f8a" d="M268.978 187.635h15.619v3.345h-15.619z"/><path fill="#001334" d="M267.92 185.633h17.388v3.345H267.92z"/><path fill="#092c4d" stroke="#fff" stroke-width="1.123" stroke-linejoin="round" d="M292.632 149.252h13.773v37.213h-13.773z"/><path fill="#092c4d" stroke="#fff" stroke-width="1.087" stroke-linejoin="round" d="M292.621 168.723h13.795v17.755h-13.795z"/><path fill="#5b3f8a" d="M291.861 187.78h15.619v3.345h-15.619z"/><path fill="#001334" d="M290.803 185.778h17.388v3.345h-17.388z"/><path fill="#092c4d" stroke="#fff" stroke-width="1.123" stroke-linejoin="round" d="M315.386 149.252h13.773v37.213h-13.773z"/><path fill="#092c4d" stroke="#fff" stroke-width="1.087" stroke-linejoin="round" d="M315.376 168.723h13.795v17.755h-13.795z"/><path fill="#5b3f8a" d="M314.616 187.78h15.619v3.345h-15.619z"/><path fill="#001334" d="M313.557 185.778h17.388v3.345h-17.388z"/><path fill="#092c4d" stroke="#fff" stroke-width="1.123" stroke-linejoin="round" d="M337.612 149.252h13.773v37.213h-13.773z"/><path fill="#092c4d" stroke="#fff" stroke-width="1.087" stroke-linejoin="round" d="M337.601 168.723h13.795v17.755h-13.795z"/><path fill="#5b3f8a" d="M336.841 187.78h15.619v3.345h-15.619z"/><path fill="#001334" d="M335.783 185.778h17.388v3.345h-17.388z"/><path fill="#092c4d" stroke="#fff" stroke-width="1.123" stroke-linejoin="round" d="M360.366 149.252h13.773v37.213h-13.773z"/><path fill="#092c4d" stroke="#fff" stroke-width="1.087" stroke-linejoin="round" d="M360.355 168.723h13.795v17.755h-13.795z"/><path fill="#5b3f8a" d="M359.596 187.78h15.619v3.345h-15.619z"/><path fill="#001334" d="M358.537 185.778h17.388v3.345h-17.388zM253.199 44.396h11.792v4.324h-11.792z"/><path fill="#d890eb" d="M379.819 103.02h11.792v4.324h-11.792z"/><path fill="#001334" d="M375.864 98.731h11.792v4.324h-11.792z"/><path fill="#d890eb" d="M258.726 40.072h11.792v4.324h-11.792zm96.9 3.58h11.792v4.324h-11.792z"/><path fill="#001334" d="M253.246 124.191h11.792v4.324h-11.792z"/><path fill="#d890eb" d="M379.167 159.365l12.194.014.005-4.324-12.194-.014z"/><path fill="#001334" d="M375.072 163.65l12.194.014.005-4.324-12.194-.013z"/><path fill="#d890eb" d="M253.223 193.357h11.792v4.324h-11.792z"/><path fill="#001334" d="M253.223 31.071h138.363v3.891H253.223z"/><path fill="#d890eb" d="M251.107 27.179h143.644v3.891H251.107z"/><path d="M-145.506-57.82c.1-20.152 21.652-36.96 48.363-49.607 26.71-12.648 72.61-28.674 108.4-6.442 35.788 22.232 93.034 97.943 68.93 134.647C56.085 57.48 12.562-16.867-19.872-10.79-52.309-4.713-72.464 59.996-97.7 49.125c-25.237-10.872-8.89-58.301-18.345-76.021-9.454-17.72-29.562-10.772-29.462-30.924z" fill="#01cbd7"/><text style="line-height:1.25" x="-123.27" y="-80.367" font-weight="400" font-size="50.8" font-family="sans-serif" stroke-width=".265"><tspan x="-123.27" y="-80.367" style="-inkscape-font-specification:'IBM Plex Sans Condensed, Light Condensed'" font-weight="300" font-stretch="condensed" font-family="IBM Plex Sans Condensed">Projects</tspan></text><g transform="translate(-185.12 -120.783)" stroke="#1d1d1d"><ellipse cx="111.223" cy="110.066" rx="15.47" ry="21.185" fill="#e9262c" stroke-width="2.381"/><path d="M113.919 86.912s-1.27-9.762-3.655-13.522c-2.386-3.76-5.444-6.485-9.84-7.774-4.398-1.29-15.3 1.898-15.3 1.898s7.753 1.96 10.732 3.534c2.98 1.574 4.905 2.607 7.112 5.368 2.206 2.76 5.328 11.172 5.328 11.172z" fill="#a87981" stroke-width="2.362" stroke-linecap="round" stroke-linejoin="round"/><path d="M111.263 83.528s1.269-7.887 3.655-10.924 5.443-5.24 9.84-6.281c4.397-1.042 15.3 1.534 15.3 1.534s-7.754 1.583-10.733 2.855c-2.98 1.271-4.905 2.105-7.111 4.336-2.207 2.23-5.328 9.026-5.328 9.026z" fill="#a87981" stroke-width="2.123" stroke-linecap="round" stroke-linejoin="round"/><path d="M105.153 86.094s.846-9.084 1.938-13.437c1.092-4.352 4.628-11.791 4.628-11.791s3.767 7.1 4.844 11.517c1.076 4.417 1.614 13.711 1.614 13.711z" fill="#a87981" stroke-width="2.592" stroke-linejoin="round"/><path d="M111.734 88.126s-2.709-8.672-5.827-11.703c-3.118-3.03-6.83-5.012-11.812-5.47-4.983-.457-16.473 4.216-16.473 4.216s8.744.522 12.214 1.468c3.47.947 5.716 1.573 8.503 3.725 2.786 2.152 7.337 9.294 7.337 9.294zm0 0s2.91-8.606 6.1-11.563c3.187-2.957 6.945-4.85 11.937-5.191 4.992-.34 16.368 4.6 16.368 4.6s-8.753.317-12.244 1.182c-3.492.865-5.752 1.438-8.588 3.524-2.836 2.086-7.553 9.12-7.553 9.12z" fill="#a87981" stroke-width="2.381" stroke-linecap="round" stroke-linejoin="round"/><path d="M101.083 114.19s-3.053-9.001-.047-14.373 9.085-7.409 9.085-7.409-4.012 4.855-5.833 8.93c-1.82 4.074-3.205 12.853-3.205 12.853z" fill="#fff" stroke-width=".91" stroke-linejoin="round"/></g><path d="M208.904 199.465s1.896-15.549 5.208-20.44c3.312-4.891 6.358-7.372 11.596-8.451 5.237-1.08 9.513 7.862 14.099 10.045 4.586 2.184 13.22 1.747 13.22 1.747l.196 16.902z" fill="#6f0b20"/><path d="M187.774 199.465s-1.755-2.83-1.333-5.015c.422-2.186 1.217-6.166 5.165-6.743s5.286 2.834 9.102 2.529c3.816-.306 5.416-4.44 9.171-4.388 8.005 3.208 9.067 9.22 10.71 13.617z" fill="#842d4b"/><path d="M372.22 199.269s3.92-9.343 13.365-11.4c9.445-2.056 13.71 9.36 16.76 7.076 3.05-2.285 10.208 3.436 9.183 4.324z" fill="#a86374"/><path d="M130.08 65.556L97.17 199.269l62.991-.197-22.307-133.647z" opacity=".63" fill="#c7be4d"/></g></svg>