<?xml version="1.0" encoding="UTF-8" standalone="no"?>
<svg
   xmlns:dc="http://purl.org/dc/elements/1.1/"
   xmlns:cc="http://creativecommons.org/ns#"
   xmlns:rdf="http://www.w3.org/1999/02/22-rdf-syntax-ns#"
   xmlns:svg="http://www.w3.org/2000/svg"
   xmlns="http://www.w3.org/2000/svg"
   xmlns:sodipodi="http://sodipodi.sourceforge.net/DTD/sodipodi-0.dtd"
   xmlns:inkscape="http://www.inkscape.org/namespaces/inkscape"
   inkscape:export-ydpi="200"
   inkscape:export-xdpi="200"
   inkscape:export-filename="C:\Users\Infinity\Documents\streamshore.png"
   sodipodi:docname="streamshore-side.svg"
   inkscape:version="1.0beta2 (6318c8c, 2019-12-15)"
   id="svg8"
   version="1.1"
   viewBox="0 0 88.025283 15.416461"
   height="15.416461mm"
   width="88.025284mm">
  <defs
     id="defs2">
    <clipPath
       clipPathUnits="userSpaceOnUse"
       id="clipPath18">
      <path
         d="M 0,2000 H 2000 V 0 H 0 Z"
         id="path16"
         inkscape:connector-curvature="0" />
    </clipPath>
  </defs>
  <sodipodi:namedview
     fit-margin-bottom="0"
     fit-margin-right="0"
     fit-margin-left="0"
     fit-margin-top="0"
     inkscape:document-rotation="0"
     inkscape:window-maximized="1"
     inkscape:window-y="23"
     inkscape:window-x="0"
     inkscape:window-height="1035"
     inkscape:window-width="1920"
     showgrid="false"
     inkscape:current-layer="layer1"
     inkscape:document-units="mm"
     inkscape:cy="-67.087752"
     inkscape:cx="84.498943"
     inkscape:zoom="1.979899"
     inkscape:pageshadow="2"
     inkscape:pageopacity="0.0"
     borderopacity="1.0"
     bordercolor="#666666"
     pagecolor="#ffffff"
     id="base" />
  <metadata
     id="metadata5">
    <rdf:RDF>
      <cc:Work
         rdf:about="">
        <dc:format>image/svg+xml</dc:format>
        <dc:type
           rdf:resource="http://purl.org/dc/dcmitype/StillImage" />
        <dc:title></dc:title>
      </cc:Work>
    </rdf:RDF>
  </metadata>
  <g
     transform="translate(-19.173754,-132.54561)"
     id="layer1"
     inkscape:groupmode="layer"
     inkscape:label="Layer 1">
    <text
       xml:space="preserve"
       id="text4557"
       style="font-style:normal;font-variant:normal;font-weight:normal;font-stretch:normal;font-size:40px;line-height:1.25;font-family:Montserrat;-inkscape-font-specification:'Montserrat, Normal';font-variant-ligatures:normal;font-variant-caps:normal;font-variant-numeric:normal;font-feature-settings:normal;text-align:start;letter-spacing:0px;word-spacing:0px;writing-mode:lr-tb;text-anchor:start;fill:#000000;fill-opacity:1;stroke:none"
       transform="scale(0.26458333)"
       x="71.428574"
       y="518.81732" />
    <g
       id="g1135">
      <g
         aria-label="streamshore"
         transform="scale(0.26458333)"
         style="font-style:normal;font-variant:normal;font-weight:normal;font-stretch:normal;font-size:40px;line-height:1.25;font-family:Montserrat;-inkscape-font-specification:'Montserrat, Normal';font-variant-ligatures:normal;font-variant-caps:normal;font-variant-numeric:normal;font-feature-settings:normal;text-align:start;letter-spacing:0px;word-spacing:0px;writing-mode:lr-tb;text-anchor:start;fill:#000000;fill-opacity:1;stroke:none"
         id="flowRoot3721">
        <path
           inkscape:connector-curvature="0"
           d="m 81.027734,545.19812 c 5.48,0 8.68,-2.36 8.68,-6 0,-8.08 -13.64,-3.8 -13.64,-9.48 0,-2 1.68,-3.48 5.48,-3.48 2.16,0 4.36,0.52 6.2,1.8 l 1.24,-2.28 c -1.76,-1.2 -4.72,-1.96 -7.44,-1.96 -5.36,0 -8.32,2.56 -8.32,6 0,8.32 13.64,4 13.64,9.48 0,2.08 -1.64,3.44 -5.64,3.44 -2.96,0 -5.8,-1.04 -7.48,-2.36 l -1.28,2.24 c 1.72,1.48 5.08,2.6 8.56,2.6 z"
           style="font-style:normal;font-variant:normal;font-weight:normal;font-stretch:normal;font-size:40px;font-family:Montserrat;-inkscape-font-specification:'Montserrat, Normal';font-variant-ligatures:normal;font-variant-caps:normal;font-variant-numeric:normal;font-feature-settings:normal;text-align:start;letter-spacing:0.5px;writing-mode:lr-tb;text-anchor:start;fill:#03a9f4;fill-opacity:1"
           id="path4563" />
        <path
           inkscape:connector-curvature="0"
           d="m 105.49898,541.67812 c -0.8,0.72 -1.96,1.08 -3.12,1.08 -2.36,0 -3.639996,-1.36 -3.639996,-3.84 v -12.56 h 6.399996 v -2.4 h -6.399996 v -4.6 h -2.84 v 4.6 h -3.76 v 2.4 h 3.76 v 12.72 c 0,3.88 2.2,6.12 6.159996,6.12 1.64,0 3.32,-0.48 4.44,-1.48 z"
           style="font-style:normal;font-variant:normal;font-weight:normal;font-stretch:normal;font-size:40px;font-family:Montserrat;-inkscape-font-specification:'Montserrat, Normal';font-variant-ligatures:normal;font-variant-caps:normal;font-variant-numeric:normal;font-feature-settings:normal;text-align:start;letter-spacing:0.5px;writing-mode:lr-tb;text-anchor:start;fill:#03a9f4;fill-opacity:1"
           id="path4565" />
        <path
           inkscape:connector-curvature="0"
           d="m 114.88898,528.07812 v -4.12 h -2.72 v 21.04 h 2.84 v -10.72 c 0,-4.96 2.68,-7.76 7.08,-7.76 0.2,0 0.44,0.04 0.68,0.04 v -2.76 c -3.88,0 -6.56,1.48 -7.88,4.28 z"
           style="font-style:normal;font-variant:normal;font-weight:normal;font-stretch:normal;font-size:40px;font-family:Montserrat;-inkscape-font-specification:'Montserrat, Normal';font-variant-ligatures:normal;font-variant-caps:normal;font-variant-numeric:normal;font-feature-settings:normal;text-align:start;letter-spacing:0.5px;writing-mode:lr-tb;text-anchor:start;fill:#03a9f4;fill-opacity:1"
           id="path4567" />
        <path
           inkscape:connector-curvature="0"
           d="m 146.49773,534.47812 c 0,-6.32 -4.28,-10.68 -10.2,-10.68 -5.92,0 -10.28,4.44 -10.28,10.68 0,6.24 4.48,10.72 11.04,10.72 3.32,0 6.24,-1.2 8.12,-3.44 l -1.6,-1.84 c -1.6,1.84 -3.88,2.76 -6.44,2.76 -4.6,0 -7.96,-2.92 -8.28,-7.32 h 17.6 c 0,-0.32 0.04,-0.64 0.04,-0.88 z m -10.2,-8.24 c 4.12,0 7.12,2.88 7.48,7 h -14.92 c 0.36,-4.12 3.36,-7 7.44,-7 z"
           style="font-style:normal;font-variant:normal;font-weight:normal;font-stretch:normal;font-size:40px;font-family:Montserrat;-inkscape-font-specification:'Montserrat, Normal';font-variant-ligatures:normal;font-variant-caps:normal;font-variant-numeric:normal;font-feature-settings:normal;text-align:start;letter-spacing:0.5px;writing-mode:lr-tb;text-anchor:start;fill:#03a9f4;fill-opacity:1"
           id="path4569" />
        <path
           inkscape:connector-curvature="0"
           d="m 159.51336,523.79812 c -3.32,0 -6.44,1.04 -8.56,2.84 l 1.28,2.12 c 1.72,-1.52 4.28,-2.48 7,-2.48 3.92,0 5.96,1.96 5.96,5.56 v 1.28 h -6.68 c -6.04,0 -8.12,2.72 -8.12,5.96 0,3.64 2.92,6.12 7.68,6.12 3.48,0 5.96,-1.32 7.24,-3.48 v 3.28 h 2.72 v -13.04 c 0,-5.44 -3.08,-8.16 -8.52,-8.16 z m -1,19.16 c -3.36,0 -5.32,-1.52 -5.32,-3.96 0,-2.16 1.32,-3.76 5.4,-3.76 h 6.6 v 3.44 c -1.12,2.76 -3.48,4.28 -6.68,4.28 z"
           style="font-style:normal;font-variant:normal;font-weight:normal;font-stretch:normal;font-size:40px;font-family:Montserrat;-inkscape-font-specification:'Montserrat, Normal';font-variant-ligatures:normal;font-variant-caps:normal;font-variant-numeric:normal;font-feature-settings:normal;text-align:start;letter-spacing:0.5px;writing-mode:lr-tb;text-anchor:start;fill:#03a9f4;fill-opacity:1"
           id="path4571" />
        <path
           inkscape:connector-curvature="0"
           d="m 202.48711,523.79812 c -3.8,0 -6.8,1.72 -8.32,4.44 -1.28,-2.96 -4,-4.44 -7.48,-4.44 -3.52,0 -6.24,1.48 -7.72,4 v -3.84 h -2.72 v 21.04 h 2.84 v -11.04 c 0,-4.8 2.76,-7.6 7.04,-7.6 3.84,0 6.08,2.28 6.08,6.72 v 11.92 h 2.84 v -11.04 c 0,-4.8 2.72,-7.6 7.04,-7.6 3.8,0 6.04,2.28 6.04,6.72 v 11.92 h 2.84 v -12.2 c 0,-6.04 -3.36,-9 -8.48,-9 z"
           style="font-style:normal;font-variant:normal;font-weight:normal;font-stretch:normal;font-size:40px;font-family:Montserrat;-inkscape-font-specification:'Montserrat, Normal';font-variant-ligatures:normal;font-variant-caps:normal;font-variant-numeric:normal;font-feature-settings:normal;text-align:start;letter-spacing:0.5px;writing-mode:lr-tb;text-anchor:start;fill:#03a9f4;fill-opacity:1"
           id="path4573" />
        <path
           inkscape:connector-curvature="0"
           d="m 225.32898,545.31812 c 6.44,0 10.16,-2.84 10.16,-6.84 0,-8.48 -13,-4.92 -13,-8.6 0,-1.12 1.2,-2 4,-2 1.96,0 4.08,0.4 6.2,1.6 l 2.08,-4.44 c -2.04,-1.2 -5.32,-1.88 -8.28,-1.88 -6.28,0 -9.96,2.88 -9.96,6.96 0,8.6 13,5 13,8.52 0,1.2 -1.08,1.96 -3.96,1.96 -2.64,0 -5.56,-0.84 -7.48,-2.08 l -2.08,4.48 c 2,1.32 5.68,2.32 9.32,2.32 z"
           style="font-style:normal;font-variant:normal;font-weight:bold;font-stretch:normal;font-size:40px;font-family:Montserrat;-inkscape-font-specification:'Montserrat, Bold';font-variant-ligatures:normal;font-variant-caps:normal;font-variant-numeric:normal;font-feature-settings:normal;text-align:start;letter-spacing:0.5px;writing-mode:lr-tb;text-anchor:start;fill:#ffd600;fill-opacity:1"
           id="path4575" />
        <path
           inkscape:connector-curvature="0"
           d="m 252.91898,523.15812 c -2.76,0 -5.16,0.88 -6.84,2.56 v -10.4 h -6.24 v 29.68 h 6.24 v -10.64 c 0,-3.96 2.16,-5.8 5.16,-5.8 2.76,0 4.36,1.6 4.36,5.08 v 11.36 h 6.24 v -12.32 c 0,-6.56 -3.84,-9.52 -8.92,-9.52 z"
           style="font-style:normal;font-variant:normal;font-weight:bold;font-stretch:normal;font-size:40px;font-family:Montserrat;-inkscape-font-specification:'Montserrat, Bold';font-variant-ligatures:normal;font-variant-caps:normal;font-variant-numeric:normal;font-feature-settings:normal;text-align:start;letter-spacing:0.5px;writing-mode:lr-tb;text-anchor:start;fill:#ffd600;fill-opacity:1"
           id="path4577" />
        <path
           inkscape:connector-curvature="0"
           d="m 278.46961,545.31812 c 6.84,0 11.8,-4.6 11.8,-11.08 0,-6.48 -4.96,-11.08 -11.8,-11.08 -6.84,0 -11.84,4.6 -11.84,11.08 0,6.48 5,11.08 11.84,11.08 z m 0,-5.12 c -3.12,0 -5.52,-2.24 -5.52,-5.96 0,-3.72 2.4,-5.96 5.52,-5.96 3.12,0 5.48,2.24 5.48,5.96 0,3.72 -2.36,5.96 -5.48,5.96 z"
           style="font-style:normal;font-variant:normal;font-weight:bold;font-stretch:normal;font-size:40px;font-family:Montserrat;-inkscape-font-specification:'Montserrat, Bold';font-variant-ligatures:normal;font-variant-caps:normal;font-variant-numeric:normal;font-feature-settings:normal;text-align:start;letter-spacing:0.5px;writing-mode:lr-tb;text-anchor:start;fill:#ffd600;fill-opacity:1"
           id="path4579" />
        <path
           inkscape:connector-curvature="0"
           d="m 300.86148,526.31812 v -2.84 h -5.96 v 21.52 h 6.24 v -10.16 c 0,-4.12 2.28,-6 5.72,-6 0.48,0 0.88,0.04 1.4,0.08 v -5.76 c -3.32,0 -5.88,1.08 -7.4,3.16 z"
           style="font-style:normal;font-variant:normal;font-weight:bold;font-stretch:normal;font-size:40px;font-family:Montserrat;-inkscape-font-specification:'Montserrat, Bold';font-variant-ligatures:normal;font-variant-caps:normal;font-variant-numeric:normal;font-feature-settings:normal;text-align:start;letter-spacing:0.5px;writing-mode:lr-tb;text-anchor:start;fill:#ffd600;fill-opacity:1"
           id="path4581" />
        <path
           inkscape:connector-curvature="0"
           d="m 333.35648,534.31812 c 0,-6.92 -4.88,-11.16 -11.2,-11.16 -6.56,0 -11.48,4.64 -11.48,11.08 0,6.4 4.84,11.08 12.28,11.08 3.88,0 6.88,-1.2 8.88,-3.48 l -3.32,-3.6 c -1.48,1.4 -3.12,2.08 -5.4,2.08 -3.28,0 -5.56,-1.64 -6.16,-4.32 h 16.28 c 0.04,-0.52 0.12,-1.2 0.12,-1.68 z m -11.16,-6.44 c 2.8,0 4.84,1.76 5.28,4.48 h -10.6 c 0.44,-2.76 2.48,-4.48 5.32,-4.48 z"
           style="font-style:normal;font-variant:normal;font-weight:bold;font-stretch:normal;font-size:40px;font-family:Montserrat;-inkscape-font-specification:'Montserrat, Bold';font-variant-ligatures:normal;font-variant-caps:normal;font-variant-numeric:normal;font-feature-settings:normal;text-align:start;letter-spacing:0.5px;writing-mode:lr-tb;text-anchor:start;fill:#ffd600;fill-opacity:1"
           id="path4583" />
      </g>
      <g
         transform="matrix(0.026625,0,0,-0.02682113,71.69951,170.32384)"
         clip-path="url(#clipPath18)"
         id="g14">
        <g
           transform="translate(389.4722,700.2539)"
           id="g20" />
        <g
           transform="translate(493.9517,623.7529)"
           id="g24" />
        <g
           transform="translate(567.1992,704.8643)"
           id="g28" />
        <g
           transform="translate(673.8774,677.3027)"
           id="g32" />
        <g
           transform="translate(772.3862,672.3779)"
           id="g36" />
        <g
           transform="translate(1062.5586,697.8428)"
           id="g40" />
        <g
           transform="translate(1176.8916,700.2539)"
           id="g44" />
        <g
           transform="translate(1321.2949,697.7363)"
           id="g48" />
        <g
           transform="translate(1394.2334,672.9014)"
           id="g52" />
        <g
           transform="translate(1543.876,704.8643)"
           id="g56" />
        <g
           transform="translate(1650.5586,677.3027)"
           id="g60" />
        <g
           transform="translate(1285.7422,1281.2251)"
           id="g64">
          <path
             inkscape:connector-curvature="0"
             id="path66"
             style="fill:#03a9f4;fill-opacity:1;fill-rule:nonzero;stroke:none"
             d="m 0,0 c -73.201,109.544 -199.531,143.891 -299.228,120.174 6.103,-4.012 11.493,-7.865 17.206,-11.161 2.46,-1.42 6.861,-2.141 9.682,-1.81 29.398,3.444 58.62,2.59 87.824,-3.144 9.126,-1.792 18.017,-4.028 26.677,-6.649 2.106,-27.757 139.798,-100.987 181.307,-213.658 0.038,-0.313 0.075,-0.626 0.112,-0.939 6.041,-51.625 -15.491,-102.676 -54.955,-136.502 l -9.481,-8.127 c 14.244,39.486 10.096,77.714 10.096,77.714 -30.148,-66.327 -106.918,-92.419 -158.825,-102.645 22.016,44.311 16.643,93.166 16.643,93.166 -8.341,-18.35 -20.251,-33.618 -34.216,-46.322 -51.048,-46.437 -127.202,-56.424 -187.737,-23.288 -60.636,33.191 -73.169,90.823 -73.995,129.644 2.379,0.983 4.243,2.811 6.005,4.654 0.604,0.632 1.204,1.263 1.821,1.837 1.171,1.09 2.267,2.281 3.328,3.433 2.144,2.329 4.168,4.526 6.526,5.66 2.784,1.337 7.523,1.434 9.219,0.191 1.519,-1.114 2.674,-5.292 2.524,-9.124 -0.119,-3.038 -2.187,-6.557 -3.975,-9.286 -1.068,-1.628 -2.446,-3.107 -3.904,-4.672 -1.588,-1.706 -3.229,-3.468 -4.542,-5.528 -1.507,-2.367 -3.862,-7.661 -1.987,-10.747 1.905,-3.139 6.427,-6.572 10.405,-6.648 3.899,0.014 9.041,2.844 10.955,6.249 2.67,4.753 4.291,10.049 5.859,15.171 l 0.83,2.69 c 1.555,4.954 3.023,6.481 5.934,6.263 1.158,-0.084 4.231,-0.307 5.058,-6.436 0.978,-7.224 -0.253,-13.484 -3.761,-19.137 -0.762,-1.228 -1.578,-2.423 -2.392,-3.62 -1.253,-1.838 -2.548,-3.738 -3.662,-5.762 -3.187,-5.79 -2.778,-11.137 1.123,-14.666 2.524,-2.283 6.849,-3.714 10.524,-3.524 3.561,0.202 8.07,2.218 9.341,10.669 0.496,3.302 0.784,6.653 1.061,9.893 0.129,1.506 0.258,3.012 0.409,4.515 0.578,5.804 3.159,6.95 5.607,7.304 1.267,0.185 2.553,-0.201 3.634,-1.078 1.477,-1.199 2.372,-3.117 2.517,-5.401 0.406,-6.314 -0.411,-12.832 -1.202,-19.134 l -0.154,-1.104 c -0.438,-3.032 -1.173,-8.103 4.04,-9.546 0.672,-0.186 1.419,-0.273 2.205,-0.273 2.991,0 6.539,1.274 8.632,3.267 5.099,4.861 6.615,12.145 4.156,19.987 -2.042,6.519 -4.701,14.016 -8.933,20.198 -16.408,23.965 -38.42,42.259 -69.407,57.3 1.596,2.729 2.763,5.806 3.43,9.102 6.791,-2.151 13.036,-6.401 18.432,-13.91 0.629,-0.876 1.555,-1.59 2.46,-2.206 4.815,-3.277 9.975,-3.718 15.19,-1.238 5.107,2.43 6.02,7.053 5.636,12.145 -0.166,2.202 -0.411,4.399 -0.619,6.598 -0.922,9.781 4.61,18.344 12.838,19.869 7.847,1.455 14.942,-3.481 17.53,-13.253 1.49,-5.624 1.406,-11.648 2.325,-17.445 1.03,-6.495 1.754,-13.148 3.794,-19.342 1.895,-5.752 6.595,-7.752 11.79,-6.704 5.111,1.032 8.607,4.799 8.675,10.617 0.047,3.971 -0.913,8 -1.772,11.926 -1.653,7.543 -3.929,14.968 -5.235,22.565 -1.062,6.186 1.814,10.834 6.865,13.184 5.304,2.467 10.086,1.55 14.699,-2.642 6.206,-5.639 8.969,-12.937 10.096,-20.962 0.871,-6.198 1.29,-12.46 2.173,-18.657 0.929,-6.522 3.594,-12.19 9.048,-16.04 6.231,-4.398 14.543,-2.388 17.544,4.623 2.218,5.181 1.255,10.225 -1.32,14.903 -3.103,5.638 -7.078,10.845 -9.73,16.669 -1.853,4.067 -3.256,8.729 -3.418,13.176 -0.256,7.086 7.286,11.664 13.013,7.484 3.217,-2.35 5.295,-6.141 7.708,-9.436 4.546,-6.209 8.275,-13.241 13.731,-18.486 4.205,-4.041 9.958,-7.082 15.616,-8.949 6.686,-2.207 13.385,4.237 10.983,10.855 -1.599,4.404 -4.137,8.665 -7.052,12.36 -9.574,12.135 -21.92,20.968 -36.251,26.343 -48.845,18.321 -96.868,19.224 -143.497,-2.096 -1.981,3.489 -4.283,6.709 -6.135,10.295 -4.162,8.062 -3.855,16.723 0.591,24.344 5.054,8.661 13.971,12.651 22.211,8.063 5.541,-3.085 10.285,-8.575 15.258,-13.209 2.418,-2.254 4.294,-5.547 6.847,-7.436 6.134,-4.538 13.675,-1.507 16.802,6.257 3.248,8.064 0.834,16.871 -6.086,20.565 -8.114,4.332 -15.252,9.957 -19.418,20.139 -4.612,11.272 -0.372,22.089 9.564,23.749 3.785,0.633 7.862,0.46 11.611,-0.559 15.357,-4.175 28.362,-14.255 40.292,-26.886 2.715,-2.876 5.48,-6.003 8.644,-7.823 10.181,-5.858 19.889,3.269 18.698,17.151 -0.66,7.698 -4.162,12.981 -9.5,15.93 -6.846,3.781 -14.135,6.282 -20.915,10.225 -4.911,2.856 -9.875,6.4 -13.777,11.023 -4.366,5.174 -4.357,13.288 -1.41,18.476 2.903,5.112 8.003,6.853 13.883,4.456 3.216,-1.311 6.294,-3.173 9.499,-4.528 9.574,-4.043 19.269,-6.45 29.33,-3.757 7.337,1.964 12.602,6.595 12.551,12.104 -0.08,8.567 -5.593,11.567 -10.706,14.114 -13.656,6.805 -27.649,7.766 -41.851,3.663 -20.34,-5.877 -38.121,-18.334 -55.154,-32.72 -22.402,-18.92 -42.844,-40.369 -56.97,-69.943 -8.048,-16.849 -13.735,-34.549 -16.672,-53.285 -4.026,-1.603 -7.564,-4.375 -10.305,-7.973 -1.674,2.197 -3.646,4.08 -5.844,5.586 0.555,3.188 2.526,6.284 5.985,9.588 3.425,3.273 6.651,6.837 7.063,10.726 0.544,5.094 -0.939,10.919 -3.687,14.495 -3.573,4.652 -9.784,5.013 -16.205,0.952 -1.094,-0.693 -2.095,-1.473 -3.065,-2.229 -1.339,-1.044 -2.604,-2.029 -3.94,-2.651 -3.628,-1.688 -7.173,-3.234 -10.661,-3.634 -3.419,-0.389 -7.949,0.138 -10.131,4.887 -2.166,4.716 -1.509,9.167 1.848,12.531 3.307,3.311 7.648,5.857 11.06,7.704 3.09,1.674 6.372,3.196 9.547,4.669 3.525,1.635 7.17,3.325 10.654,5.263 4.657,2.591 7.508,5.833 8.476,9.637 0.904,3.558 0.104,7.346 -2.377,11.258 -2.485,3.918 -5.9,6.378 -9.878,7.116 -4.119,0.761 -8.4,-0.406 -12.398,-3.375 -4.025,-2.991 -7.905,-6.253 -11.656,-9.408 -2.458,-2.068 -4.916,-4.136 -7.425,-6.138 -0.648,-0.519 -1.3,-1.079 -1.958,-1.644 -1.989,-1.713 -4.044,-3.483 -5.947,-3.844 -4.896,-0.931 -9.344,-0.61 -11.075,0.799 -1.21,0.985 -1.822,6.178 -0.767,9.537 1.118,3.555 4.041,7.526 7.449,10.117 5.366,4.078 11.219,7.787 16.881,11.374 2.646,1.677 5.293,3.354 7.907,5.074 0.687,0.452 1.392,0.889 2.099,1.327 2.285,1.416 4.646,2.879 6.571,4.912 5.326,5.625 5.355,14.705 0.068,20.672 -4.814,5.431 -11.907,5.46 -18.509,0.074 -2.722,-2.221 -5.002,-4.897 -7.208,-7.483 -1.188,-1.394 -2.376,-2.79 -3.634,-4.109 -0.863,-0.904 -1.709,-1.844 -2.554,-2.787 -2.483,-2.767 -4.827,-5.379 -7.624,-7.09 -1.865,-1.142 -5.791,-1.305 -7.496,-0.309 -1.074,0.627 -2.553,4.44 -2.064,5.904 1.799,5.393 5.015,10.464 8.124,15.37 1.146,1.808 2.516,3.508 3.967,5.306 2.331,2.889 4.74,5.877 6.184,9.403 1.585,3.868 -0.214,10.89 -3.435,13.417 -3.241,2.543 -10.884,2.272 -13.859,-0.493 -3.924,-3.643 -9.271,-9.532 -12.471,-16.908 -19.509,-44.977 -4.532,-110.134 32.708,-142.28 3.193,-2.757 6.538,-5.298 9.998,-7.686 -1.412,-2.805 -2.397,-5.916 -2.877,-9.228 -3.936,-0.689 -7.822,-1.638 -11.675,-2.878 -32.883,-10.586 -56.592,-32.997 -70.466,-66.607 -3.572,-8.653 -4.628,-18.472 -5.19,-26.936 -0.277,-4.143 0.922,-7.803 3.374,-10.303 1.95,-1.989 4.499,-3.067 7.226,-3.067 0.162,0 0.325,0.005 0.489,0.012 2.756,0.13 5.161,1.251 6.957,3.24 2.374,2.63 3.493,6.515 3.233,11.232 -0.107,1.943 -0.444,3.839 -0.769,5.673 -0.412,2.317 -0.801,4.506 -0.713,6.609 0.143,3.403 0.554,8.361 2.462,12.108 0.867,1.704 2.176,2.682 3.586,2.684 h 0.004 c 1.497,0 2.952,-1.098 3.894,-2.935 1.361,-2.658 1.939,-5.996 2.499,-9.224 0.128,-0.735 0.255,-1.465 0.39,-2.19 0.357,-1.916 0.595,-3.934 0.828,-5.886 0.349,-2.949 0.709,-6 1.494,-8.977 1.571,-5.975 6.066,-9.319 11.769,-8.761 6.197,0.62 10.48,4.578 11.176,10.329 0.515,4.241 -0.768,8.625 -1.934,11.555 -1.291,3.242 -2.797,6.43 -4.254,9.51 -2.164,4.576 -4.208,8.898 -5.653,13.472 -1.313,4.153 -1.487,9.57 -0.469,14.489 0.466,2.248 1.736,3.841 3.484,4.371 1.856,0.563 4.015,-0.145 5.778,-1.884 2.455,-2.423 3.999,-6.241 4.945,-8.902 1.079,-3.032 1.991,-6.224 2.872,-9.309 1.09,-3.817 2.216,-7.762 3.696,-11.561 1.38,-3.547 4.329,-6.953 7.513,-8.676 4.856,-2.628 10.421,-1.502 14.887,3.001 3.873,3.91 4.552,8.993 1.863,13.947 -1.737,3.197 -3.598,6.374 -5.397,9.448 -2.376,4.057 -4.833,8.251 -6.987,12.472 -1.926,3.772 -2.384,7.728 -1.258,10.856 0.801,2.224 2.334,3.879 4.434,4.786 2.212,0.953 4.457,0.428 5.953,-0.183 3.38,-1.379 6.351,-4.529 7.944,-8.423 0.312,-0.76 0.541,-1.586 0.775,-2.407 0.546,-1.913 1.164,-4.08 2.671,-5.699 3.809,-4.089 7.001,-6.035 9.8,-6.081 -1.099,-6.036 -2.012,-11.977 -2.698,-17.752 -0.907,-3.013 -1.65,-6.06 -2.002,-9.13 -2.33,-20.344 -1.648,-41.405 1.324,-61.957 0.109,-0.959 0.192,-1.632 0.192,-1.632 l 0.05,-0.036 c 1.326,-8.785 3.027,-17.482 5.16,-25.964 6.914,-27.494 17.92,-53.955 32.552,-78.237 12.016,-19.942 27.7,-38.243 44.567,-54.245 16.837,-15.973 35.638,-29.869 55.859,-41.259 20.514,-11.554 42.476,-20.515 65.223,-26.591 23.525,-6.284 47.854,-9.463 72.201,-9.526 0.248,-0.001 0.495,-0.002 0.742,-0.002 24.204,0 48.398,3.079 71.811,9.228 22.75,5.974 44.73,14.832 65.274,26.285 20.246,11.286 39.086,25.08 55.976,40.955 16.789,15.779 31.484,33.603 44.126,52.849 10.43,15.876 18.308,33.024 25.672,50.466 C 58.152,-190.549 58.4,-87.395 0,0" />
        </g>
        <g
           transform="translate(1127.5986,1379.0176)"
           id="g68">
          <path
             inkscape:connector-curvature="0"
             id="path70"
             style="fill:#ffd600;fill-opacity:1;fill-rule:nonzero;stroke:none"
             d="m 0,0 c -11.079,-13.051 -19.829,-28.129 -25.687,-44.578 l 63.31,-3.63 -67.284,-9.648 c -2.716,-10.938 -4.306,-22.319 -4.306,-34.105 0,-20.518 4.433,-39.971 12.254,-57.588 l 104.406,-5.988 -93.872,-13.46 c 3.373,-5.217 7.049,-10.204 11.058,-14.921 l 63.982,-3.67 -53.194,-7.627 c 25.47,-24.071 59.738,-38.928 97.548,-38.928 26.807,0 51.79,7.555 73.185,20.46 C 169.602,-116.021 101.224,-30.6 0,0" />
        </g>
      </g>
    </g>
  </g>
</svg>
