<svg xmlns="http://www.w3.org/2000/svg" viewBox="0 0 108.257 108.257" height="409.16" width="409.161"><g transform="translate(-66.718 -110.874)"><circle cx="101.142" cy="160.751" fill="#01cbd7" r="54.129" transform="translate(19.704 4.251)"/><rect ry="0" y="135.05" x="93.88" height="36.392" width="53.763" fill="#1d1d1d" stroke="#0b0b0b" stroke-width=".881" stroke-linejoin="round"/><path d="M93.88 171.442l-6.689 17.694 66.259.029-5.807-17.723z" fill="#1d1d1d" stroke="#0b0b0b" stroke-width=".88"/><path fill="#a87981" stroke="#0b0b0b" stroke-width=".893" stroke-linejoin="round" d="M95.469 137.507h50.454v30.591H95.469z"/><path d="M114.374 189.102l1.575-4.656h9.654l1.712 4.656z" fill="#4b4b4b" stroke="#0b0b0b" stroke-width=".881"/><path fill="none" stroke="#848484" stroke-width=".881" stroke-linejoin="round" d="M98.433 174.552h7.395v.548h-7.395zm9.512 0h7.395v.548h-7.395z"/><path fill="none" stroke="#848484" stroke-width="1.05" stroke-linejoin="round" d="M117.554 174.636h15.169v.379h-15.169z"/><path fill="none" stroke="#848484" stroke-width=".881" stroke-linejoin="round" d="M134.853 174.468h7.395v.548h-7.395z"/><path fill="none" stroke="#848484" stroke-width="1.05" stroke-linejoin="round" d="M98.583 177.216h15.169v-.379H98.583z"/><path fill="none" stroke="#848484" stroke-width=".881" stroke-linejoin="round" d="M115.814 176.806h7.395v.548h-7.395z"/><path fill="none" stroke="#848484" stroke-width="1.071" stroke-linejoin="round" d="M125.288 176.872h16.722v.358h-16.722z"/><path fill="none" stroke="#848484" stroke-width=".881" stroke-linejoin="round" d="M98.489 179.071h7.395v.548h-7.395zm9.525 0h7.395v.548h-7.395zm9.525 0h7.395v.548h-7.395zm9.525 0h7.395v.548h-7.395z"/><path fill="none" stroke="#848484" stroke-width=".816" stroke-linejoin="round" d="M136.556 179.039h5.679v.612h-5.679z"/></g></svg>