<svg xmlns="http://www.w3.org/2000/svg" viewBox="0 0 112.894 112.894" height="426.688" width="426.688"><g transform="translate(-33.606 -40.031)"><circle r="56.447" cy="96.478" cx="90.053" fill="#01cbd7"/><rect transform="rotate(-23.59)" width="46.869" height="59.72" x=".433" y="97.695" ry="8.246" fill="#e9262c" stroke="#000" stroke-width="2" stroke-linecap="square" stroke-linejoin="round"/><rect transform="rotate(-23.59)" ry="6.64" y="100.932" x="3.897" height="53.36" width="39.942" fill="#a87981" stroke="#000" stroke-width="2" stroke-linecap="square" stroke-linejoin="round"/><rect transform="rotate(-23.59)" width="20.242" height="12.09" x="14.087" y="93.114" ry="1.861" fill="#e9262c" stroke="#000" stroke-width="2" stroke-linecap="square" stroke-linejoin="round"/><path d="M53.262 100.291L70.914 92.8m-15.298 12.746l17.29-7.33M57.947 110.88l17.531-7.437M60.317 116.23l26.636-11.48m-24.307 16.815l26.637-11.48m-21.978 22.149l26.637-11.48M64.976 126.9l17.53-7.438" fill="none" stroke="#000" stroke-width="2" stroke-linecap="round"/><rect transform="rotate(-23.59)" width="5.019" height="5.121" x="33.526" y="112.713" ry=".42" fill="#01cbd7" stroke="#000" stroke-width="1.5" stroke-linecap="round" stroke-linejoin="round"/><rect transform="rotate(-23.59)" ry=".42" y="139.7" x="33.526" height="5.121" width="5.019" fill="#01cbd7" stroke="#000" stroke-width="1.5" stroke-linecap="round" stroke-linejoin="round"/><rect transform="rotate(-23.59)" ry=".42" y="122.237" x="33.526" height="5.121" width="5.019" fill="#01cbd7" stroke="#000" stroke-width="1.5" stroke-linecap="round" stroke-linejoin="round"/><path d="M110.212 89.869l3.38 3.375s2.932-1.215 6.183-5.24c3.252-4.025 12.48-16.563 12.48-16.563s-12.105 8.935-16.632 12.36c-4.527 3.425-5.411 6.068-5.411 6.068z" fill="#8c2425" stroke="#000" stroke-width="1.235" stroke-linejoin="round"/><path d="M110.212 89.869l3.38 3.375-3.598 6.187-7.522 3.062 2.017-8.687z" fill="#1d1d1d" stroke="#000" stroke-width="1.235"/><ellipse ry="1.135" rx="1.09" cy="96.758" cx="107.243" fill="#01cbd7"/><path d="M101.67 103.585l5.204-6.335" fill="none" stroke="#01cbd7"/></g></svg>